<?xml version="1.0" encoding="utf-8"?>
<!-- Generator: Adobe Illustrator 25.4.1, SVG Export Plug-In . SVG Version: 6.00 Build 0)  -->
<svg version="1.1" xmlns="http://www.w3.org/2000/svg" xmlns:xlink="http://www.w3.org/1999/xlink" x="0px" y="0px"
	 viewBox="0 0 256 256" style="enable-background:new 0 0 256 256;" xml:space="preserve">
<style type="text/css">
	.st0{opacity:0.8;fill:url(#SVGID_1_);}
	.st1{display:none;fill:none;stroke:#000000;stroke-width:0.25;stroke-miterlimit:10;}
	.st2{fill:url(#SVGID_00000065765834093040321830000014739767320502608791_);}
	.st3{fill:url(#SVGID_00000005249822804434048070000004067743990690321831_);}
	.st4{fill:url(#SVGID_00000015345968158529264950000013600406561256914058_);}
	.st5{fill:url(#SVGID_00000096025041765450914400000009443327905644629176_);}
	.st6{fill:url(#SVGID_00000008127076150594210700000018088727291147704196_);}
	.st7{fill:url(#SVGID_00000083060483517163811670000012220002245677033118_);}
	
		.st8{fill:url(#SVGID_00000106125206458361392520000011579274613347242388_);stroke:#F2F2F2;stroke-width:0.1;stroke-miterlimit:10;}
</style>
<g id="Layer_1">
	<linearGradient id="SVGID_1_" gradientUnits="userSpaceOnUse" x1="238.3413" y1="238.3413" x2="17.6587" y2="17.6587">
		<stop  offset="0" style="stop-color:#FCC870"/>
		<stop  offset="0.148" style="stop-color:#FEC96D"/>
		<stop  offset="0.1899" style="stop-color:#FFCA6C"/>
		<stop  offset="0.2977" style="stop-color:#F4C279"/>
		<stop  offset="0.4967" style="stop-color:#D7AE9B"/>
		<stop  offset="0.763" style="stop-color:#A98ED2"/>
		<stop  offset="0.9609" style="stop-color:#8374FF"/>
	</linearGradient>
	<path class="st0" d="M195.49,256.34H60.51c-33.14,0-60-26.86-60-60V59.66c0-33.14,26.86-60,60-60h134.98c33.14,0,60,26.86,60,60
		v136.68C255.49,229.48,228.63,256.34,195.49,256.34z"/>
	<path class="st1" d="M80.99,170.79"/>
	<path class="st1" d="M80.99,144.91"/>
	<line class="st1" x1="80.99" y1="128.85" x2="80.99" y2="142.19"/>
	<line class="st1" x1="80.99" y1="126" x2="80.99" y2="126.14"/>
	<polyline class="st1" points="63,126 63,107.89 80.99,107.89 	"/>
	<path class="st1" d="M63,126"/>
	<path class="st1" d="M45.02,143.91"/>
	<polyline class="st1" points="90.01,126 63,126 63,107.89 99,107.89 	"/>
	<line class="st1" x1="99.01" y1="107.89" x2="128" y2="170.83"/>
	<line class="st1" x1="90" y1="125.99" x2="108" y2="170.83"/>
	<line class="st1" x1="107.98" y1="170.82" x2="127.96" y2="170.88"/>
	<line class="st1" x1="63" y1="128.85" x2="80.99" y2="128.85"/>
	<line class="st1" x1="215.98" y1="107.89" x2="188.91" y2="170.83"/>
	<line class="st1" x1="234.02" y1="107.89" x2="206.96" y2="170.83"/>
	<line class="st1" x1="197.17" y1="145.57" x2="180" y2="107.89"/>
	<line class="st1" x1="197.99" y1="107.89" x2="205.8" y2="126.02"/>
</g>
<g id="Layer_2">
	<g>
		
			<linearGradient id="SVGID_00000009572556383676981800000000745156430011355567_" gradientUnits="userSpaceOnUse" x1="47.941" y1="131.3917" x2="68.4121" y2="166.8486">
			<stop  offset="0" style="stop-color:#FF98B2"/>
			<stop  offset="0.0797" style="stop-color:#FFABC0"/>
			<stop  offset="0.2357" style="stop-color:#FFC9D7"/>
			<stop  offset="0.3998" style="stop-color:#FFE1E8"/>
			<stop  offset="0.5736" style="stop-color:#FFF2F5"/>
			<stop  offset="0.7635" style="stop-color:#FFFCFD"/>
			<stop  offset="1" style="stop-color:#FFFFFF"/>
		</linearGradient>
		<path style="fill:url(#SVGID_00000009572556383676981800000000745156430011355567_);" d="M45.18,145.73
			c-0.24-2.52-2.38-4.48-4.99-4.47l-8.06,0.04c-2.78,0.01-5.05,2.26-5.06,5.02l-0.01-0.24c1.07,13.93,12.72,24.91,26.93,24.91
			c14.68,0,26.63-11.71,27-26.3l-0.01,0.23v-11.07c0-2.76-2.24-5-5-5H68c-2.76,0-5,2.24-5,5l-0.03,10.06c0,4.97-4.02,9-8.98,9
			c-4.55,0-8.31-3.39-8.9-7.8"/>
	</g>
	<g>
		
			<linearGradient id="SVGID_00000138555568948765615120000012895594017505602492_" gradientUnits="userSpaceOnUse" x1="75.3283" y1="104.9178" x2="114.9369" y2="173.522">
			<stop  offset="0" style="stop-color:#FF98B2"/>
			<stop  offset="0.0797" style="stop-color:#FFABC0"/>
			<stop  offset="0.2357" style="stop-color:#FFC9D7"/>
			<stop  offset="0.3998" style="stop-color:#FFE1E8"/>
			<stop  offset="0.5736" style="stop-color:#FFF2F5"/>
			<stop  offset="0.7635" style="stop-color:#FFFCFD"/>
			<stop  offset="1" style="stop-color:#FFFFFF"/>
		</linearGradient>
		<path style="fill:url(#SVGID_00000138555568948765615120000012895594017505602492_);" d="M91.8,133.07l-1.76-4.1
			c-0.79-1.84-2.6-3.04-4.59-3.04l-6.3-0.01h0.13l-10.7-0.04c-3.59-0.01-6-4.01-4.57-7.59l2.86-7.15c0.8-1.99,2.61-3.28,4.61-3.27
			l17.94-0.01l6.32,0c2,0,3.81,1.19,4.59,3.02l1.76,4.09l20.95,48.78c1.42,3.3-1.01,6.97-4.6,6.97l-7.15,0c-2,0-3.8-1.19-4.59-3.02
			l-16.43-38.21"/>
	</g>
	<g>
		
			<linearGradient id="SVGID_00000036230114352760509890000003519456476837626289_" gradientUnits="userSpaceOnUse" x1="200.2807" y1="118.548" x2="224.3077" y2="160.164">
			<stop  offset="0" style="stop-color:#FF98B2"/>
			<stop  offset="0.2267" style="stop-color:#FFB6C9"/>
			<stop  offset="0.565" style="stop-color:#FFDEE6"/>
			<stop  offset="0.8347" style="stop-color:#FFF6F8"/>
			<stop  offset="1" style="stop-color:#FFFFFF"/>
		</linearGradient>
		<path style="fill:url(#SVGID_00000036230114352760509890000003519456476837626289_);" d="M204.49,170.83h-7.16
			c-3.59,0-6.01-3.68-4.6-6.98l22.74-52.93c0.79-1.84,2.6-3.03,4.6-3.03l7.18,0c3.59,0,6.01,3.68,4.59,6.98l-22.76,52.93
			C208.3,169.64,206.49,170.83,204.49,170.83z"/>
		
			<linearGradient id="SVGID_00000037680617063136073550000000594338079206459837_" gradientUnits="userSpaceOnUse" x1="186.9747" y1="108.0012" x2="203.1994" y2="136.1031">
			<stop  offset="0" style="stop-color:#FF98B2"/>
			<stop  offset="0.2267" style="stop-color:#FFB6C9"/>
			<stop  offset="0.565" style="stop-color:#FFDEE6"/>
			<stop  offset="0.8347" style="stop-color:#FFF6F8"/>
			<stop  offset="1" style="stop-color:#FFFFFF"/>
		</linearGradient>
		<path style="fill:url(#SVGID_00000037680617063136073550000000594338079206459837_);" d="M189.08,128.71l2.83,6.59
			c0.79,1.84,2.6,3.03,4.6,3.03l1.57,0l-1.66,0h1.57c2,0,3.81-1.19,4.6-3.03l2.83-6.57c0.52-1.2,0.53-2.65,0.16-3.75l0.07,0.16
			l-5.96-13.87c-0.79-1.84-2.6-3.03-4.6-3.03l-7.18,0c-3.59,0-6.01,3.68-4.59,6.98l7.11,16.53"/>
	</g>
	<g>
		
			<linearGradient id="SVGID_00000035507295260950017740000012182894007355955886_" gradientUnits="userSpaceOnUse" x1="95.874" y1="117.9885" x2="167.02" y2="159.0646">
			<stop  offset="0" style="stop-color:#FF98B2"/>
			<stop  offset="1" style="stop-color:#8374FF"/>
		</linearGradient>
		<path style="fill:url(#SVGID_00000035507295260950017740000012182894007355955886_);" d="M108.55,184.38
			c0-3.29,3.05-5.83,6.25-5.05c1.45,0.35,2.96,0.53,4.53,0.53c3.64,0,6.6-0.81,8.87-2.44c2.27-1.63,3.41-3.92,3.41-6.86
			c0-5.46-3.46-15.02-10.37-28.65c-8.28-16.4-12.42-28.8-12.42-37.21c0-9.09,2.48-15.67,7.44-19.76c4.96-4.08,11.35-6.13,19.18-6.13
			c4.04,0,8.76,0.89,14.15,2.66c1.91,0.63,3.19,2.44,3.19,4.45v5.25c0,3.26-3.07,5.61-6.23,4.84c-1.16-0.28-2.27-0.43-3.32-0.43
			c-2.82,0-5.25,0.77-7.3,2.3c-2.05,1.54-3.07,3.72-3.07,6.54c0,5.22,3.28,14.4,9.83,27.54c8.46,17.07,12.69,30,12.69,38.78
			c0,8.97-2.71,15.55-8.12,19.76c-5.41,4.21-12.62,6.31-21.63,6.31c-4.54,0-9.05-0.66-13.53-1.96c-2.11-0.62-3.53-2.59-3.53-4.78
			V184.38z"/>
	</g>
	<g>
		
			<linearGradient id="SVGID_00000085227331860375384200000001647334711374349980_" gradientUnits="userSpaceOnUse" x1="129.597" y1="119.5497" x2="200.743" y2="160.6258">
			<stop  offset="0" style="stop-color:#FF98B2"/>
			<stop  offset="1" style="stop-color:#8374FF"/>
		</linearGradient>
		<path style="fill:url(#SVGID_00000085227331860375384200000001647334711374349980_);" d="M142.27,185.94
			c0-3.29,3.05-5.83,6.25-5.05c1.45,0.35,2.96,0.53,4.53,0.53c3.64,0,6.6-0.81,8.87-2.44c2.27-1.63,3.41-3.92,3.41-6.86
			c0-5.46-3.46-15.02-10.37-28.65c-8.28-16.4-12.42-28.8-12.42-37.21c0-9.09,2.48-15.67,7.44-19.76c4.96-4.08,11.35-6.13,19.18-6.13
			c4.04,0,8.76,0.89,14.15,2.66c1.91,0.63,3.19,2.44,3.19,4.45v5.25c0,3.26-3.07,5.61-6.23,4.84c-1.16-0.28-2.27-0.43-3.32-0.43
			c-2.82,0-5.25,0.77-7.3,2.3c-2.05,1.54-3.07,3.72-3.07,6.54c0,5.22,3.28,14.4,9.83,27.54c8.46,17.07,12.69,30,12.69,38.78
			c0,8.97-2.71,15.55-8.12,19.76c-5.41,4.21-12.62,6.31-21.63,6.31c-4.54,0-9.05-0.66-13.53-1.96c-2.11-0.62-3.53-2.59-3.53-4.78
			V185.94z"/>
	</g>
	
		<linearGradient id="SVGID_00000126310223252559702160000001618597349795117473_" gradientUnits="userSpaceOnUse" x1="67.9442" y1="86.8867" x2="76.6503" y2="101.9661">
		<stop  offset="0" style="stop-color:#FF98B2"/>
		<stop  offset="1" style="stop-color:#FFFFFF"/>
	</linearGradient>
	
		<circle style="fill:url(#SVGID_00000126310223252559702160000001618597349795117473_);stroke:#F2F2F2;stroke-width:0.1;stroke-miterlimit:10;" cx="72.3" cy="94.43" r="8.7"/>
</g>
</svg>
