<svg width="249" height="249" viewBox="0 0 249 249" fill="none" xmlns="http://www.w3.org/2000/svg">
<path d="M175.092 137.872C170.655 159.903 163.673 181.735 159.813 184.992C153.837 190.042 121.965 195.684 111.831 195.54C108.504 195.49 107.05 172.891 109.869 170.72C112.687 168.548 146.721 164.878 148.663 163.867C149.689 163.334 158.972 146.756 166.008 135.71C172.547 125.441 176.441 131.183 175.092 137.872Z" fill="#F7A9A0"/>
<path d="M123.29 195.649L121.074 167.094C121.074 167.094 145.267 163.23 148.2 162.513C149.44 162.209 161.028 141.741 166.536 133.006C170.157 127.259 176.934 125.755 175.789 138.828C175.122 146.482 166.656 182.099 160.351 186.69C155.376 190.336 123.29 195.649 123.29 195.649Z" fill="#EBEBEB"/>
<path d="M128.484 193.349C128.648 191.287 127.901 182.766 127.692 180.645C127.483 178.523 126.358 170.052 126.133 167.876C126.133 167.757 125.949 167.737 125.959 167.876C126.143 170.037 126.607 178.613 126.796 180.734C126.985 182.856 127.832 191.347 128.374 193.374C128.376 193.381 128.379 193.388 128.383 193.394C128.388 193.4 128.393 193.405 128.399 193.409C128.406 193.413 128.412 193.415 128.42 193.417C128.427 193.418 128.434 193.418 128.442 193.416C128.449 193.414 128.456 193.411 128.462 193.407C128.468 193.403 128.473 193.397 128.477 193.391C128.481 193.385 128.483 193.378 128.485 193.371C128.486 193.363 128.486 193.356 128.484 193.349Z" fill="#263238"/>
<path opacity="0.1" d="M138.892 192.816C147.358 191.108 157.562 188.732 160.361 186.685C166.656 182.104 175.122 146.477 175.799 138.833C176.536 130.436 174.001 128.046 171.143 128.952L138.892 192.816Z" fill="#020100"/>
<path d="M155.58 227.586H197.113C197.457 226.246 197.786 224.932 198.109 223.637C198.488 222.143 198.861 220.694 199.22 219.279C199.3 218.961 199.384 218.647 199.459 218.338C199.731 217.252 200 216.195 200.266 215.166C200.425 214.543 200.584 213.926 200.734 213.313C200.883 212.701 201.053 212.083 201.202 211.491C201.247 211.331 201.282 211.172 201.326 211.023C201.371 210.873 201.406 210.679 201.451 210.525L201.61 209.907C201.665 209.693 201.72 209.484 201.77 209.275C201.879 208.871 201.979 208.478 202.073 208.094C202.218 207.527 202.362 206.969 202.497 206.426C202.557 206.187 202.621 205.953 202.676 205.719C202.776 205.34 202.87 204.972 202.96 204.608C203.025 204.369 203.084 204.11 203.139 203.896C203.388 202.945 203.612 202.054 203.826 201.217C203.881 200.993 203.936 200.779 203.991 200.569C204.08 200.206 204.17 199.857 204.255 199.519C204.314 199.31 204.364 199.105 204.414 198.906C204.598 198.189 204.768 197.537 204.912 196.964C204.957 196.81 204.992 196.66 205.032 196.521C205.126 196.142 205.216 195.804 205.286 195.525C205.32 195.405 205.345 195.286 205.375 195.181C205.405 195.077 205.435 194.952 205.46 194.852C205.485 194.753 205.5 194.703 205.515 194.638C205.53 194.574 205.564 194.439 205.589 194.354C205.614 194.27 205.589 194.265 205.619 194.23C205.684 193.981 205.714 193.856 205.714 193.856H165.291C165.291 193.856 163.962 198.443 161.805 205.843L160.431 210.654C159.016 215.589 157.368 221.346 155.58 227.586Z" fill="#37474F"/>
<path d="M190.316 227.586H191.352C192.885 221.222 194.389 214.848 195.834 208.463C196.182 206.909 196.521 205.356 196.864 203.802C196.894 203.652 196.929 203.513 196.959 203.364C196.961 203.356 196.961 203.348 196.96 203.34C196.959 203.332 196.956 203.324 196.952 203.317C196.944 203.303 196.93 203.293 196.914 203.289C196.898 203.285 196.882 203.287 196.868 203.296C196.854 203.304 196.843 203.318 196.839 203.334C196.839 203.379 196.815 203.428 196.795 203.473C196.327 205.133 195.862 206.805 195.4 208.488C193.637 214.836 191.942 221.202 190.316 227.586Z" fill="#263238"/>
<path d="M166.601 193.812L168.389 202.741L169.853 210.066L172.343 222.551L172.602 223.831L173.03 225.962L173.349 227.581H197.123C197.455 226.253 197.787 224.936 198.119 223.632C198.498 222.138 198.871 220.689 199.23 219.274C199.31 218.956 199.394 218.642 199.469 218.333C199.741 217.247 200.01 216.19 200.276 215.161C200.435 214.538 200.594 213.921 200.744 213.308C200.893 212.696 201.063 212.078 201.212 211.486C201.257 211.326 201.292 211.167 201.336 211.017C201.381 210.868 201.416 210.674 201.461 210.519L201.62 209.902C201.675 209.688 201.73 209.479 201.78 209.269C201.889 208.866 201.989 208.473 202.083 208.089C202.228 207.521 202.372 206.964 202.507 206.421C202.571 206.177 202.631 205.948 202.686 205.714C202.786 205.335 202.88 204.967 202.97 204.603C203.035 204.364 203.094 204.105 203.149 203.891C203.398 202.94 203.622 202.048 203.836 201.212C203.891 200.988 203.946 200.774 204.001 200.564C204.09 200.201 204.18 199.852 204.265 199.514C204.324 199.304 204.374 199.1 204.424 198.901C204.608 198.184 204.778 197.532 204.922 196.959C204.967 196.805 205.002 196.655 205.042 196.516C205.136 196.137 205.226 195.799 205.296 195.52C205.33 195.4 205.355 195.281 205.385 195.176C205.415 195.071 205.445 194.947 205.47 194.847C205.495 194.748 205.51 194.698 205.525 194.633C205.54 194.568 205.574 194.434 205.599 194.349C205.624 194.265 205.599 194.26 205.629 194.225C205.694 193.976 205.724 193.851 205.724 193.851L166.601 193.812Z" fill="#263238"/>
<path d="M166.596 193.797C166.596 194.016 166.765 196.426 167.154 200.106C167.268 201.182 167.398 202.357 167.552 203.622C167.786 205.614 168.08 207.815 168.444 210.141C169.066 214.2 169.878 218.607 170.934 222.955C171.307 224.513 171.72 226.052 172.154 227.566H224.339C223.722 219.598 222.805 212.716 221.849 207.108C221.128 202.605 220.116 198.154 218.821 193.782H174.33L166.596 193.797Z" fill="#37474F"/>
<path d="M166.71 198.587C166.765 200.46 166.845 202.322 166.964 204.18C167.094 206.197 167.278 208.204 167.542 210.216C167.542 210.29 167.542 210.365 167.567 210.435C167.816 212.324 168.098 214.203 168.414 216.072C168.712 217.82 168.937 219.703 169.708 221.321C170 221.947 170.415 222.507 170.929 222.969C171.399 223.399 171.974 223.696 172.597 223.831C172.7 223.857 172.805 223.876 172.911 223.886H173C172.98 223.895 172.963 223.911 172.952 223.931C172.941 223.95 172.937 223.973 172.94 223.995C172.94 224.623 172.94 225.26 173.015 225.878C173.015 225.908 173.015 225.933 173.015 225.957C173.08 226.5 173.179 227.038 173.279 227.576H174.17C174.171 227.564 174.171 227.553 174.17 227.541C174.016 226.953 173.882 226.356 173.732 225.763C173.583 225.171 173.379 224.563 173.234 223.946C173.227 223.924 173.213 223.905 173.194 223.891C173.763 223.917 174.325 223.769 174.807 223.466C175.288 223.163 175.666 222.721 175.889 222.198C176.113 221.398 176.127 220.554 175.928 219.747C175.764 218.677 175.61 217.611 175.43 216.54C175.127 214.578 174.728 212.636 174.385 210.684C174.33 210.39 174.28 210.091 174.225 209.792C173.523 205.808 172.791 201.849 171.915 197.91C171.885 197.746 171.845 197.586 171.81 197.412C171.775 197.238 171.611 197.332 171.621 197.437C171.646 197.701 171.671 197.97 171.705 198.234C171.855 199.744 172.036 201.25 172.248 202.751C172.497 204.514 172.672 206.286 172.921 208.049C173.005 208.647 173.09 209.25 173.179 209.847C173.583 212.75 174.006 215.649 174.499 218.537C174.728 219.882 175.565 222.287 173.638 222.701C173.193 222.797 172.73 222.739 172.323 222.536C171.47 222.024 170.833 221.218 170.53 220.27C170.056 218.691 169.713 217.075 169.504 215.44C169.192 213.667 168.912 211.896 168.663 210.126C168.344 207.91 168.02 205.699 167.667 203.488C167.491 202.362 167.313 201.237 167.134 200.111C167.054 199.588 166.969 199.07 166.885 198.548C166.88 198.448 166.71 198.478 166.71 198.587Z" fill="#263238"/>
<path d="M212.885 212.462C210.713 212.44 208.551 212.149 206.451 211.595C205.48 211.346 204.519 211.037 203.567 210.724C202.626 210.463 201.745 210.021 200.973 209.424C199.509 208.159 198.827 206.172 198.194 204.409C197.496 202.419 196.932 200.384 196.506 198.318C196.506 198.214 196.332 198.249 196.332 198.318C196.276 200.663 196.572 203.003 197.208 205.261C197.731 207.168 198.438 209.294 199.977 210.634C201.6 212.038 203.802 212.536 205.878 212.79C208.211 213.06 210.57 213.028 212.895 212.696C212.922 212.689 212.945 212.673 212.962 212.651C212.978 212.629 212.987 212.602 212.986 212.575C212.985 212.547 212.974 212.521 212.956 212.5C212.937 212.48 212.912 212.466 212.885 212.462Z" fill="#263238"/>
<path d="M216.5 198.378C216.62 201.303 216.743 204.226 216.869 207.148C217.171 213.957 217.503 220.763 217.865 227.566H218.861C218.413 220.737 217.94 213.916 217.442 207.103C217.228 204.185 217.008 201.277 216.779 198.358C216.777 198.321 216.759 198.287 216.731 198.263C216.703 198.238 216.667 198.226 216.63 198.229C216.593 198.232 216.559 198.249 216.534 198.277C216.51 198.305 216.498 198.341 216.5 198.378Z" fill="#263238"/>
<path d="M157.612 215.41L224.344 210.206C224.344 210.206 213.009 157.323 186.172 129.395C179.982 122.956 172.622 127.618 169.081 131.582C160.072 141.646 157.403 215.186 157.612 215.41Z" fill="#8374FF"/>
<path d="M169.967 129.819C169.285 132.115 164.519 170.954 163.797 177.826C163.075 184.698 161.352 227.586 161.352 227.586H151.975C151.975 227.586 161.437 147.851 166.227 135.69C167.378 132.782 169.967 129.819 169.967 129.819Z" fill="#EBEBEB"/>
<path d="M169.853 130.342C169.166 131.836 163.319 147.563 162.014 150.62L161.895 150.899L162.044 151.118C163.04 152.622 164.053 154.116 165.082 155.6L165.107 154.938L160.959 160.799L160.819 160.994L160.854 161.243C161.352 164.858 163.14 181.103 163.449 182.886C163.269 181.053 161.984 164.604 161.501 160.974L161.397 161.417L165.555 155.565L165.799 155.217L165.58 154.898C164.554 153.404 163.523 151.95 162.487 150.496L162.517 150.994C163.787 147.906 169.245 131.906 169.853 130.342Z" fill="#C7C7C7"/>
<path d="M229.483 227.676H184.365L182.871 126.208C182.871 126.208 184.753 126.079 189.429 129.316C194.409 132.772 200.694 139.843 207.547 154.669C223.358 188.906 229.483 227.676 229.483 227.676Z" fill="#EBEBEB"/>
<path d="M182.622 126.363C183.503 128.146 189.753 144.116 191.401 147.732L191.551 148.061L191.272 148.305C189.369 149.965 187.455 151.605 185.53 153.225L185.595 152.458L191.466 159.52L191.66 159.749L191.561 160.038C190.151 164.161 184.529 182.712 183.722 184.743C184.325 182.642 189.145 163.827 190.54 159.689L190.639 160.187L184.758 153.16L184.409 152.742L184.828 152.393C186.757 150.77 188.694 149.158 190.639 147.558L190.51 148.13C188.926 144.485 183.359 128.205 182.622 126.363Z" fill="#C7C7C7"/>
<path d="M193.224 211.874C193.543 217.691 194.374 224.235 195.714 225.32C198.204 227.382 204.364 226.66 206.291 226.476C208.219 226.291 215.126 225.694 216.436 221.994C217.018 220.365 216.51 212.248 216.242 209.379C216.137 208.219 215.38 202.512 215.246 201.874C215.211 201.725 214.802 201.78 214.797 201.874C214.752 202.542 215.021 204.912 215.026 205.36C204.045 207.746 197.069 207.143 193.443 206.76C193.353 205.689 193.284 204.857 193.169 203.772C196.695 204.113 200.245 204.144 203.777 203.866C207.626 203.533 213.373 202.457 215.231 202.054C215.315 202.054 215.231 201.61 215.081 201.625C213.637 201.77 208.662 202.691 203.627 203.119C200.007 203.362 196.375 203.39 192.751 203.204C192.572 203.329 193.065 209.085 193.224 211.874ZM196.322 224.598C194.972 223.293 194.474 219.255 194.27 216.834C193.981 213.493 193.772 210.823 193.488 207.487C202.208 208.737 211.535 206.954 215.041 205.923C215.041 206.068 215.724 213.104 215.853 215.355C216.012 218.229 216.142 220.833 215.171 222.407C214.339 223.766 211.789 225.275 205.669 225.798C201.242 226.192 197.447 225.709 196.322 224.598Z" fill="#C7C7C7"/>
<path d="M171.312 140.825C175.421 141.243 181.461 134.271 183.518 128.987C183.657 128.629 180.485 115.297 180.132 112.593C180.062 112.035 163.673 118.943 163.673 118.943C163.673 118.943 166.088 124.396 166.661 129.117C166.711 129.51 167.328 140.436 171.312 140.825Z" fill="#F7A9A0"/>
<path d="M163.663 118.938C163.663 118.938 166.078 124.416 166.651 129.117C166.651 129.211 166.705 129.894 166.815 130.885C174.783 129.082 179.265 123.454 181.516 119.535C180.854 116.522 180.246 113.689 180.107 112.593C180.047 112.05 163.663 118.938 163.663 118.938Z" fill="#263238"/>
<path d="M187.572 95.2274C188.852 101.442 184.021 118.599 179.35 122.09C172.582 127.144 162.313 126.721 158.215 118.778C154.231 111.079 160.939 88.8331 166.083 85.7455C173.653 81.2037 185.684 86.0443 187.572 95.2274Z" fill="#F7A9A0"/>
<path d="M170.286 103.445C170.815 103.474 171.346 103.474 171.875 103.445C172.433 103.529 173.003 103.428 173.498 103.156C173.642 103.039 173.742 102.877 173.781 102.695C173.82 102.514 173.796 102.325 173.712 102.16C173.344 101.477 172.597 101.293 171.865 101.258C171.127 101.205 170.396 101.427 169.813 101.881C169.671 101.988 169.566 102.137 169.511 102.306C169.456 102.475 169.455 102.657 169.506 102.827C169.558 102.997 169.66 103.148 169.799 103.258C169.939 103.368 170.109 103.433 170.286 103.445Z" fill="#263238"/>
<path d="M163.543 102.508C163.543 102.459 163.434 102.508 163.424 102.583C163.135 103.748 162.607 105.038 161.432 105.128C161.397 105.128 161.382 105.193 161.432 105.198C162.771 105.377 163.454 103.659 163.543 102.508Z" fill="#263238"/>
<path d="M162.846 101.005C161.023 100.342 159.823 104.032 161.511 104.65C163.2 105.267 164.375 101.562 162.846 101.005Z" fill="#263238"/>
<path d="M161.959 97.6828C162.469 97.8375 162.986 97.9655 163.508 98.0663C164.106 98.2057 164.564 98.38 165.162 98.151C165.324 98.07 165.454 97.9375 165.532 97.7743C165.611 97.6112 165.633 97.4266 165.595 97.2496C165.391 96.4976 164.703 96.149 163.996 95.9498C163.285 95.736 162.52 95.7946 161.85 96.1141C161.707 96.1952 161.59 96.3152 161.512 96.4601C161.434 96.605 161.399 96.769 161.41 96.933C161.422 97.0971 161.479 97.2546 161.577 97.3872C161.674 97.5199 161.807 97.6224 161.959 97.6828Z" fill="#263238"/>
<path d="M168.658 115.302C168.304 115.491 167.926 115.8 167.492 115.706C167.065 115.575 166.669 115.357 166.332 115.063C166.325 115.056 166.317 115.052 166.307 115.051C166.298 115.05 166.288 115.052 166.28 115.058C166.273 115.063 166.267 115.071 166.264 115.081C166.262 115.09 166.263 115.099 166.267 115.108C166.368 115.382 166.541 115.624 166.768 115.808C166.995 115.992 167.268 116.112 167.557 116.154C167.81 116.158 168.059 116.087 168.273 115.951C168.486 115.815 168.655 115.618 168.757 115.387C168.792 115.322 168.712 115.272 168.658 115.302Z" fill="#263238"/>
<path d="M168.419 111.492C167.996 111.866 167.499 112.147 166.962 112.318C166.424 112.49 165.857 112.548 165.296 112.488C164.804 112.45 164.321 112.337 163.862 112.155C163.771 112.129 163.682 112.094 163.598 112.05C163.515 112.016 163.433 111.978 163.354 111.936C163.296 111.906 163.249 111.859 163.22 111.801C163.191 111.742 163.182 111.676 163.195 111.612C163.202 111.57 163.217 111.529 163.239 111.492L163.269 111.388C163.498 110.491 163.967 109.162 163.967 109.162C163.593 109.232 161.726 109.51 161.88 109.052C163.2 105.267 164.664 101.054 166.77 97.5584C166.786 97.5378 166.808 97.523 166.833 97.5164C166.858 97.5099 166.884 97.512 166.908 97.5224C166.931 97.5327 166.951 97.5508 166.963 97.5736C166.975 97.5964 166.979 97.6226 166.974 97.648C165.854 101.338 164.091 104.809 162.906 108.499C163.573 108.393 164.252 108.379 164.923 108.46C165.042 108.529 163.972 111.014 163.927 111.448C163.921 111.462 163.921 111.478 163.927 111.492C165.366 112.105 166.626 111.99 168.359 111.373C168.444 111.318 168.513 111.423 168.419 111.492Z" fill="#263238"/>
<path d="M173.732 105.038C173.411 104.835 173.062 104.681 172.696 104.58C172.322 104.473 171.935 104.421 171.546 104.426C171.138 104.439 170.737 104.527 170.361 104.685C169.974 104.86 169.633 105.122 169.365 105.451L168.867 106.044L169.639 106.109C170.184 106.158 170.723 106.263 171.247 106.423C171.793 106.574 172.292 106.862 172.696 107.259C172.491 106.658 172.058 106.161 171.491 105.875C170.939 105.564 170.329 105.37 169.698 105.307L169.982 105.964C170.408 105.498 170.981 105.194 171.606 105.103C172.309 104.995 173.023 104.973 173.732 105.038Z" fill="#263238"/>
<path d="M170.998 107.618C170.463 107.372 169.961 107.059 169.504 106.687C169.4 106.587 169.006 106.189 169.051 106.074C169.166 105.803 169.317 105.549 169.499 105.317C169.249 105.506 169.039 105.743 168.882 106.015C168.888 106.184 168.931 106.35 169.008 106.5C169.086 106.651 169.196 106.783 169.33 106.886C169.813 107.271 170.388 107.524 170.998 107.618Z" fill="#263238"/>
<path d="M185.465 111.652C182.447 110.098 182.975 99.0375 182.975 99.0375L181.167 104.809C179.909 103.229 178.996 101.401 178.488 99.4459C178.045 97.3941 178.832 94.8045 179.399 93.5645C176.689 94.6353 173.837 95.3063 170.933 95.5565C169.35 95.6511 159.36 93.9878 159.479 93.3005C159.888 91.2488 164.459 84.0327 167.637 82.6981C171.282 81.1593 178.986 83.1164 185.092 86.9909C189.977 90.0884 189.653 93.191 189.464 95.0336C189.464 95.0336 191.685 99.2466 191.556 100.865C191.317 104.341 186.571 112.225 185.465 111.652Z" fill="#263238"/>
<path d="M169.624 111.473C168.337 110.852 167.349 109.747 166.875 108.399C166.4 107.052 166.479 105.571 167.094 104.281C167.53 103.372 168.213 102.604 169.064 102.063C169.916 101.523 170.902 101.232 171.91 101.224C172.919 101.216 173.909 101.492 174.769 102.019C175.629 102.546 176.323 103.304 176.773 104.207C177.224 105.109 177.412 106.12 177.316 107.123C177.22 108.127 176.845 109.084 176.232 109.885C175.62 110.687 174.795 111.3 173.851 111.655C172.907 112.011 171.883 112.094 170.894 111.896C170.454 111.809 170.027 111.667 169.624 111.473ZM167.746 104.58C167.346 105.413 167.201 106.346 167.331 107.261C167.46 108.176 167.858 109.032 168.475 109.72C169.091 110.409 169.897 110.9 170.792 111.13C171.687 111.36 172.63 111.319 173.502 111.013C174.374 110.707 175.136 110.15 175.691 109.411C176.246 108.672 176.569 107.785 176.62 106.862C176.671 105.939 176.446 105.022 175.976 104.227C175.505 103.432 174.809 102.794 173.976 102.394C173.626 102.225 173.257 102.102 172.876 102.026C171.858 101.821 170.802 101.961 169.873 102.424C168.944 102.887 168.196 103.645 167.746 104.58Z" fill="#FFCA6C"/>
<path d="M159.061 107.992C156.93 107.409 155.829 104.6 156.611 101.737C156.942 100.433 157.674 99.2662 158.703 98.4001C159.12 98.0016 159.633 97.7173 160.192 97.5747C160.751 97.4322 161.338 97.4362 161.895 97.5864C162.452 97.7365 162.961 98.0278 163.373 98.4321C163.784 98.8363 164.085 99.3399 164.245 99.8941C164.692 101.162 164.731 102.538 164.355 103.828C163.613 106.542 161.447 108.35 159.41 108.046L159.061 107.992ZM159.151 98.9629C158.242 99.7338 157.598 100.77 157.308 101.926C156.631 104.416 157.502 106.816 159.255 107.294C161.008 107.772 162.98 106.144 163.658 103.659C163.993 102.517 163.963 101.298 163.573 100.173C163.435 99.7335 163.194 99.3333 162.87 99.0058C162.546 98.6783 162.149 98.4331 161.711 98.2906C161.622 98.2676 161.532 98.2493 161.442 98.2358C161.03 98.1899 160.614 98.231 160.219 98.3562C159.824 98.4815 159.461 98.6881 159.151 98.9629Z" fill="#FFCA6C"/>
<path d="M167.074 104.929L167.687 104.55C167.124 103.644 165.61 102.18 163.922 103.111L164.27 103.743C165.779 102.907 167.024 104.849 167.074 104.929Z" fill="#FFCA6C"/>
<path d="M189.479 113.684L190.191 113.569C190.136 113.235 189.618 110.307 188.169 109.56C186.815 108.868 177.348 106.737 176.949 106.647L176.79 107.349C179.504 107.957 186.795 109.66 187.841 110.203C188.797 110.696 189.345 112.882 189.479 113.684Z" fill="#FFCA6C"/>
<path d="M182.139 109.953C182.139 109.953 186.68 104.729 189.111 106.408C191.541 108.086 187.701 115.944 184.574 116.746C184.18 116.877 183.764 116.927 183.35 116.893C182.937 116.859 182.534 116.741 182.167 116.548C181.8 116.354 181.476 116.089 181.215 115.767C180.953 115.445 180.759 115.073 180.645 114.674L182.139 109.953Z" fill="#F7A9A0"/>
<path d="M187.94 108.634C187.99 108.634 187.99 108.704 187.94 108.714C185.744 109.346 184.454 111.204 183.458 113.126C184.165 112.414 185.067 112.075 186.033 112.932C186.083 112.977 186.033 113.056 185.963 113.036C185.605 112.88 185.206 112.839 184.823 112.917C184.44 112.996 184.09 113.19 183.822 113.475C183.379 113.955 182.988 114.481 182.656 115.043C182.537 115.223 182.208 115.088 182.303 114.874V114.829C182.537 112.14 185.022 108.599 187.94 108.634Z" fill="#263238"/>
<path d="M166.566 129.614L171.994 138.942L182.567 124.4L186.63 127.772C186.63 127.772 177.497 149.026 177.288 148.16L171.939 140.635L166.666 147.433L165.729 132.727L166.566 129.614Z" fill="#EBEBEB"/>
<path d="M165.625 132.886C165.625 132.797 165.769 132.732 165.784 132.837C166.133 135.531 166.691 144.973 166.885 146.626V146.596C167.084 146.307 171.865 140.566 171.92 140.62C173.005 141.806 176.9 147.234 177.193 147.752C178.548 144.35 184.399 132.09 186.123 128.803C186.13 128.782 186.146 128.765 186.167 128.755C186.188 128.746 186.211 128.745 186.232 128.753C186.253 128.761 186.27 128.777 186.28 128.797C186.289 128.818 186.29 128.841 186.282 128.863C185.176 132.398 177.657 148.942 177.502 148.922C177.418 149.017 172.577 142.294 171.91 140.954C171.217 142.159 166.471 148.534 166.432 148.175C166.173 146.039 165.625 135.157 165.625 132.886Z" fill="#263238"/>
<path d="M196.825 141.666C202.123 159.345 206.197 188.403 202.442 192.9C193.03 204.155 174.27 214.055 165.924 216.849C161.053 218.478 151.188 193.204 155.441 191.541C162.149 188.916 180.45 178.872 182.691 177.472C183.886 176.725 184.828 156.98 186.62 144.146C188.568 130.202 194.22 133.046 196.825 141.666Z" fill="#F7A9A0"/>
<path d="M141.93 201.974C143.155 200.699 142.493 200.047 139.38 200.48C136.268 200.913 124.316 205.286 123.145 200.978C121.975 196.67 138.922 190.759 144.161 190.43C149.4 190.102 157.99 191.426 157.99 191.426C154.908 193.224 147.906 198.339 141.93 201.974Z" fill="#F7A9A0"/>
<path d="M129.862 195.692L139.17 191.159L116.168 143.934L106.86 148.468L129.862 195.692Z" fill="#C7C7C7"/>
<path d="M142.717 228.144L156.795 221.286L138.314 183.354L124.241 190.211L142.717 228.144Z" fill="#263238"/>
<g opacity="0.3">
<path opacity="0.3" d="M61.752 138.872C50.0992 132.903 40.8772 123.078 35.658 111.071C30.4387 99.0637 29.5452 85.618 33.1298 73.0258C36.7144 60.4336 44.5553 49.4743 55.3158 42.016C66.0763 34.5578 79.0903 31.0623 92.1396 32.1254C105.189 33.1884 117.466 38.7442 126.877 47.8458C136.288 56.9473 142.252 69.0312 143.751 82.0376C145.251 95.044 142.193 108.168 135.099 119.172C128.005 130.176 117.314 138.379 104.849 142.383C90.5851 146.966 75.0859 145.704 61.752 138.872Z" fill="white"/>
</g>
<g opacity="0.1">
<path opacity="0.1" d="M141.352 71.3189C145.366 83.7789 144.935 97.2453 140.131 109.423C135.328 121.6 126.451 131.735 115.012 138.1C103.573 144.465 90.2803 146.666 77.4002 144.328C64.5202 141.99 52.8495 135.258 44.3774 125.279C35.9053 115.299 31.1562 102.691 30.9394 89.6019C30.7227 76.5131 35.0517 63.7542 43.1887 53.4998C51.3258 43.2455 62.7671 36.1303 75.5627 33.3671C88.3583 30.6039 101.716 32.3636 113.36 38.3463C126.69 45.1956 136.757 57.0541 141.352 71.3189Z" fill="white"/>
</g>
<path d="M57.3746 147.363C25.0046 130.725 12.1562 90.8304 28.7943 58.4305C45.4325 26.0307 85.3273 13.2121 117.727 29.8503C150.127 46.4885 162.951 86.3833 146.307 118.783C129.664 151.183 89.7744 164.002 57.3746 147.363ZM60.8606 140.63C71.1516 145.912 82.7777 148.023 94.2686 146.697C105.759 145.371 116.599 140.667 125.417 133.181C134.234 125.694 140.634 115.761 143.807 104.638C146.979 93.5141 146.782 81.6995 143.24 70.688C139.697 59.6766 132.97 49.9627 123.907 42.7749C114.844 35.587 103.853 31.2479 92.3247 30.3064C80.7959 29.3648 69.2468 31.8631 59.1379 37.4852C49.0289 43.1073 40.8141 51.6008 35.5323 61.8916C28.4651 75.6918 27.1601 91.7318 31.9037 106.493C36.6473 121.254 47.0521 133.531 60.8357 140.63H60.8606Z" fill="#37474F"/>
<path d="M147.966 90.9499C148.345 81.2361 146.375 71.5743 142.223 62.7847C138.07 53.995 131.858 46.3371 124.114 40.4611C116.37 34.5851 107.322 30.6646 97.739 29.0323C88.1559 27.4001 78.3204 28.1043 69.0676 31.0853C59.6081 34.1276 51.0448 39.4555 44.1359 46.5973C37.227 53.739 32.1858 62.4742 29.4586 72.0293C26.7314 81.5844 26.4024 91.6645 28.5008 101.377C30.5991 111.09 35.0601 120.135 41.4886 127.712C47.9171 135.289 56.1148 141.164 65.3558 144.817C74.5968 148.469 84.5958 149.787 94.4676 148.653C104.339 147.519 113.779 143.968 121.951 138.315C130.123 132.662 136.775 125.081 141.317 116.243C145.369 108.405 147.639 99.7677 147.966 90.9499ZM137.821 114.426C131.852 126.078 122.027 135.299 110.02 140.518C98.0125 145.737 84.5671 146.63 71.9751 143.046C59.3832 139.461 48.4242 131.62 40.9661 120.86C33.508 110.099 30.0125 97.0856 31.0754 84.0365C32.1384 70.9875 37.6939 58.7109 46.7951 49.2995C55.8963 39.888 67.9797 33.9241 80.9858 32.4245C93.9919 30.9249 107.116 33.9823 118.12 41.0756C129.124 48.1688 137.328 58.8589 141.332 71.3237C145.916 85.5891 144.653 101.09 137.821 114.426ZM147.966 90.9499C148.345 81.2361 146.375 71.5743 142.223 62.7847C138.07 53.995 131.858 46.3371 124.114 40.4611C116.37 34.5851 107.322 30.6646 97.739 29.0323C88.1559 27.4001 78.3204 28.1043 69.0676 31.0853C59.6081 34.1276 51.0448 39.4555 44.1359 46.5973C37.227 53.739 32.1858 62.4742 29.4586 72.0293C26.7314 81.5844 26.4024 91.6645 28.5008 101.377C30.5991 111.09 35.0601 120.135 41.4886 127.712C47.9171 135.289 56.1148 141.164 65.3558 144.817C74.5968 148.469 84.5958 149.787 94.4676 148.653C104.339 147.519 113.779 143.968 121.951 138.315C130.123 132.662 136.775 125.081 141.317 116.243C145.369 108.405 147.639 99.7677 147.966 90.9499ZM137.821 114.426C131.852 126.078 122.027 135.299 110.02 140.518C98.0125 145.737 84.5671 146.63 71.9751 143.046C59.3832 139.461 48.4242 131.62 40.9661 120.86C33.508 110.099 30.0125 97.0856 31.0754 84.0365C32.1384 70.9875 37.6939 58.7109 46.7951 49.2995C55.8963 39.888 67.9797 33.9241 80.9858 32.4245C93.9919 30.9249 107.116 33.9823 118.12 41.0756C129.124 48.1688 137.328 58.8589 141.332 71.3237C145.916 85.5891 144.653 101.09 137.821 114.426ZM155.535 91.2437C156.002 78.3022 152.781 65.4947 146.246 54.3144C139.712 43.1341 130.133 34.0417 118.629 28.0973C85.2626 10.9661 44.1825 24.173 27.0464 57.5291C18.8047 73.5765 17.2754 92.2407 22.795 109.416C28.3145 126.591 40.4307 140.87 56.4782 149.111C72.5256 157.353 91.1898 158.882 108.365 153.363C125.54 147.843 139.819 135.727 148.06 119.679C152.608 110.864 155.16 101.156 155.535 91.2437ZM144.579 117.887C140.734 125.374 135.452 132.032 129.034 137.478C122.616 142.924 115.189 147.053 107.175 149.629C99.1614 152.205 90.719 153.177 82.3298 152.49C73.9405 151.803 65.7687 149.47 58.2809 145.625C50.7931 141.78 44.136 136.498 38.6897 130.08C33.2433 123.662 29.1144 116.234 26.5386 108.221C23.9629 100.207 22.9907 91.7649 23.6777 83.3757C24.3646 74.9864 26.6972 66.8146 30.5423 59.3268C46.6825 27.8881 85.402 15.4381 116.836 31.5932C131.951 39.3645 143.362 52.8195 148.561 69.001C153.759 85.1824 152.32 102.766 144.559 117.887H144.579ZM145.077 70.1235C140.442 55.8361 130.624 43.8032 117.556 36.3964C104.489 28.9896 89.1216 26.7462 74.4824 30.1084C59.8431 33.4706 46.9943 42.1945 38.4684 54.5606C29.9425 66.9267 26.358 82.038 28.4215 96.9159C30.4849 111.794 38.0465 125.359 49.616 134.938C61.1855 144.517 75.9235 149.415 90.9252 148.667C105.927 147.918 120.104 141.577 130.662 130.894C141.22 120.21 147.394 105.959 147.966 90.9499C148.235 83.8919 147.257 76.8419 145.077 70.1235ZM137.821 114.445C131.852 126.098 122.027 135.319 110.02 140.538C98.0125 145.757 84.5671 146.65 71.9751 143.065C59.3832 139.481 48.4242 131.64 40.9661 120.88C33.508 110.119 30.0125 97.1055 31.0754 84.0565C32.1384 71.0074 37.6939 58.7309 46.7951 49.3194C55.8963 39.9079 67.9797 33.9441 80.9858 32.4444C93.9919 30.9448 107.116 34.0022 118.12 41.0955C129.124 48.1888 137.328 58.8788 141.332 71.3436C145.91 85.6029 144.648 101.096 137.821 114.426V114.445Z" fill="#37474F"/>
<path d="M42.3698 100.511C40.6268 94.8043 40.3778 88.644 41.1149 82.5834C41.5043 79.5346 42.1949 76.5319 43.1766 73.6194C44.1981 70.6815 45.4954 67.8468 47.051 65.1534C50.2683 59.7552 54.5745 55.0861 59.6953 51.4434C64.7353 47.8642 70.3953 45.2504 76.3882 43.7344C71.1235 46.5786 66.1583 49.9455 61.5677 53.784C59.3592 55.686 57.3075 57.7627 55.4324 59.9941C53.5419 62.1775 51.8628 64.5353 50.4175 67.0358C47.4971 72.0205 45.3685 77.4285 44.1079 83.0664C42.8302 88.7905 42.2466 94.6477 42.3698 100.511Z" fill="white"/>
<path d="M132.289 91.4976C132.398 97.4736 130.969 103.45 128.599 109.077C127.39 111.909 125.902 114.613 124.156 117.15C122.374 119.704 120.352 122.082 118.116 124.251C113.545 128.557 108.128 131.865 102.21 133.962C96.382 136.027 90.2224 136.994 84.0425 136.816C89.883 135.52 95.5788 133.641 101.044 131.208C103.689 129.981 106.231 128.542 108.644 126.905C111.058 125.325 113.318 123.519 115.392 121.512C119.567 117.517 123.095 112.897 125.85 107.817C128.64 102.654 130.802 97.1751 132.289 91.4976Z" fill="white"/>
<path d="M168.772 215.335C159.943 220.126 149.246 226.63 137.896 226.237C136.636 226.226 135.417 225.791 134.435 225.002C129.356 224.917 127.871 222.512 127.871 222.512C123.185 220.963 122.01 218.274 122.01 218.274C122.01 218.274 116.034 218.109 115.536 214.484C114.968 210.43 123.454 211.456 128.484 209.165C139.968 203.921 154.828 193.259 157.986 191.417L168.772 215.335Z" fill="#F7A9A0"/>
<path d="M144.37 212.148C140.959 213.642 137.647 215.166 134.057 216.172C130.117 217.273 126.138 217.666 122.105 218.164C122.078 218.164 122.053 218.175 122.034 218.193C122.015 218.212 122.005 218.237 122.005 218.264C122.005 218.29 122.015 218.315 122.034 218.334C122.053 218.353 122.078 218.363 122.105 218.363C129.575 218.597 138.066 216.142 144.435 212.283C144.594 212.193 144.544 212.054 144.37 212.148Z" fill="#263238"/>
<path d="M148.543 218.622C145.147 219.872 139.161 222.034 127.886 222.392C127.851 222.392 127.841 222.452 127.886 222.457C135.237 223.199 141.97 221.879 148.608 218.782C148.807 218.667 148.767 218.518 148.543 218.622Z" fill="#263238"/>
<path d="M150.72 222.108C144.863 224.021 140.924 224.479 134.48 224.962C134.445 224.962 134.44 225.031 134.48 225.031C141.86 225.251 144.564 224.494 150.814 222.302C151.028 222.238 150.949 222.048 150.72 222.108Z" fill="#263238"/>
<path d="M171.352 219.24L157.761 188.633L181.516 176.835C182.402 166.218 184.18 144.988 185.898 137.737C187.89 129.231 193.951 130.073 197.054 138.419C204.155 157.513 208.089 190.266 206.277 195.027C203.682 201.84 171.352 219.24 171.352 219.24Z" fill="#EBEBEB"/>
<path d="M174.659 213.239C174.161 211.202 170.799 203.214 169.937 201.237C169.076 199.26 165.346 191.431 164.459 189.399C164.41 189.29 164.24 189.325 164.285 189.439C165.137 191.466 168.269 199.593 169.101 201.58C169.933 203.568 173.409 211.491 174.579 213.283C174.587 213.288 174.596 213.29 174.605 213.29C174.614 213.289 174.623 213.287 174.631 213.283C174.639 213.278 174.645 213.272 174.65 213.264C174.655 213.256 174.658 213.248 174.659 213.239Z" fill="#263238"/>
<path d="M184.13 211.944C189.565 208.705 194.818 205.173 199.867 201.362C201.112 200.391 202.357 199.37 203.473 198.304C204.041 197.767 204.575 197.195 205.071 196.591C205.582 196.021 205.95 195.338 206.147 194.599C206.436 193.066 206.543 191.505 206.466 189.947C206.426 188.374 206.333 186.802 206.187 185.231C205.903 182.089 205.47 178.957 205.007 175.834C204.544 172.712 204.041 169.584 203.513 166.472C202.427 160.237 201.257 154.022 200.052 147.802C201.62 153.942 202.97 160.132 204.155 166.352C204.733 169.47 205.276 172.592 205.759 175.725C206.242 178.857 206.61 182.009 206.869 185.187C206.994 186.77 207.098 188.359 207.093 189.952C207.133 191.559 206.976 193.165 206.625 194.733C206.399 195.531 205.992 196.265 205.435 196.88C204.921 197.493 204.367 198.072 203.777 198.613C202.607 199.688 201.383 200.703 200.111 201.655C197.576 203.563 194.942 205.326 192.273 207.034C189.604 208.742 186.879 210.375 184.13 211.944Z" fill="#263238"/>
<path d="M201.157 152.692C201.117 152.139 201.117 151.591 201.102 151.039V150.212C201.101 149.937 201.084 149.663 201.052 149.39C201.185 149.929 201.249 150.483 201.242 151.039C201.246 151.591 201.218 152.143 201.157 152.692Z" fill="#263238"/>
<path d="M184.061 151.557C183.817 153.708 183.712 155.869 183.563 158.031L183.065 164.505L182.507 170.979L182.213 174.216C182.158 174.753 182.099 175.291 182.029 175.834C181.994 176.103 181.959 176.372 181.914 176.656C181.914 176.721 181.884 176.8 181.865 176.885V176.95C181.853 176.991 181.834 177.029 181.81 177.064L181.765 177.124C181.726 177.164 181.685 177.2 181.64 177.234C181.522 177.323 181.399 177.406 181.272 177.483C179.36 178.583 177.417 179.504 175.47 180.471C173.523 181.437 171.571 182.353 169.609 183.259L163.712 185.978L157.781 188.618V188.573L158.1 189.415L157.717 188.598V188.568H157.746L163.553 185.66L169.365 182.766L175.176 179.873C177.099 178.877 179.061 177.946 180.889 176.885C180.998 176.815 181.113 176.74 181.187 176.681L181.217 176.656C181.2 176.678 181.188 176.703 181.182 176.731V176.691C181.182 176.646 181.182 176.596 181.212 176.526C181.252 176.277 181.287 176.028 181.317 175.74L181.491 174.131L181.825 170.909L182.462 164.435C182.945 160.147 183.314 155.829 184.061 151.557Z" fill="#263238"/>
<path d="M183.11 152.846C183.189 153.454 183.234 154.066 183.294 154.679L183.378 155.595C183.401 155.9 183.446 156.203 183.513 156.501C183.322 155.914 183.206 155.305 183.169 154.689C183.117 154.076 183.097 153.461 183.11 152.846Z" fill="#263238"/>
<path d="M127.304 190.759C128.101 187.408 123.693 188.384 123.693 188.384C123.693 188.384 129.694 185.445 129.171 181.671C128.673 178.035 123.379 179.405 123.001 179.499C123.32 179.34 128.763 176.511 127.856 172.756C126.91 168.872 121.841 171.158 121.517 171.307C121.766 171.063 125.038 167.791 123.703 165.107C121.402 160.496 111.253 169.061 107.105 168.767L102.817 162.293C102.872 163.787 103.091 165.281 101.821 168.075C100.621 170.7 99.7991 172.438 99.8738 174.245C99.8808 175.056 100.148 175.843 100.637 176.49C101.126 177.136 101.81 177.608 102.588 177.836C102.588 177.836 99.6248 179.982 100.247 182.946C100.571 184.469 103.295 185.306 103.295 185.306C103.295 185.306 100.999 187.124 101.716 189.728C102.284 191.805 104.929 192.323 104.929 192.323C104.929 192.323 103.529 195.092 104.799 197.029C107.349 200.938 125.591 197.935 127.304 190.759Z" fill="#F7A9A0"/>
<path d="M105.905 167.428L102.917 162.448C102.767 162.289 102.608 162.124 102.454 161.98C97.0403 156.84 87.5634 158.12 90.2227 162.767C92.2396 166.302 99.1469 166.666 100.681 170.59L105.905 167.428Z" fill="#F7A9A0"/>
<path d="M105.332 192.467C105.272 192.467 105.267 192.562 105.332 192.567C111.572 193.04 118.574 191.65 123.942 188.358C124.117 188.249 124.017 187.915 123.803 188C117.618 190.336 111.945 191.919 105.332 192.467Z" fill="#263238"/>
<path d="M103.21 185.356C103.141 185.356 103.146 185.48 103.21 185.485C109.645 185.943 117.488 184.161 123.225 179.639C123.419 179.479 123.439 179.141 123.2 179.305C119.171 182.024 109.172 184.893 103.21 185.356Z" fill="#263238"/>
<path d="M121.816 170.854C116.149 174.983 109.724 176.875 102.852 177.871C102.762 177.871 102.787 178.01 102.852 178.02C106.338 178.449 110.666 177.353 113.952 176.223C117.022 175.227 119.778 173.445 121.945 171.053C122.045 170.959 121.935 170.764 121.816 170.854Z" fill="#263238"/>
</svg>
