<svg width="318" height="318" viewBox="0 0 318 318" fill="none" xmlns="http://www.w3.org/2000/svg">
<path d="M158.383 309.859C238.623 309.859 303.671 275.988 303.671 234.207C303.671 192.425 238.623 158.555 158.383 158.555C78.1428 158.555 13.0952 192.425 13.0952 234.207C13.0952 275.988 78.1428 309.859 158.383 309.859Z" fill="#F5F5F5"/>
<path d="M251.461 244.091C272.863 244.091 290.213 234.073 290.213 221.716C290.213 209.359 272.863 199.342 251.461 199.342C230.06 199.342 212.71 209.359 212.71 221.716C212.71 234.073 230.06 244.091 251.461 244.091Z" fill="#E6E6E6"/>
<path d="M95.3998 208.437C110.225 216.998 110.829 231.129 95.9976 239.69C81.1661 248.251 56.5338 247.996 41.7023 239.436C26.8708 230.875 26.8772 216.998 41.7023 208.437C56.5275 199.876 80.5619 199.876 95.3998 208.437Z" fill="#E6E6E6"/>
<path d="M216.329 254.566L167.662 226.467C166.809 226.034 165.865 225.809 164.908 225.809C163.951 225.809 163.008 226.034 162.154 226.467L113.488 254.566C111.967 255.443 111.967 256.868 113.488 257.746L135.652 270.542L114.95 282.492C110.746 284.916 103.903 284.916 99.6863 282.492L67.1231 263.692C65.3296 262.656 64.3374 261.352 64.3374 260.029C64.3374 258.706 65.3296 257.396 67.1231 256.359L95.9784 239.696C96.1304 239.617 96.2648 239.507 96.3734 239.374C96.482 239.241 96.5627 239.088 96.6105 238.923C96.6583 238.759 96.6722 238.586 96.6515 238.416C96.6309 238.245 96.5759 238.081 96.4901 237.932C96.4042 237.784 96.2892 237.654 96.152 237.551C96.0147 237.448 95.8581 237.374 95.6914 237.333C95.5248 237.293 95.3517 237.286 95.1824 237.314C95.0131 237.342 94.8512 237.403 94.7064 237.495L65.8638 254.146C63.2499 255.66 61.8062 257.746 61.8062 260.023C61.8062 262.299 63.2499 264.379 65.8638 265.893L98.427 284.693C101.181 286.112 104.233 286.853 107.331 286.853C110.429 286.853 113.482 286.112 116.235 284.693L138.209 272.011L162.18 285.844C163.033 286.277 163.977 286.503 164.934 286.503C165.891 286.503 166.834 286.277 167.687 285.844L216.354 257.746C217.849 256.868 217.849 255.443 216.329 254.566Z" fill="#E6E6E6"/>
<path d="M271.941 211.209C271.941 211.209 273.709 185.018 273.213 175.364C272.799 167.732 271.763 164.552 271.547 162.828C271.547 162.828 269.67 145.02 269.518 129.826C269.441 122.525 268.767 117.335 264.767 108.66L239.053 114.81C238.532 118.664 236.764 144.295 236.344 167.083C235.981 187.034 236.547 204.499 236.547 204.499V205.548C236.547 206.719 236.293 207.533 235.543 209.403C234.604 211.812 233.258 214.041 231.561 215.992C231.033 216.564 227.364 219.769 226.88 220.444C225.303 222.282 228.572 223.318 230.995 222.988C233.539 222.644 237.521 221.671 238.627 220.119C239.378 219.076 239.944 215.445 240.713 214.395C243.314 210.846 244.383 209.307 244.402 208.188C244.44 206.14 243.734 205.332 243.48 204.175C243.69 201.758 248.911 181.883 249 174.842C249.045 171.491 248.816 166.873 248.816 166.873L252.861 143.647C254.425 149.447 257.173 163.846 258.101 169.373C259.227 176.127 262.172 193.464 263.914 203.806C264.582 207.793 264.894 209.81 265.186 211.66L265.256 212.449C265.314 213.454 266.045 224.202 266.439 226.441C267.266 231.141 271.445 230.55 272.113 226.746C272.685 223.515 271.973 213.492 271.954 212.265L271.941 211.209Z" fill="#FFA8A7"/>
<path d="M271.941 211.209C273.124 211.209 272.348 215.795 272.653 218.727C272.978 221.875 274.008 224.177 274.307 226.753C274.708 229.004 274.362 231.325 273.321 233.361C272.501 235.269 268.367 237.813 266.796 235.135C265.225 232.458 264.888 229.36 265.072 226.422C265.257 223.484 265.072 221.512 265.129 219.204C265.187 217.168 263.692 211.972 265.225 211.68L265.295 212.468C265.848 213.569 271.432 213.785 271.992 212.297L271.941 211.209Z" fill="#37474F"/>
<path d="M244.669 210.688C245.032 212.157 244.669 216.189 244.669 216.189C244.669 216.189 244.033 217.582 241.763 218.504L240.745 212.894L244.669 210.688Z" fill="#263238"/>
<path d="M241.75 218.504L236.751 216.863L235.543 212.424L241.165 215.267L241.75 218.504Z" fill="black"/>
<path d="M236.548 205.549V204.499C235.867 204.83 234.372 210.306 232.35 214.039C230.506 217.467 226.849 219.375 225.659 220.87C224.069 222.861 227.16 225.436 232.115 224.374C234.576 223.846 238.303 222.276 239.314 220.616C240.325 218.956 240.663 215.903 241.489 214.682C242.316 213.461 244.281 212.055 244.669 210.669C244.992 209.417 244.992 208.104 244.669 206.853C244.281 205.581 243.938 204.06 243.505 204.2V205.161C243.175 205.835 241.973 206.624 239.473 206.763C238.252 206.821 237.095 206.636 236.548 205.549Z" fill="#37474F"/>
<path d="M238.532 114.48C238.532 114.48 236.834 133.35 236.287 150.058C235.74 166.766 236.229 188.326 236.229 188.326C236.229 188.326 237.953 189.56 241.75 189.731C245.547 189.903 246.838 188.638 246.838 188.638C246.838 188.638 249.159 181.063 249.522 175.733C249.752 172.848 249.752 169.949 249.522 167.064L252.912 144.766C252.912 144.766 257.211 166.721 257.701 169.373C258.191 172.025 262.305 195.487 262.305 195.487C262.305 195.487 263.921 196.976 268.068 196.899C271.737 196.829 272.799 195.513 272.799 195.513C272.799 195.513 273.684 181.126 273.48 174.983C273.308 169.564 272.068 165.252 271.82 161.735C271.572 158.218 271.432 138.203 271.184 130.571C270.936 122.939 270.3 116.388 263.768 107.204L238.532 114.48Z" fill="#455A64"/>
<path d="M252.937 144.785L250.114 130.793C250.114 130.793 245.197 129.521 242.901 126.507C242.901 126.507 243.537 129.839 248.625 131.97L251.627 145.886L250.584 160.272L252.937 144.785Z" fill="#37474F"/>
<path d="M202.604 111C204.415 111.277 206.266 111.14 208.016 110.6C207.247 110.215 206.528 109.739 205.873 109.181C205.573 108.94 205.378 108.591 205.331 108.209C205.283 107.827 205.387 107.441 205.619 107.133C205.854 106.879 206.439 107.47 207.762 107.846C209.454 108.323 210.681 108.424 212.309 109.366C212.924 109.723 213.645 109.849 214.345 109.722C218.313 108.978 227.567 104.634 231.809 102.37C232.674 98.84 234.175 93.6502 236.026 87.1757C237.737 81.21 240.478 78.6024 244.854 78.6978L244.224 91.6532C244.224 91.6532 242.138 100.602 239.556 107.909C239.104 109.181 237.291 110.663 233.972 111.897C229.672 113.493 224.482 115.001 218.142 116.737C215.572 117.469 212.947 117.99 210.293 118.295C203.59 118.868 201.02 117.023 200.117 115.7C197.548 112.05 199.068 110.294 202.604 111Z" fill="#FFA8A7"/>
<path d="M256.13 78.6028L262.248 79.0734C261.721 81.56 261.871 84.1423 262.68 86.5517C263.49 88.961 264.931 91.1093 266.853 92.7728L264.124 103.763C264.213 105.124 266.465 109.703 268.646 114.626C264.544 120.121 244.421 121.997 237.858 117.17C238.869 111.993 239.626 108.062 239.829 106.097L239.498 98.9929C231.269 92.245 241.197 81.9608 244.854 78.6918L249.446 78.4883L256.13 78.6028Z" fill="#8374FF"/>
<path d="M281.894 133.356C281.45 133.009 281.099 132.559 280.87 132.044C280.642 131.53 280.543 130.967 280.584 130.405C280.692 129.381 280.928 128.096 281.354 127.6C281.78 127.104 284.451 123.472 285.634 125.584C286.906 127.886 286.645 128.821 286.645 128.821L281.894 133.356Z" fill="#F28F8F"/>
<path d="M273.652 181.896C270.781 181.801 267.985 180.954 265.543 179.441L233.787 161.099C228.884 158.269 224.883 151.355 224.883 145.689V119.047C224.88 118.155 224.643 117.28 224.195 116.509C223.747 115.738 223.105 115.098 222.332 114.654C221.559 114.209 220.683 113.976 219.791 113.976C218.899 113.977 218.024 114.212 217.251 114.658L206.134 121.094C205.989 121.186 205.827 121.248 205.658 121.276C205.489 121.304 205.316 121.297 205.149 121.256C204.982 121.216 204.826 121.142 204.689 121.039C204.551 120.936 204.436 120.806 204.35 120.658C204.265 120.509 204.21 120.345 204.189 120.174C204.168 120.004 204.182 119.831 204.23 119.667C204.278 119.502 204.358 119.348 204.467 119.216C204.576 119.083 204.71 118.973 204.862 118.894L216.011 112.451C217.17 111.782 218.485 111.429 219.824 111.429C221.162 111.428 222.477 111.779 223.637 112.448C224.797 113.116 225.761 114.077 226.431 115.236C227.102 116.394 227.457 117.708 227.459 119.047V145.689C227.459 150.459 230.957 156.501 235.091 158.898L266.847 177.228C270.911 179.575 274.682 179.982 277.455 178.385C280.228 176.789 281.761 173.297 281.761 168.623V134.609C281.761 128.847 285.443 122.207 290.143 119.492L297.896 115.04C298.041 114.948 298.203 114.886 298.372 114.858C298.541 114.83 298.715 114.837 298.881 114.878C299.048 114.919 299.204 114.993 299.342 115.096C299.479 115.198 299.594 115.328 299.68 115.477C299.766 115.625 299.821 115.79 299.841 115.96C299.862 116.13 299.848 116.303 299.8 116.468C299.752 116.632 299.672 116.786 299.563 116.919C299.455 117.051 299.32 117.161 299.168 117.24L291.415 121.692C287.561 123.918 284.305 129.827 284.305 134.603V168.616C284.305 174.251 282.321 178.5 278.727 180.58C277.183 181.463 275.431 181.918 273.652 181.896Z" fill="#37474F"/>
<path d="M218.784 122.932V125.011C218.784 128.338 216.45 132.389 213.563 134.049L194.305 145.173L174.722 133.865V116.909L193.713 108.119C196.734 106.726 201.517 106.943 204.404 108.603L213.55 113.888C216.431 115.554 218.784 119.605 218.784 122.932Z" fill="#37474F"/>
<path d="M193.713 108.119C196.734 106.726 201.517 106.943 204.404 108.603L213.55 113.888C216.431 115.548 216.317 118.028 213.296 119.427L194.286 128.204L174.697 116.902L193.713 108.119Z" fill="#455A64"/>
<path opacity="0.15" d="M196.136 124.134C196.895 124.629 197.526 125.296 197.979 126.08C198.432 126.865 198.694 127.745 198.744 128.649V142.597L194.292 145.141L174.709 133.833V116.909L179.67 114.619L196.136 124.134Z" fill="black"/>
<path d="M173.037 113.99C173.33 113.853 173.655 113.798 173.977 113.829C174.299 113.86 174.607 113.977 174.869 114.168L194.127 125.291C194.886 125.787 195.519 126.454 195.972 127.24C196.425 128.026 196.686 128.907 196.734 129.813V146.4C196.769 146.723 196.716 147.049 196.582 147.344C196.448 147.639 196.237 147.893 195.971 148.079C195.526 148.327 193.955 149.237 193.516 149.497C193.221 149.634 192.896 149.689 192.573 149.658C192.25 149.627 191.941 149.51 191.678 149.319L172.414 138.196C171.655 137.701 171.023 137.034 170.57 136.249C170.117 135.465 169.855 134.585 169.806 133.68V117.093C169.772 116.77 169.824 116.445 169.957 116.149C170.09 115.852 170.299 115.597 170.563 115.408L173.037 113.99Z" fill="#37474F"/>
<path d="M191.678 126.703L172.413 115.586C170.976 114.752 169.806 115.427 169.806 117.093V133.68C169.855 134.584 170.117 135.465 170.57 136.249C171.023 137.034 171.655 137.7 172.413 138.195L191.678 149.319C193.115 150.152 194.285 149.478 194.285 147.812V131.225C194.236 130.319 193.974 129.438 193.521 128.653C193.068 127.867 192.437 127.199 191.678 126.703Z" fill="#455A64"/>
<path d="M168.864 146.012V148.88C168.864 150.044 169.265 150.852 169.926 151.234L171.656 152.232C172.071 152.434 172.533 152.519 172.992 152.479C173.451 152.438 173.891 152.274 174.264 152.003L190.164 142.807V131.486L188.434 130.487L172.502 139.684C171.441 140.379 170.559 141.314 169.927 142.413C169.295 143.513 168.931 144.746 168.864 146.012ZM176.07 142.463C176.131 142.67 176.165 142.884 176.172 143.099C176.127 143.949 175.881 144.776 175.456 145.513C175.03 146.251 174.437 146.877 173.723 147.341C173.525 147.457 173.311 147.543 173.087 147.596C173.032 147.388 173.002 147.175 172.998 146.96C173.044 146.11 173.29 145.283 173.715 144.546C174.141 143.809 174.734 143.182 175.447 142.718C175.644 142.61 175.854 142.524 176.07 142.463Z" fill="#8374FF"/>
<path opacity="0.2" d="M171.567 152.168C171.601 152.197 171.637 152.223 171.675 152.245L171.612 152.207L169.939 151.233C169.271 150.865 168.877 150.057 168.877 148.887V146.018C168.919 144.744 169.289 143.502 169.952 142.412L171.682 143.411C171.025 144.502 170.658 145.744 170.613 147.017V149.885C170.567 150.628 170.806 151.36 171.281 151.933C171.367 152.023 171.463 152.102 171.567 152.168Z" fill="black"/>
<path opacity="0.5" d="M190.164 131.486L174.264 140.682C173.185 141.355 172.297 142.292 171.682 143.404L169.952 142.406C170.566 141.295 171.453 140.358 172.528 139.684L188.46 130.487L190.164 131.486Z" fill="white"/>
<path opacity="0.2" d="M176.172 143.099C176.171 142.87 176.141 142.641 176.083 142.419C177.132 142.133 177.902 142.788 177.902 144.098C177.856 144.947 177.611 145.773 177.187 146.51C176.763 147.247 176.171 147.874 175.46 148.34C174.328 148.976 173.361 148.652 173.094 147.596C173.318 147.547 173.533 147.461 173.73 147.341C174.441 146.875 175.032 146.248 175.457 145.512C175.881 144.775 176.126 143.948 176.172 143.099Z" fill="black"/>
<path d="M154.179 137.528V140.402C154.179 141.56 154.58 142.374 155.241 142.749L156.971 143.754C157.385 143.952 157.845 144.033 158.302 143.991C158.759 143.948 159.196 143.783 159.566 143.512L175.466 134.31V123.008L173.736 122.003L157.836 131.199C156.773 131.893 155.888 132.828 155.252 133.927C154.617 135.026 154.249 136.26 154.179 137.528ZM161.385 133.96C161.443 134.182 161.473 134.411 161.474 134.64C161.428 135.49 161.183 136.317 160.757 137.054C160.332 137.791 159.738 138.418 159.026 138.882C158.824 138.992 158.611 139.077 158.39 139.137C158.329 138.919 158.299 138.695 158.3 138.469C158.346 137.62 158.591 136.793 159.015 136.056C159.44 135.319 160.031 134.693 160.743 134.227C160.943 134.108 161.16 134.018 161.385 133.96Z" fill="#8374FF"/>
<path opacity="0.2" d="M157.048 143.799H157.016H156.971L155.241 142.788C154.574 142.413 154.179 141.605 154.179 140.435V137.567C154.186 136.954 154.282 136.345 154.465 135.76C154.657 135.135 154.919 134.533 155.248 133.967L156.978 134.959C156.814 135.242 156.667 135.535 156.539 135.837C156.144 136.691 155.928 137.618 155.903 138.559V141.427C155.849 142.166 156.076 142.897 156.539 143.475C156.689 143.611 156.861 143.721 157.048 143.799Z" fill="black"/>
<path opacity="0.5" d="M175.485 123.008L159.585 132.204C158.505 132.875 157.616 133.812 157.003 134.926L155.273 133.934C155.876 132.822 156.751 131.881 157.817 131.199L173.717 122.003L175.485 123.008Z" fill="white"/>
<path opacity="0.2" d="M161.468 134.634C161.469 134.407 161.441 134.18 161.385 133.96C162.428 133.667 163.204 134.329 163.204 135.639C163.158 136.488 162.914 137.315 162.489 138.052C162.065 138.789 161.473 139.415 160.762 139.881C159.623 140.517 158.663 140.193 158.396 139.131C158.621 139.083 158.836 138.997 159.032 138.876C159.743 138.41 160.334 137.784 160.757 137.047C161.18 136.309 161.424 135.483 161.468 134.634Z" fill="black"/>
<path d="M159 126.914C158.788 126.914 158.582 126.844 158.415 126.713C158.248 126.583 158.129 126.401 158.078 126.195L155.534 116.222C155.47 115.977 155.507 115.717 155.636 115.498C155.765 115.28 155.975 115.122 156.221 115.059C156.466 114.995 156.726 115.032 156.945 115.161C157.163 115.29 157.321 115.5 157.384 115.745L159.928 125.724C159.961 125.845 159.969 125.972 159.951 126.096C159.934 126.22 159.892 126.34 159.829 126.448C159.765 126.555 159.68 126.649 159.579 126.724C159.478 126.798 159.363 126.852 159.242 126.882C159.163 126.902 159.081 126.913 159 126.914Z" fill="#E0E0E0"/>
<path d="M151.839 131.073C151.624 131.074 151.416 131.002 151.247 130.87L141.777 123.384C141.673 123.309 141.585 123.213 141.518 123.102C141.452 122.992 141.408 122.869 141.39 122.742C141.373 122.614 141.381 122.484 141.415 122.36C141.449 122.235 141.507 122.119 141.587 122.018C141.667 121.917 141.767 121.833 141.88 121.772C141.993 121.71 142.118 121.672 142.246 121.66C142.375 121.648 142.504 121.662 142.627 121.702C142.749 121.741 142.863 121.805 142.96 121.889L152.43 129.369C152.628 129.526 152.756 129.756 152.786 130.007C152.815 130.258 152.745 130.511 152.589 130.711C152.5 130.825 152.386 130.917 152.256 130.98C152.126 131.042 151.983 131.074 151.839 131.073Z" fill="#E0E0E0"/>
<path d="M138.788 140.205C138.535 140.215 138.289 140.123 138.103 139.951C137.918 139.778 137.808 139.539 137.799 139.286C137.79 139.033 137.881 138.787 138.054 138.602C138.226 138.416 138.465 138.307 138.718 138.297L149.791 137.439C149.916 137.428 150.042 137.443 150.161 137.482C150.28 137.52 150.391 137.582 150.486 137.664C150.581 137.745 150.66 137.845 150.716 137.957C150.772 138.069 150.806 138.191 150.815 138.316C150.832 138.568 150.75 138.817 150.586 139.008C150.422 139.2 150.189 139.319 149.937 139.34L138.864 140.199L138.788 140.205Z" fill="#E0E0E0"/>
<path d="M290.55 122.976C290.335 120.627 289.986 118.291 289.507 115.98C288.06 110.559 286.132 105.279 283.745 100.201C282.683 98.1723 280.285 95.2149 278.587 92.7154C276.183 89.1856 274.491 87.2077 272.666 84.8099C268.647 79.5502 266.942 79.2449 262.248 79.0859C261.612 80.7586 260.162 87.6147 264.862 93.1543L274.937 103.775C275.509 104.698 281.665 115.223 282.689 119.109C282.867 119.8 282.78 120.533 282.448 121.164C281.643 122.945 281.052 124.815 280.686 126.735C280.387 128.083 279.586 129.152 279.859 129.362C280.197 129.588 280.601 129.693 281.006 129.66C281.411 129.628 281.794 129.46 282.092 129.184C282.811 128.412 283.397 127.526 283.828 126.563C284.017 126.551 284.207 126.578 284.385 126.643C284.563 126.708 284.725 126.809 284.862 126.94C284.999 127.071 285.107 127.229 285.18 127.404C285.253 127.579 285.288 127.767 285.284 127.956C285.342 128.738 284.985 129.826 284.712 131.181C284.661 131.448 284.597 131.753 284.477 132.491C284.372 132.989 284.313 133.496 284.299 134.005C285.571 134.24 286.9 133.464 289.037 131.461C290.964 129.591 291.091 127.136 290.55 122.976Z" fill="#FFA8A7"/>
<path d="M257.224 75.5119C257.262 74.2399 261.396 71.2634 263.488 68.0962C265.396 65.1578 268.138 57.0806 261.714 54.4985C261.714 54.4985 263.1 50.6252 260.582 48.342C258.063 46.0588 254.673 47.4707 254.139 48.4247C253.816 47.2354 253.118 46.182 252.149 45.4211C251.18 44.6602 249.991 44.2326 248.759 44.2016C247.555 44.111 246.36 44.4582 245.392 45.1793C244.424 45.9003 243.75 46.9467 243.493 48.1258C242.476 47.6858 241.339 47.6087 240.273 47.9075C239.206 48.2062 238.275 48.8627 237.635 49.7666C235.275 53.0166 238.405 55.9931 238.405 55.9931C237.999 56.267 237.675 56.6459 237.468 57.0895C237.26 57.5331 237.178 58.0246 237.228 58.5116C237.412 59.8854 238.729 60.2225 238.882 60.9094C238.911 61.0531 238.893 61.2025 238.83 61.335C238.767 61.4674 238.662 61.5757 238.532 61.6433C238.402 61.7109 238.253 61.7342 238.108 61.7097C237.964 61.6851 237.831 61.614 237.73 61.5072C237.765 61.6865 237.834 61.8573 237.935 62.0098C238.035 62.1622 238.165 62.2934 238.316 62.3956C238.467 62.4978 238.637 62.5692 238.816 62.6055C238.995 62.6419 239.179 62.6426 239.359 62.6075C240.84 62.5248 242.163 60.5087 242.163 60.5087L257.224 75.5119Z" fill="#263238"/>
<path d="M243.741 54.0918C241.833 54.9186 240.033 57.8251 240.058 65.9532C240.058 72.8411 242.195 74.5837 243.238 75.0989C244.281 75.614 246.387 75.3469 248.415 75.0353V78.9976C248.415 78.9976 244.746 83.5513 248.034 85.8155C256.505 84.3336 257.154 78.775 257.154 78.775L257.307 70.1381C257.307 70.1381 258.471 71.3592 260.487 69.5657C262.178 68.0838 262.789 65.5462 261.517 64.147C260.245 62.7478 258.617 62.6396 257.141 64.1978C257.141 64.1978 254.438 64.3759 250.374 61.8256C246.31 59.2752 244.86 56.6867 243.741 54.0918Z" fill="#FFA8A7"/>
<path d="M248.619 70.2652C248.627 70.3966 248.61 70.5284 248.567 70.6528C248.524 70.7773 248.457 70.892 248.369 70.9903C248.282 71.0886 248.175 71.1684 248.056 71.2252C247.938 71.2819 247.809 71.3145 247.677 71.321C247.473 71.3374 247.269 71.2924 247.091 71.1917C246.913 71.091 246.769 70.9394 246.678 70.7562C246.587 70.5731 246.553 70.3669 246.58 70.1642C246.608 69.9615 246.695 69.7716 246.831 69.6189C246.967 69.4662 247.146 69.3578 247.344 69.3077C247.542 69.2575 247.751 69.2678 247.943 69.3374C248.136 69.4069 248.303 69.5325 248.423 69.6978C248.544 69.8632 248.612 70.0608 248.619 70.2652Z" fill="#B16668"/>
<path d="M243.384 63.5992C243.383 63.7784 243.329 63.9532 243.229 64.102C243.129 64.2509 242.988 64.3672 242.823 64.4365C242.658 64.5058 242.476 64.5252 242.3 64.4921C242.123 64.459 241.961 64.375 241.832 64.2505C241.703 64.1259 241.614 63.9663 241.575 63.7914C241.536 63.6165 241.549 63.434 241.613 63.2665C241.676 63.099 241.788 62.9538 241.933 62.8491C242.078 62.7443 242.251 62.6844 242.43 62.677C242.554 62.6744 242.676 62.6963 242.791 62.7414C242.906 62.7864 243.011 62.8538 243.099 62.9395C243.188 63.0252 243.259 63.1276 243.308 63.2408C243.357 63.3541 243.383 63.4758 243.384 63.5992Z" fill="#263238"/>
<path d="M250.425 64.0194C250.434 64.1508 250.416 64.2826 250.373 64.4071C250.331 64.5315 250.263 64.6462 250.176 64.7445C250.088 64.8428 249.982 64.9226 249.863 64.9794C249.744 65.0362 249.615 65.0687 249.484 65.0752C249.218 65.0769 248.962 64.9738 248.771 64.788C248.581 64.6023 248.471 64.349 248.466 64.083C248.462 63.9544 248.483 63.8262 248.529 63.7058C248.574 63.5854 248.643 63.4751 248.731 63.3812C248.819 63.2873 248.924 63.2116 249.042 63.1585C249.159 63.1055 249.285 63.076 249.414 63.0718C249.543 63.0676 249.671 63.0888 249.791 63.1342C249.912 63.1796 250.022 63.2482 250.116 63.3362C250.21 63.4242 250.285 63.5298 250.338 63.647C250.392 63.7643 250.421 63.8908 250.425 64.0194Z" fill="#263238"/>
<path d="M242.748 59.9551L240.809 61.0935C240.878 61.2247 240.973 61.3402 241.089 61.4328C241.205 61.5254 241.339 61.5933 241.482 61.632C241.625 61.6708 241.775 61.6797 241.921 61.6582C242.068 61.6367 242.209 61.5852 242.335 61.5069C242.59 61.3509 242.775 61.1027 242.852 60.8137C242.929 60.5248 242.892 60.2173 242.748 59.9551Z" fill="#263238"/>
<path d="M257.18 63.0781V66.8941C256.935 66.9004 256.691 66.8564 256.464 66.7651C256.237 66.6737 256.031 66.5368 255.859 66.3628C255.687 66.1889 255.552 65.9815 255.463 65.7535C255.374 65.5254 255.333 65.2816 255.341 65.037C255.344 64.5386 255.534 64.0595 255.875 63.6961C256.216 63.3327 256.682 63.1119 257.18 63.0781Z" fill="#263238"/>
<path d="M245.89 62.6904L245.502 68.1855L242.602 67.5049L245.89 62.6904Z" fill="#F28F8F"/>
<path d="M248.441 75.0478C250.572 74.7998 254.973 73.5787 255.691 71.7852C255.407 72.6837 254.857 73.4752 254.114 74.0557C252.785 75.2005 248.435 76.3834 248.435 76.3834L248.441 75.0478Z" fill="#F28F8F"/>
<path d="M274.052 32.5501C274.864 32.8599 275.625 33.2886 276.31 33.8221C276.974 34.3074 277.545 34.9085 277.996 35.5965C278.424 36.2584 278.706 37.0044 278.822 37.7844C278.937 38.6169 278.834 39.4648 278.523 40.2457C278.301 40.8708 277.958 41.4458 277.512 41.9375C277.114 42.3566 276.658 42.7164 276.157 43.0059C275.67 43.2841 275.16 43.5182 274.631 43.7055L273.13 44.2461C272.689 44.4057 272.263 44.6058 271.858 44.844C271.477 45.0357 271.157 45.3311 270.936 45.6962C270.835 45.8667 270.69 46.0072 270.516 46.1033C270.433 46.149 270.341 46.1756 270.246 46.1811C270.152 46.1866 270.057 46.1709 269.969 46.1351L267.985 45.3909C267.891 45.3561 267.804 45.3026 267.731 45.2338C267.658 45.165 267.599 45.0822 267.559 44.9903C267.515 44.9023 267.492 44.8054 267.492 44.7072C267.492 44.609 267.515 44.5122 267.559 44.4242C267.814 43.8123 268.19 43.2584 268.665 42.7961C269.096 42.3909 269.577 42.0425 270.096 41.7594C270.598 41.4902 271.121 41.2647 271.661 41.0852C272.195 40.9071 272.691 40.7354 273.156 40.5573C273.575 40.4034 273.978 40.2074 274.358 39.9722C274.684 39.7651 274.934 39.4569 275.07 39.0945C275.195 38.7771 275.241 38.4338 275.203 38.0946C275.166 37.7554 275.046 37.4305 274.854 37.1484C274.375 36.4534 273.679 35.9368 272.876 35.6792C272.176 35.4007 271.407 35.346 270.674 35.5225C269.942 35.699 269.282 36.0982 268.786 36.665C268.659 36.7991 268.511 36.9108 268.347 36.9957C268.171 37.051 267.98 37.0374 267.813 36.9576L265.702 36.1626C265.626 36.1364 265.557 36.0954 265.498 36.0418C265.439 35.9883 265.391 35.9233 265.358 35.8509C265.322 35.7767 265.303 35.6951 265.303 35.6124C265.303 35.5297 265.322 35.4481 265.358 35.3739C265.638 34.7254 266.075 34.1571 266.63 33.7203C267.248 33.2064 267.952 32.8059 268.71 32.5374C269.542 32.2433 270.416 32.0844 271.298 32.0667C272.239 32.0489 273.174 32.2131 274.052 32.5501ZM269.524 47.7505C269.617 47.7834 269.702 47.8356 269.773 47.9035C269.844 47.9715 269.9 48.0537 269.937 48.1448C269.977 48.2351 269.997 48.3326 269.997 48.431C269.997 48.5295 269.977 48.6269 269.937 48.7172L269.072 51.0132C269.039 51.1059 268.987 51.1907 268.919 51.262C268.851 51.3332 268.769 51.3893 268.678 51.4266C268.588 51.4658 268.49 51.486 268.392 51.486C268.293 51.486 268.196 51.4658 268.106 51.4266L265.861 50.5807C265.768 50.5478 265.683 50.4956 265.612 50.4277C265.541 50.3597 265.485 50.2775 265.447 50.1864C265.408 50.0961 265.388 49.9986 265.388 49.9002C265.388 49.8017 265.408 49.7043 265.447 49.614L266.312 47.318C266.346 47.225 266.398 47.1398 266.466 47.0677C266.534 46.9955 266.616 46.9379 266.707 46.8983C266.797 46.8605 266.894 46.841 266.993 46.841C267.091 46.841 267.188 46.8605 267.279 46.8983L269.524 47.7505Z" fill="#8374FF"/>
<path d="M275.153 59.9622C275.219 60.0273 275.272 60.105 275.308 60.1907C275.344 60.2764 275.362 60.3685 275.362 60.4614C275.362 60.5544 275.344 60.6464 275.308 60.7322C275.272 60.8179 275.219 60.8956 275.153 60.9607L273.563 62.6397C273.499 62.7075 273.422 62.7616 273.337 62.7988C273.251 62.8359 273.16 62.8554 273.067 62.856C272.973 62.8594 272.88 62.8442 272.793 62.8115C272.706 62.7787 272.626 62.729 272.558 62.6652L270.936 61.107C270.868 61.0432 270.814 60.9664 270.777 60.8811C270.74 60.7959 270.72 60.7039 270.72 60.6109C270.715 60.5175 270.729 60.4242 270.762 60.3366C270.795 60.2491 270.845 60.1692 270.91 60.1021L272.507 58.4294C272.64 58.2985 272.819 58.2252 273.006 58.2252C273.193 58.2252 273.372 58.2985 273.505 58.4294L275.153 59.9622ZM284.693 48.4315C285.284 48.9918 285.792 49.6344 286.2 50.3395C286.593 51.0076 286.867 51.7395 287.008 52.5019C287.127 53.2327 287.09 53.9805 286.9 54.6961C286.697 55.3732 286.355 56.0005 285.896 56.5382C285.437 57.0758 284.871 57.512 284.235 57.8189C283.737 58.0385 283.21 58.1842 282.67 58.2513C282.144 58.3105 281.615 58.3254 281.086 58.2959L279.586 58.2132C279.138 58.189 278.689 58.2039 278.244 58.2577C277.845 58.3017 277.466 58.4559 277.15 58.7029C277 58.816 276.821 58.8844 276.634 58.9001C276.545 58.9101 276.455 58.8998 276.37 58.8701C276.285 58.8404 276.208 58.7919 276.145 58.7283L274.701 57.3546C274.562 57.2234 274.48 57.0431 274.472 56.8521C274.463 56.7582 274.477 56.6634 274.512 56.5759C274.548 56.4884 274.604 56.4108 274.676 56.3497C275.119 55.9091 275.647 55.5629 276.227 55.3321C276.75 55.1381 277.295 55.012 277.849 54.9569C278.385 54.9124 278.923 54.9124 279.458 54.9569C279.988 55.0035 280.484 55.0353 280.947 55.0523C281.372 55.0737 281.798 55.0502 282.219 54.9823C282.581 54.926 282.914 54.7516 283.166 54.4862C283.389 54.2554 283.553 53.974 283.644 53.6662C283.735 53.3583 283.75 53.0331 283.688 52.7181C283.53 51.9379 283.115 51.2329 282.511 50.7147C282.003 50.2179 281.354 49.8901 280.653 49.7763C279.952 49.6625 279.232 49.7681 278.593 50.0787C278.436 50.1478 278.268 50.1887 278.097 50.1996C278.01 50.1944 277.925 50.1713 277.848 50.132C277.77 50.0926 277.701 50.0377 277.646 49.9706L276.107 48.5015C275.996 48.4012 275.928 48.2624 275.916 48.1135C275.912 48.0348 275.924 47.9562 275.953 47.8828C275.981 47.8094 276.025 47.7428 276.081 47.6874C276.562 47.2299 277.147 46.896 277.786 46.7143C278.511 46.4974 279.269 46.4092 280.024 46.4535C280.856 46.5042 281.675 46.6889 282.448 47.0005C283.274 47.3265 284.029 47.8128 284.667 48.4315H284.693Z" fill="#8374FF"/>
<g opacity="0.6">
<path opacity="0.6" d="M275.153 59.9622C275.219 60.0273 275.272 60.105 275.308 60.1907C275.344 60.2764 275.362 60.3685 275.362 60.4614C275.362 60.5544 275.344 60.6464 275.308 60.7322C275.272 60.8179 275.219 60.8956 275.153 60.9607L273.563 62.6397C273.499 62.7075 273.422 62.7616 273.337 62.7988C273.251 62.8359 273.16 62.8554 273.067 62.856C272.973 62.8594 272.88 62.8442 272.793 62.8115C272.706 62.7787 272.626 62.729 272.558 62.6652L270.936 61.107C270.868 61.0432 270.814 60.9664 270.777 60.8811C270.74 60.7959 270.72 60.7039 270.72 60.6109C270.715 60.5175 270.729 60.4242 270.762 60.3366C270.795 60.2491 270.845 60.1692 270.91 60.1021L272.507 58.4294C272.64 58.2985 272.819 58.2252 273.006 58.2252C273.193 58.2252 273.372 58.2985 273.505 58.4294L275.153 59.9622ZM284.693 48.4315C285.284 48.9918 285.792 49.6344 286.2 50.3395C286.593 51.0076 286.867 51.7395 287.008 52.5019C287.127 53.2327 287.09 53.9805 286.9 54.6961C286.697 55.3732 286.355 56.0005 285.896 56.5382C285.437 57.0758 284.871 57.512 284.235 57.8189C283.737 58.0385 283.21 58.1842 282.67 58.2513C282.144 58.3105 281.615 58.3254 281.086 58.2959L279.586 58.2132C279.138 58.189 278.689 58.2039 278.244 58.2577C277.845 58.3017 277.466 58.4559 277.15 58.7029C277 58.816 276.821 58.8844 276.634 58.9001C276.545 58.9101 276.455 58.8998 276.37 58.8701C276.285 58.8404 276.208 58.7919 276.145 58.7283L274.701 57.3546C274.562 57.2234 274.48 57.0431 274.472 56.8521C274.463 56.7582 274.477 56.6634 274.512 56.5759C274.548 56.4884 274.604 56.4108 274.676 56.3497C275.119 55.9091 275.647 55.5629 276.227 55.3321C276.75 55.1381 277.295 55.012 277.849 54.9569C278.385 54.9124 278.923 54.9124 279.458 54.9569C279.988 55.0035 280.484 55.0353 280.947 55.0523C281.372 55.0737 281.798 55.0502 282.219 54.9823C282.581 54.926 282.914 54.7516 283.166 54.4862C283.389 54.2554 283.553 53.974 283.644 53.6662C283.735 53.3583 283.75 53.0331 283.688 52.7181C283.53 51.9379 283.115 51.2329 282.511 50.7147C282.003 50.2179 281.354 49.8901 280.653 49.7763C279.952 49.6625 279.232 49.7681 278.593 50.0787C278.436 50.1478 278.268 50.1887 278.097 50.1996C278.01 50.1944 277.925 50.1713 277.848 50.132C277.77 50.0926 277.701 50.0377 277.646 49.9706L276.107 48.5015C275.996 48.4012 275.928 48.2624 275.916 48.1135C275.912 48.0348 275.924 47.9562 275.953 47.8828C275.981 47.8094 276.025 47.7428 276.081 47.6874C276.562 47.2299 277.147 46.896 277.786 46.7143C278.511 46.4974 279.269 46.4092 280.024 46.4535C280.856 46.5042 281.675 46.6889 282.448 47.0005C283.274 47.3265 284.029 47.8128 284.667 48.4315H284.693Z" fill="white"/>
</g>
<path d="M48.8511 219.871C50.8672 221.098 53.5448 221.143 56.0697 220.259L57.9777 206.903L49.0737 204.626L48.8511 219.871Z" fill="#FFA8A7"/>
<path d="M63.2182 232.655C63.4408 232.884 63.3072 234.563 63.0338 234.938C62.7603 235.313 61.2275 236.585 58.4037 236.636C55.7134 236.681 53.3157 236.191 51.8147 235.104C50.3138 234.016 49.5951 232.878 49.5251 231.338C49.4552 229.799 49.7096 228.343 49.0481 227.128C48.3867 225.913 47.5917 224.896 47.3882 224.298C47.1493 223.215 47.1493 222.093 47.3882 221.01L63.2182 232.655Z" fill="#263238"/>
<path d="M56.6867 219.699C56.6992 220.279 56.7803 220.856 56.9284 221.416C57.2752 222.619 57.7641 223.776 58.3848 224.864C58.6935 225.431 59.0399 225.977 59.4215 226.498C60.1783 227.509 61.145 228.355 61.9655 229.328C62.8364 230.25 63.3602 231.446 63.4474 232.712C63.4474 234.823 61.126 235.415 59.3515 235.631C57.4233 235.866 55.4669 235.664 53.6275 235.04C52.6649 234.732 51.8115 234.153 51.1696 233.372C50.5277 232.592 50.1246 231.642 50.0087 230.638C49.9387 230.047 50.0087 229.455 49.9705 228.864C49.8121 227.507 49.3181 226.211 48.5332 225.093C48.0768 224.445 47.6929 223.75 47.3884 223.019C46.905 221.69 47.4265 220.246 47.8463 218.968C48.2088 217.868 48.4823 216.538 48.8893 216.666C48.8893 216.888 48.8893 217.384 48.8893 217.384C49.0038 217.632 49.2836 217.81 49.3536 218.103C49.4196 218.405 49.5111 218.7 49.6271 218.987C49.8003 219.43 50.107 219.808 50.5048 220.068C50.5747 219.273 50.6447 218.478 50.7083 217.689C50.6902 217.564 50.701 217.436 50.7397 217.316C50.7784 217.195 50.8441 217.085 50.9318 216.994C51.0195 216.902 51.1268 216.832 51.2457 216.789C51.3646 216.745 51.4918 216.729 51.6178 216.742C53.1097 216.469 54.6343 216.424 56.1397 216.608C56.2531 216.617 56.3637 216.648 56.4652 216.699C56.5667 216.75 56.6571 216.821 56.7312 216.907C56.8088 217.076 56.8333 217.265 56.8012 217.448C56.7224 218.196 56.6842 218.947 56.6867 219.699Z" fill="#8374FF"/>
<path opacity="0.2" d="M56.6867 219.699C56.6992 220.279 56.7803 220.856 56.9284 221.416C57.2752 222.619 57.7641 223.776 58.3848 224.864C58.6935 225.431 59.0399 225.977 59.4215 226.498C60.1783 227.509 61.145 228.355 61.9655 229.328C62.8364 230.25 63.3602 231.446 63.4474 232.712C63.4474 234.823 61.126 235.415 59.3515 235.631C57.4233 235.866 55.4669 235.664 53.6275 235.04C52.6649 234.732 51.8115 234.153 51.1696 233.372C50.5277 232.592 50.1246 231.642 50.0087 230.638C49.9387 230.047 50.0087 229.455 49.9705 228.864C49.8121 227.507 49.3181 226.211 48.5332 225.093C48.0768 224.445 47.6929 223.75 47.3884 223.019C46.905 221.69 47.4265 220.246 47.8463 218.968C48.2088 217.868 48.4823 216.538 48.8893 216.666C48.8893 216.888 48.8893 217.384 48.8893 217.384C49.0038 217.632 49.2836 217.81 49.3536 218.103C49.4196 218.405 49.5111 218.7 49.6271 218.987C49.8003 219.43 50.107 219.808 50.5048 220.068C50.5747 219.273 50.6447 218.478 50.7083 217.689C50.6902 217.564 50.701 217.436 50.7397 217.316C50.7784 217.195 50.8441 217.085 50.9318 216.994C51.0195 216.902 51.1268 216.832 51.2457 216.789C51.3646 216.745 51.4918 216.729 51.6178 216.742C53.1097 216.469 54.6343 216.424 56.1397 216.608C56.2531 216.617 56.3637 216.648 56.4652 216.699C56.5667 216.75 56.6571 216.821 56.7312 216.907C56.8088 217.076 56.8333 217.265 56.8012 217.448C56.7224 218.196 56.6842 218.947 56.6867 219.699Z" fill="black"/>
<path d="M58.6458 225.321C57.8953 224.685 56.1399 224.59 55.1732 224.641C54.1938 224.674 53.2383 224.951 52.3939 225.449C52.2691 225.525 52.122 225.555 51.9772 225.536C51.8324 225.516 51.6988 225.447 51.5989 225.34C51.5401 225.278 51.4957 225.204 51.4686 225.123C51.4416 225.042 51.4326 224.956 51.4423 224.872C51.452 224.787 51.4801 224.705 51.5248 224.632C51.5694 224.559 51.6294 224.497 51.7007 224.45C52.6353 223.841 53.7209 223.504 54.8361 223.477C57.2402 223.439 57.8762 223.871 57.8762 223.871C57.8762 223.871 58.9192 224.635 58.6458 225.321Z" fill="#455A64"/>
<path d="M60.3311 227.573C59.3771 226.937 57.4436 226.937 56.4769 226.968C55.5155 227.014 54.5831 227.312 53.7739 227.833C53.6485 227.911 53.5 227.943 53.3539 227.923C53.2077 227.903 53.0729 227.833 52.9726 227.725C52.9131 227.663 52.8681 227.589 52.8409 227.508C52.8137 227.426 52.8049 227.34 52.8153 227.254C52.8256 227.169 52.8548 227.087 52.9007 227.015C52.9466 226.942 53.0081 226.881 53.0807 226.835C54.0207 226.192 55.1227 225.826 56.2607 225.779C58.633 225.735 59.2244 226.256 59.2244 226.256C59.4972 226.376 59.7387 226.558 59.9305 226.786C60.1224 227.014 60.2594 227.283 60.3311 227.573Z" fill="#455A64"/>
<path d="M54.0157 221.169C55.0201 221.049 56.0386 221.189 56.9731 221.576C57.3738 221.837 57.6091 222.504 57.3356 222.657C56.5108 222.274 55.604 222.102 54.6962 222.155C53.8074 222.194 52.9319 222.385 52.1077 222.721C51.8978 222.797 51.6562 222.911 51.4717 223.013C51.4038 223.048 51.3293 223.068 51.2531 223.073C51.1769 223.078 51.1006 223.067 51.0289 223.04C50.9572 223.014 50.8917 222.973 50.8366 222.92C50.7815 222.867 50.7378 222.804 50.7085 222.733C50.6686 222.616 50.6709 222.488 50.715 222.372C50.7591 222.256 50.8423 222.159 50.9502 222.097C51.8943 221.573 52.9394 221.257 54.0157 221.169Z" fill="#455A64"/>
<path d="M73.9476 214.853C75.4994 218.739 77.929 217.543 81.6305 215.304L82.1902 202.037L72.771 201.166L73.9476 214.853Z" fill="#FFA8A7"/>
<path d="M95.839 224.209C96.0108 224.834 95.938 225.5 95.6355 226.073C95.3429 226.607 92.3982 228.07 88.5504 227.599C85.6974 227.248 82.9912 226.136 80.7149 224.381C79.2967 223.325 77.7766 223.064 75.8686 222.848C73.9606 222.632 72.5296 221.97 72.1544 221.055C71.7791 220.139 72.3515 218.625 72.3515 218.625L95.839 224.209Z" fill="#263238"/>
<path d="M80.8548 211.978C81.2025 211.905 81.5447 211.807 81.8788 211.685C82.0655 211.616 82.2708 211.616 82.4575 211.685C82.6992 211.794 82.7755 212.086 82.8328 212.321C82.8871 212.897 82.9978 213.466 83.1635 214.02C83.4237 214.479 83.7691 214.885 84.1811 215.215C85.0977 216.036 86.0974 216.758 87.1639 217.371C88.3914 218.122 89.5998 218.713 90.8654 219.368C92.1311 220.023 93.9055 220.494 94.9104 221.276C96.3668 222.383 96.4241 224.959 94.6433 225.875C93.1105 226.67 89.1419 227.407 85.1033 226.021C82.8964 225.264 80.5432 222.739 77.6176 222.351C75.7541 222.109 73.2737 221.817 72.148 220.335C71.7409 219.699 72.0971 217.855 72.4278 215.699C72.7267 213.791 73.0002 210.738 73.6171 210.941L73.6616 211.526L74.4121 212.423C74.5765 212.598 74.7506 212.764 74.9336 212.919C75.1345 213.154 75.3467 213.379 75.5696 213.593C75.872 213.852 76.2479 214.01 76.6445 214.045C76.8325 214.057 77.02 214.015 77.1851 213.924C77.5031 213.746 77.5476 213.326 77.8211 213.066C78.1169 212.761 78.4719 212.521 78.8641 212.36C79.409 212.166 79.9786 212.05 80.5559 212.016C80.6562 212.01 80.7561 211.997 80.8548 211.978Z" fill="#8374FF"/>
<path opacity="0.2" d="M80.8548 211.978C81.2025 211.905 81.5447 211.807 81.8788 211.685C82.0655 211.616 82.2708 211.616 82.4575 211.685C82.6992 211.794 82.7755 212.086 82.8328 212.321C82.8871 212.897 82.9978 213.466 83.1635 214.02C83.4237 214.479 83.7691 214.885 84.1811 215.215C85.0977 216.036 86.0974 216.758 87.1639 217.371C88.3914 218.122 89.5998 218.713 90.8654 219.368C92.1311 220.023 93.9055 220.494 94.9104 221.276C96.3668 222.383 96.4241 224.959 94.6433 225.875C93.1105 226.67 89.1419 227.407 85.1033 226.021C82.8964 225.264 80.5432 222.739 77.6176 222.351C75.7541 222.109 73.2737 221.817 72.148 220.335C71.7409 219.699 72.0971 217.855 72.4278 215.699C72.7267 213.791 73.0002 210.738 73.6171 210.941L73.6616 211.526L74.4121 212.423C74.5765 212.598 74.7506 212.764 74.9336 212.919C75.1345 213.154 75.3467 213.379 75.5696 213.593C75.872 213.852 76.2479 214.01 76.6445 214.045C76.8325 214.057 77.02 214.015 77.1851 213.924C77.5031 213.746 77.5476 213.326 77.8211 213.066C78.1169 212.761 78.4719 212.521 78.8641 212.36C79.409 212.166 79.9786 212.05 80.5559 212.016C80.6562 212.01 80.7561 211.997 80.8548 211.978Z" fill="black"/>
<path d="M85.4784 216.24C85.356 215.976 85.1699 215.746 84.9367 215.572C84.7036 215.397 84.4308 215.284 84.1428 215.241C83.3033 215.038 81.7705 215.585 80.7974 216.303C80.705 216.371 80.6305 216.459 80.5803 216.562C80.5302 216.665 80.5059 216.778 80.5097 216.892C80.5134 217.006 80.5451 217.118 80.6019 217.217C80.6587 217.316 80.739 217.4 80.8356 217.461C80.9582 217.535 81.1002 217.57 81.2431 217.562C81.3861 217.554 81.5233 217.503 81.637 217.416C82.713 216.534 84.093 216.112 85.4784 216.24Z" fill="#455A64"/>
<path d="M88.0287 217.874C87.8572 217.604 87.6233 217.378 87.3467 217.216C87.07 217.055 86.7587 216.962 86.4387 216.946C85.1266 216.933 83.8441 217.336 82.7753 218.097C82.6848 218.159 82.6108 218.243 82.5597 218.341C82.5086 218.438 82.4819 218.546 82.4819 218.656C82.4819 218.767 82.5086 218.875 82.5597 218.972C82.6108 219.07 82.6848 219.154 82.7753 219.216C82.8944 219.288 83.0326 219.322 83.1713 219.312C83.31 219.303 83.4426 219.252 83.5512 219.165C84.1521 218.627 84.8669 218.231 85.6422 218.007C86.4175 217.784 87.2333 217.738 88.0287 217.874Z" fill="#455A64"/>
<path d="M90.8651 219.362C90.667 219.109 90.4167 218.903 90.1313 218.755C89.846 218.608 89.5322 218.525 89.2115 218.51C87.9452 218.52 86.7144 218.93 85.6944 219.68C85.606 219.746 85.5348 219.832 85.4869 219.931C85.4391 220.03 85.4161 220.14 85.4198 220.25C85.4236 220.36 85.454 220.467 85.5085 220.563C85.563 220.659 85.6399 220.74 85.7326 220.799C85.8481 220.877 85.9859 220.915 86.1249 220.907C86.2639 220.899 86.3965 220.845 86.5022 220.755C87.0699 220.198 87.7604 219.782 88.5181 219.54C89.2758 219.298 90.0796 219.237 90.8651 219.362Z" fill="#455A64"/>
<path d="M48.6033 184.064C48.8895 177.66 50.2505 174.327 50.4413 172.553C50.4413 172.553 50.9628 137.318 51.8214 126.627L83.3671 125.285C83.8313 136.733 84.2511 167.49 84.0031 171.561C83.7677 175.459 82.1841 209.275 82.1841 209.275C77.7321 210.668 72.9812 208.639 72.9812 208.639C72.9812 208.639 70.3354 189.4 69.9029 185.158C69.596 181.343 69.694 177.505 70.1955 173.71L68.1794 146.318C68.1794 146.318 65.7435 167.56 64.5414 175.574C63.1677 184.738 57.2402 213.149 57.2402 213.149C52.979 214.211 48.8322 212.373 48.8322 212.373C48.8322 212.373 48.1835 193.344 48.6033 184.064Z" fill="#455A64"/>
<path d="M68.1855 146.343L68.7834 142.565C70.6214 142.291 75.2769 139.385 78.0308 136.841C76.0691 139.809 73.4149 142.256 70.2971 143.97L70.2017 173.722L68.1855 146.343Z" fill="#37474F"/>
<path d="M81.122 106.727C78.9787 101.836 75.2899 93.6001 75.2899 93.6001L74.355 80.2441C75.7197 80.2876 77.0808 80.4087 78.4317 80.6067C80.4161 80.9183 83.5643 82.8136 85.0016 86.3879C86.0765 89.04 91.6605 105.22 91.6605 105.22L101.391 100.094C103.884 98.5101 104.768 95.8834 106.358 94.3697C107.948 92.856 109.538 92.6271 111.3 91.4123C113.062 90.1975 113.755 89.2245 114.2 90.4392C114.646 91.654 112.674 93.5175 112.292 93.9817C111.911 94.446 109.996 95.4382 112.439 95.5654C114.881 95.6926 119.823 93.3139 121.006 92.9069C122.189 92.4999 122.087 93.9054 121.47 94.7767C120.853 95.6481 120.789 98.2048 119.759 99.6358C118.665 101.162 118.074 101.817 115.727 102.727C113.545 103.566 109.023 103.782 106.696 105.124C104.368 106.466 98.7329 111.561 94.9741 114.175C89.9306 117.685 87.0941 117.914 85.1161 115.116C83.1381 112.318 81.8789 108.451 81.122 106.727Z" fill="#FFA8A7"/>
<path d="M73.0386 79.9578C76.3458 79.7034 80.2445 79.9069 82.4005 81.8658C84.1241 83.4367 84.7728 84.4098 86.6935 89.8413C87.9655 93.4855 90.6876 101.881 90.6876 101.881C86.9501 102.724 83.5962 104.779 81.1476 107.726L74.9466 93.7908L73.0386 79.9578Z" fill="#E0E0E0"/>
<path d="M91.6603 105.188C89.9843 105.781 88.5423 106.896 87.5454 108.368C87.5454 108.368 87.7807 105.824 91.3614 104.304L91.6603 105.188Z" fill="#F28F8F"/>
<path d="M65.1199 79.3599C63.5535 79.2954 61.9862 79.4669 60.4708 79.8687C57.5643 80.6383 52.3554 82.1011 52.3554 82.1011C50.7018 82.9597 50.0595 85.8217 49.6842 87.4689C48.4885 92.7414 51.5922 104.641 52.0692 109.277C52.5462 113.914 51.5159 128.116 51.5159 128.116C55.0711 132.237 74.3356 134.972 83.7166 128.116C83.7166 128.116 84.1236 95.508 83.2014 90.827C81.8022 83.742 79.7225 80.3775 72.3894 79.9514L65.1199 79.3599Z" fill="#F5F5F5"/>
<path d="M69.2352 61.8701L67.1427 63.0212C66.998 62.7332 66.968 62.4008 67.0589 62.0915C67.1498 61.7822 67.3548 61.5189 67.6325 61.3549C67.7707 61.2798 67.9228 61.2336 68.0795 61.2189C68.2362 61.2043 68.3942 61.2215 68.544 61.2697C68.6938 61.3179 68.8323 61.3959 68.9511 61.4991C69.0699 61.6023 69.1665 61.7285 69.2352 61.8701Z" fill="#263238"/>
<path d="M78.3362 62.7095L76.4282 61.2403C76.5179 61.1113 76.6328 61.0018 76.7661 60.9187C76.8994 60.8355 77.0482 60.7803 77.2036 60.7565C77.3589 60.7327 77.5174 60.7408 77.6695 60.7802C77.8216 60.8197 77.964 60.8897 78.0882 60.9859C78.3409 61.1878 78.5073 61.4784 78.5534 61.7986C78.5994 62.1188 78.5218 62.4445 78.3362 62.7095Z" fill="#263238"/>
<path d="M59.6188 55.2109C59.6188 55.2109 57.3674 55.5226 56.5406 57.2398C55.8283 58.7153 56.0827 62.2769 57.043 66.1438C57.5857 68.6527 58.396 71.0962 59.4598 73.4323C59.8356 74.0942 60.4498 74.5878 61.177 74.8125L61.0562 70.1951L60.8908 67.0151C60.8908 67.0151 62.9451 64.204 63.1741 61.9271C63.4666 58.9633 62.8433 57.7486 62.8433 57.7486L59.6188 55.2109Z" fill="#263238"/>
<path d="M63.2505 59.6623C63.2589 61.9412 64.171 64.1237 65.7866 65.731C67.4022 67.3382 69.5894 68.239 71.8683 68.2356C76.6129 68.2356 80.1745 64.3242 80.1363 59.5733C80.0982 54.8224 76.5366 51.0191 71.7857 51.0382C69.5118 51.055 67.3371 51.9718 65.7375 53.5881C64.138 55.2043 63.2437 57.3884 63.2505 59.6623Z" fill="#263238"/>
<path d="M61.0561 66.4741C60.2802 67.1483 59.6506 65.412 59.0019 64.7315C58.3531 64.0509 56.2225 63.1351 55.1859 65.3675C54.1492 67.5998 56.1144 70.8371 57.7299 71.4604C58.2175 71.645 58.7531 71.6601 59.2504 71.5032C59.7477 71.3462 60.1776 71.0265 60.471 70.5954V80.7714C62.9196 85.1852 67.2381 85.0453 69.5467 84.7973C71.8554 84.5492 72.3579 82.1515 70.6725 80.2181V77.0381C71.9552 77.2394 73.256 77.3012 74.5521 77.2225C76.6636 76.8918 77.7321 75.3145 78.3681 73.0058C79.3857 69.3234 79.7991 63.1415 78.3681 55.9992C76.0021 54.1675 67.7977 54.4728 62.8306 57.621C63.2185 64.0255 61.7939 65.8063 61.0561 66.4741Z" fill="#FFA8A7"/>
<path d="M78.7878 52.4632C79.1073 51.1374 79.2506 49.7752 79.2139 48.4119C79.2139 47.8777 79.0803 47.2289 78.5779 47.0254C78.0755 46.8219 77.5794 47.1908 77.1469 47.4833C75.3152 48.7172 73.0383 49.067 70.8314 49.1878C67.0154 49.3977 61.1833 49.1496 59.2435 53.3282C58.7029 54.4857 58.6075 55.7068 59.676 56.5082C60.6286 57.1463 61.7179 57.5515 62.856 57.6911C64.764 58.0282 66.672 58.448 68.6309 58.7087C70.5897 58.9695 72.9175 59.2239 74.8573 58.626C76.4918 58.1236 78.1518 57.6911 79.3665 56.3937C80.4194 55.2624 81.0134 53.7796 81.0329 52.2342C81.0329 52.018 80.9883 51.7445 80.7721 51.6873C80.6641 51.6737 80.5545 51.6961 80.4605 51.7509L78.7878 52.4632Z" fill="#263238"/>
<path d="M70.6535 77.1085C70.6535 77.1085 65.9344 76.1735 64.2935 75.3022C63.3215 74.7987 62.5237 74.0142 62.0039 73.0508C62.2456 74.0132 62.6782 74.9172 63.2759 75.7093C64.4907 77.2484 70.6408 78.3614 70.6408 78.3614L70.6535 77.1085Z" fill="#F28F8F"/>
<path d="M69.7058 64.9924C69.6995 65.201 69.632 65.4031 69.5115 65.5735C69.3911 65.744 69.2231 65.8751 69.0286 65.9507C68.834 66.0262 68.6215 66.0427 68.4177 65.9982C68.2138 65.9537 68.0275 65.8502 67.8821 65.7004C67.7368 65.5507 67.6387 65.3615 67.6002 65.1563C67.5618 64.9512 67.5846 64.7393 67.6658 64.5471C67.7471 64.3549 67.8831 64.1908 68.057 64.0755C68.2309 63.9601 68.435 63.8985 68.6437 63.8984C68.9293 63.9035 69.2014 64.0213 69.4004 64.2263C69.5994 64.4313 69.7092 64.7067 69.7058 64.9924Z" fill="#263238"/>
<path d="M71.2321 72.3379C71.2372 72.6068 71.1357 72.8667 70.9498 73.0609C70.7639 73.2552 70.5087 73.3679 70.2399 73.3746C69.9695 73.3696 69.712 73.2578 69.5237 73.0635C69.3354 72.8693 69.2316 72.6084 69.235 72.3379C69.2325 72.2051 69.2562 72.0731 69.3047 71.9495C69.3532 71.8258 69.4256 71.7129 69.5177 71.6172C69.6098 71.5216 69.7199 71.445 69.8416 71.3918C69.9634 71.3387 70.0944 71.3101 70.2272 71.3076C70.4966 71.3126 70.7531 71.4236 70.9412 71.6165C71.1293 71.8093 71.2338 72.0685 71.2321 72.3379Z" fill="#B16668"/>
<path d="M68.3702 61.6537L66.1823 63.0338C66.0018 62.7335 65.9447 62.3749 66.023 62.0334C66.1013 61.6918 66.3088 61.3939 66.6021 61.2022C66.7472 61.1132 66.9086 61.0543 67.0769 61.0289C67.2451 61.0035 67.4167 61.0121 67.5816 61.0542C67.7465 61.0963 67.9012 61.1711 68.0367 61.274C68.1721 61.377 68.2855 61.5061 68.3702 61.6537Z" fill="#263238"/>
<path d="M76.0911 60.3047L78.3935 61.335C78.3314 61.4861 78.2393 61.6231 78.1227 61.7376C78.0062 61.8521 77.8676 61.9418 77.7154 62.0013C77.5632 62.0607 77.4006 62.0887 77.2373 62.0835C77.074 62.0783 76.9134 62.04 76.7653 61.971C76.4647 61.8281 76.2287 61.5776 76.1039 61.2691C75.979 60.9605 75.9745 60.6164 76.0911 60.3047Z" fill="#263238"/>
<path d="M77.306 64.6744C77.2985 64.8749 77.2323 65.0687 77.1156 65.2319C76.999 65.395 76.8369 65.5203 76.6496 65.5922C76.4624 65.6641 76.2581 65.6794 76.0622 65.6362C75.8663 65.593 75.6874 65.4932 75.5478 65.3492C75.4081 65.2052 75.3138 65.0234 75.2766 64.8263C75.2394 64.6292 75.2608 64.4255 75.3384 64.2405C75.4159 64.0555 75.5461 63.8973 75.7127 63.7856C75.8793 63.674 76.0751 63.6137 76.2757 63.6123C76.5529 63.6173 76.8169 63.7318 77.0099 63.9309C77.203 64.1299 77.3094 64.3972 77.306 64.6744Z" fill="#263238"/>
<path d="M72.1035 62.8809L72.4851 69.9532L75.8368 69.0628L72.1035 62.8809Z" fill="#F28F8F"/>
<path d="M12.7201 92.0098C13.8204 92.6013 18.3042 95.7559 20.7401 96.0293C21.7704 96.1438 22.0502 95.9785 22.0121 95.7113C21.9612 95.3425 21.3061 94.7891 21.1471 94.4902C20.8736 93.9687 19.2391 91.8063 19.8751 90.6742C20.5111 89.5421 21.0644 90.6233 22.5781 92.1052C24.0918 93.5871 25.6436 94.1023 26.9729 95.8258C28.3021 97.5494 28.7473 100.278 30.9479 102.256L39.712 108.241C39.712 108.241 43.7951 89.2941 45.5886 87.0617C47.4966 84.7149 55.6819 89.8283 53.9647 97.2886C52.2475 104.749 48.3361 117.698 45.614 120.235C43.8587 121.883 40.1635 120.331 35.5525 116.229C31.9082 112.985 26.9156 108.12 24.8041 106.396C22.6926 104.673 18.3042 103.744 16.2881 102.58C14.1193 101.308 13.6423 100.564 12.8092 98.8786C12.0269 97.295 12.3767 94.7573 11.9124 93.7906C11.4481 92.8239 11.6008 91.4183 12.7201 92.0098Z" fill="#FFA8A7"/>
<path d="M52.3557 82.1006C55.1668 83.8559 55.3068 86.4127 55.4467 89.3383C55.4865 92.7629 54.9446 96.1693 53.844 99.4125C52.6546 103.095 50.7657 109.817 50.7657 109.817C50.7657 109.817 43.4263 109.989 39.6484 106.727C39.6484 106.727 41.372 99.4761 42.5868 94.0065C43.8015 88.5369 45.277 82.7175 52.3557 82.1006Z" fill="#E0E0E0"/>
<path d="M39.6802 108.253C41.6836 109.366 42.8602 111.758 43.2227 112.705C43.136 111.602 42.7886 110.535 42.2093 109.592C41.6299 108.649 40.8351 107.856 39.8901 107.28L39.6802 108.253Z" fill="#F28F8F"/>
<path d="M115.822 245.712L164.909 274.052V284.495L115.822 256.155V245.712Z" fill="#8374FF"/>
<path opacity="0.35" d="M115.822 245.712L164.909 274.052V284.495L115.822 256.155V245.712Z" fill="black"/>
<path d="M213.995 245.712L164.909 274.052V284.495L213.995 256.155V245.712Z" fill="#8374FF"/>
<path opacity="0.2" d="M213.995 245.712L164.909 274.052V284.495L213.995 256.155V245.712Z" fill="black"/>
<path d="M213.995 245.712L164.909 217.378L115.822 245.712L164.909 274.052L213.995 245.712Z" fill="#8374FF"/>
<path opacity="0.15" d="M213.995 245.712L164.909 217.378L115.822 245.712L164.909 274.052L213.995 245.712Z" fill="black"/>
<path opacity="0.1" d="M164.909 274.052V271.069L120.987 245.712H115.822L164.909 274.052Z" fill="black"/>
<path opacity="0.1" d="M164.909 217.378V220.361L208.831 245.712H213.995L164.909 217.378Z" fill="black"/>
<path d="M213.995 245.712H208.831L164.909 271.069V274.052L213.995 245.712Z" fill="#8374FF"/>
<path d="M164.909 217.378V220.361L120.987 245.712H115.822L164.909 217.378Z" fill="#8374FF"/>
<path d="M165.087 233.412L186.177 245.585C187.754 246.501 187.754 247.976 186.177 248.886L170.448 257.993C169.562 258.446 168.581 258.682 167.586 258.682C166.591 258.682 165.61 258.446 164.724 257.993L143.635 245.82C142.057 244.904 142.057 243.429 143.635 242.519L159.369 233.412C160.255 232.96 161.234 232.725 162.228 232.725C163.222 232.725 164.202 232.96 165.087 233.412Z" fill="#37474F"/>
<path d="M170.448 257.993L185.655 249.21L165.087 237.336C164.199 236.888 163.219 236.655 162.225 236.655C161.231 236.655 160.251 236.888 159.363 237.336L144.156 246.131L164.724 257.993C165.611 258.446 166.591 258.682 167.586 258.682C168.582 258.682 169.562 258.446 170.448 257.993Z" fill="#455A64"/>
<path d="M152.348 245.731L161.576 240.407C161.748 240.321 161.937 240.276 162.129 240.276C162.321 240.276 162.511 240.321 162.683 240.407L163.815 241.043C164.12 241.215 164.12 241.501 163.815 241.679L154.586 247.003C154.416 247.089 154.227 247.134 154.036 247.134C153.845 247.134 153.657 247.089 153.486 247.003L152.354 246.367C152.288 246.344 152.23 246.302 152.189 246.245C152.149 246.189 152.126 246.121 152.126 246.051C152.125 245.981 152.146 245.913 152.186 245.855C152.225 245.798 152.282 245.755 152.348 245.731Z" fill="#263238"/>
<path d="M166.13 253.7L175.358 248.377C175.529 248.291 175.717 248.246 175.908 248.246C176.099 248.246 176.288 248.291 176.459 248.377L177.597 249.013C177.902 249.185 177.902 249.471 177.597 249.649L168.369 254.972C168.198 255.058 168.01 255.103 167.818 255.103C167.627 255.103 167.439 255.058 167.268 254.972L166.136 254.336C166.07 254.314 166.013 254.271 165.972 254.215C165.931 254.158 165.908 254.09 165.908 254.021C165.907 253.951 165.928 253.882 165.968 253.825C166.008 253.768 166.064 253.724 166.13 253.7Z" fill="#263238"/>
<path d="M143.584 266.337C143.532 265.372 143.253 264.433 142.768 263.596C142.284 262.759 141.609 262.049 140.798 261.523C140.518 261.318 140.187 261.192 139.842 261.158C139.496 261.125 139.148 261.185 138.833 261.332L137.631 262.031C137.348 262.231 137.123 262.502 136.98 262.818C136.837 263.133 136.781 263.481 136.817 263.825C136.869 264.79 137.149 265.729 137.631 266.567C138.114 267.404 138.787 268.117 139.596 268.646C139.878 268.851 140.209 268.976 140.556 269.01C140.903 269.043 141.252 268.984 141.568 268.837L142.763 268.118C143.045 267.919 143.268 267.65 143.412 267.338C143.556 267.025 143.616 266.68 143.584 266.337Z" fill="#8374FF"/>
<path opacity="0.1" d="M139.596 262.242C140.407 262.768 141.082 263.478 141.566 264.315C142.05 265.151 142.33 266.091 142.381 267.056C142.381 268.83 141.109 269.549 139.596 268.665C138.787 268.136 138.114 267.424 137.631 266.586C137.148 265.749 136.869 264.809 136.816 263.844C136.816 262.076 138.063 261.357 139.596 262.242Z" fill="black"/>
<path d="M107.332 282.556C104.228 282.61 101.162 281.867 98.4275 280.399L65.8643 261.599C63.2504 260.086 61.8066 258 61.8066 255.723C61.8066 253.446 63.2504 251.366 65.8643 249.852L103.592 228.069C107.726 225.684 111.224 219.636 111.224 214.86V95.4634C111.224 95.1261 111.358 94.8025 111.596 94.564C111.835 94.3254 112.158 94.1914 112.496 94.1914C112.833 94.1914 113.157 94.3254 113.395 94.564C113.634 94.8025 113.768 95.1261 113.768 95.4634V214.86C113.768 220.622 109.863 227.395 104.864 230.276L67.1363 252.059C65.3428 253.096 64.3506 254.393 64.3506 255.723C64.3506 257.052 65.3428 258.356 67.1363 259.392L99.6995 278.193C103.903 280.622 110.747 280.622 114.964 278.193L138.973 264.34C139.117 264.248 139.279 264.187 139.448 264.159C139.618 264.131 139.791 264.138 139.958 264.178C140.124 264.219 140.281 264.293 140.418 264.396C140.555 264.499 140.67 264.629 140.756 264.777C140.842 264.926 140.897 265.09 140.918 265.261C140.938 265.431 140.924 265.604 140.877 265.768C140.829 265.933 140.748 266.087 140.64 266.219C140.531 266.352 140.397 266.462 140.245 266.541L116.236 280.399C113.501 281.869 110.435 282.611 107.332 282.556Z" fill="#37474F"/>
<path d="M50.193 49.8051C50.1742 49.7188 50.1735 49.6296 50.191 49.5431C50.2086 49.4566 50.2439 49.3747 50.2948 49.3026C50.3427 49.2272 50.406 49.1628 50.4805 49.1134C50.5551 49.0641 50.6391 49.0311 50.7273 49.0164L53.8182 48.4186C53.9054 48.3988 53.9958 48.3977 54.0835 48.4152C54.1712 48.4328 54.2541 48.4686 54.327 48.5203C54.4748 48.6221 54.5774 48.7771 54.6132 48.9528L55.0902 51.4332C55.1082 51.5199 55.1078 51.6093 55.0892 51.6959C55.0706 51.7824 55.0341 51.8641 54.9821 51.9357C54.9355 52.0115 54.8735 52.0768 54.8001 52.1272C54.7267 52.1776 54.6435 52.212 54.556 52.2282L51.4587 52.8197C51.3725 52.8385 51.2833 52.8392 51.1968 52.8217C51.1102 52.8042 51.0283 52.7688 50.9562 52.7179C50.8808 52.67 50.8164 52.6067 50.7671 52.5322C50.7177 52.4577 50.6847 52.3736 50.67 52.2855L50.193 49.8051ZM47.6109 36.4109C47.5933 36.3236 47.5933 36.2337 47.6107 36.1463C47.6281 36.059 47.6626 35.976 47.7123 35.902C47.7619 35.8281 47.8258 35.7648 47.9001 35.7157C47.9744 35.6665 48.0576 35.6326 48.1451 35.6159L51.2424 35.0181C51.3291 35.0001 51.4185 35.0005 51.5051 35.0191C51.5916 35.0377 51.6733 35.0742 51.7449 35.1262C51.8196 35.1734 51.8836 35.2357 51.9329 35.3091C51.9821 35.3825 52.0156 35.4653 52.0311 35.5523L54.0599 46.1544C54.0778 46.2411 54.0775 46.3305 54.0589 46.4171C54.0402 46.5036 54.0038 46.5852 53.9518 46.6569C53.9046 46.7316 53.8423 46.7956 53.7689 46.8449C53.6955 46.8941 53.6127 46.9276 53.5257 46.9431L50.4284 47.5409C50.3417 47.5588 50.2522 47.5585 50.1657 47.5399C50.0792 47.5212 49.9975 47.4848 49.9259 47.4328C49.8512 47.3855 49.7872 47.3232 49.7379 47.2499C49.6886 47.1765 49.6552 47.0937 49.6397 47.0067L47.6109 36.4109Z" fill="#8374FF"/>
<path d="M45.0288 60.1845C44.9693 60.1186 44.9234 60.0416 44.8938 59.9579C44.8641 59.8742 44.8513 59.7855 44.856 59.6969C44.8608 59.6082 44.883 59.5214 44.9213 59.4414C44.9597 59.3613 45.0135 59.2897 45.0796 59.2305L47.4265 57.1253C47.492 57.065 47.5694 57.0191 47.6538 56.9906C47.7381 56.9621 47.8275 56.9517 47.9162 56.9599C48.0043 56.9618 48.0911 56.982 48.1711 57.0193C48.251 57.0565 48.3223 57.1099 48.3805 57.1762L50.0659 59.0842C50.1253 59.1501 50.1712 59.2271 50.2008 59.3107C50.2305 59.3944 50.2433 59.4831 50.2386 59.5717C50.2339 59.6604 50.2117 59.7472 50.1733 59.8273C50.1349 59.9073 50.0811 59.979 50.015 60.0382L47.7 62.1179C47.6344 62.1782 47.557 62.2241 47.4726 62.2526C47.3883 62.2811 47.2989 62.2915 47.2102 62.2833C47.1221 62.2814 47.0353 62.2612 46.9554 62.2239C46.8754 62.1867 46.8041 62.1333 46.746 62.067L45.0288 60.1845ZM35.9276 50.0085C35.8079 49.8743 35.7462 49.6983 35.7559 49.5187C35.7586 49.4301 35.7798 49.343 35.8181 49.2631C35.8564 49.1831 35.9111 49.1121 35.9785 49.0545L38.3253 46.9493C38.3903 46.8879 38.4675 46.8408 38.5519 46.8112C38.6362 46.7816 38.7259 46.7702 38.815 46.7776C38.9037 46.7803 38.9908 46.8015 39.0707 46.8398C39.1507 46.8781 39.2217 46.9328 39.2793 47.0002L46.4788 55.0519C46.5391 55.1174 46.585 55.1949 46.6135 55.2792C46.642 55.3636 46.6524 55.453 46.6442 55.5417C46.6423 55.6298 46.6221 55.7166 46.5849 55.7965C46.5476 55.8765 46.4942 55.9478 46.428 56.0059L44.0748 58.1111C44.01 58.1706 43.9336 58.216 43.8504 58.2444C43.7672 58.2729 43.679 58.2838 43.5914 58.2765C43.5022 58.2754 43.4141 58.2557 43.3331 58.2184C43.252 58.1812 43.1796 58.1273 43.1208 58.0602L35.9276 50.0085Z" fill="#8374FF"/>
<g opacity="0.6">
<path opacity="0.6" d="M45.0288 60.1845C44.9693 60.1186 44.9234 60.0416 44.8938 59.9579C44.8641 59.8742 44.8513 59.7855 44.856 59.6969C44.8608 59.6082 44.883 59.5214 44.9213 59.4414C44.9597 59.3613 45.0135 59.2897 45.0796 59.2305L47.4265 57.1253C47.492 57.065 47.5694 57.0191 47.6538 56.9906C47.7381 56.9621 47.8275 56.9517 47.9162 56.9599C48.0043 56.9618 48.0911 56.982 48.1711 57.0193C48.251 57.0565 48.3223 57.1099 48.3805 57.1762L50.0659 59.0842C50.1253 59.1501 50.1712 59.2271 50.2008 59.3107C50.2305 59.3944 50.2433 59.4831 50.2386 59.5717C50.2339 59.6604 50.2117 59.7472 50.1733 59.8273C50.1349 59.9073 50.0811 59.979 50.015 60.0382L47.7 62.1179C47.6344 62.1782 47.557 62.2241 47.4726 62.2526C47.3883 62.2811 47.2989 62.2915 47.2102 62.2833C47.1221 62.2814 47.0353 62.2612 46.9554 62.2239C46.8754 62.1867 46.8041 62.1333 46.746 62.067L45.0288 60.1845ZM35.9276 50.0085C35.8079 49.8743 35.7462 49.6983 35.7559 49.5187C35.7586 49.4301 35.7798 49.343 35.8181 49.2631C35.8564 49.1831 35.9111 49.1121 35.9785 49.0545L38.3253 46.9493C38.3903 46.8879 38.4675 46.8408 38.5519 46.8112C38.6362 46.7816 38.7259 46.7702 38.815 46.7776C38.9037 46.7803 38.9908 46.8015 39.0707 46.8398C39.1507 46.8781 39.2217 46.9328 39.2793 47.0002L46.4788 55.0519C46.5391 55.1174 46.585 55.1949 46.6135 55.2792C46.642 55.3636 46.6524 55.453 46.6442 55.5417C46.6423 55.6298 46.6221 55.7166 46.5849 55.7965C46.5476 55.8765 46.4942 55.9478 46.428 56.0059L44.0748 58.1111C44.01 58.1706 43.9336 58.216 43.8504 58.2444C43.7672 58.2729 43.679 58.2838 43.5914 58.2765C43.5022 58.2754 43.4141 58.2557 43.3331 58.2184C43.252 58.1812 43.1796 58.1273 43.1208 58.0602L35.9276 50.0085Z" fill="white"/>
</g>
</svg>
