<svg width="331" height="331" viewBox="0 0 331 331" fill="none" xmlns="http://www.w3.org/2000/svg">
<path d="M287.07 74.3423L286.269 74.4218C282.971 74.7096 279.815 75.8936 277.142 77.8456C274.469 79.7977 272.38 82.4436 271.102 85.497C270.778 86.2975 270.513 87.1206 270.308 87.9597C269.606 91.0189 269.671 94.2042 270.497 97.2324C271.322 100.261 272.883 103.038 275.041 105.317C277.61 107.965 281.046 110.044 282.462 113.447C284.303 117.875 282.058 122.807 279.854 127.031C277.649 131.254 275.419 136.193 277.279 140.609C278.444 143.382 281.052 145.342 283.839 146.507C291.22 149.592 300.071 147.679 306.347 142.846C312.623 138.013 316.522 130.639 318.475 122.986C321.216 112.262 320.289 100.359 314.622 90.7401C308.955 81.1212 298.244 74.2232 287.07 74.3423Z" fill="#FF98B2"/>
<path d="M51.3645 85.2921L52.0266 85.4576C54.7592 86.1237 57.2577 87.5243 59.2518 89.5078C61.2459 91.4914 62.6596 93.9825 63.3401 96.7116C63.5101 97.4258 63.6274 98.1515 63.691 98.8829C63.8868 101.543 63.4224 104.209 62.3391 106.646C61.2557 109.083 59.5871 111.215 57.4814 112.851C54.9857 114.764 51.8346 116.049 50.1994 118.723C48.0877 122.205 49.3388 126.634 50.643 130.46C51.9471 134.287 53.1983 138.722 51.0667 142.198C49.7427 144.369 47.2866 145.68 44.7975 146.302C38.1775 147.944 31.0213 145.203 26.3741 140.344C21.7268 135.485 19.3966 128.785 18.7412 122.106C17.821 112.752 20.1314 102.875 26.1225 95.5266C32.1136 88.1784 41.9972 83.7496 51.3645 85.2921Z" fill="#FFCA6C"/>
<path d="M222.928 45.499C229.765 45.499 235.308 39.9566 235.308 33.1196C235.308 26.2827 229.765 20.7402 222.928 20.7402C216.092 20.7402 210.549 26.2827 210.549 33.1196C210.549 39.9566 216.092 45.499 222.928 45.499Z" fill="#FFB7C9"/>
<path d="M56.2025 232.144C57.7149 225.477 53.5357 218.846 46.8682 217.333C40.2006 215.821 33.5694 220 32.057 226.668C30.5446 233.335 34.7237 239.966 41.3913 241.479C48.0589 242.991 54.6901 238.812 56.2025 232.144Z" fill="#FFDA98"/>
<path d="M298.085 314.258C298.085 314.351 238.717 314.43 165.507 314.43C92.2961 314.43 32.9147 314.351 32.9147 314.258C32.9147 314.165 92.2696 314.086 165.507 314.086C238.744 314.086 298.085 314.159 298.085 314.258Z" fill="#263238"/>
<path d="M261.755 62.069C261.814 62.1418 253.566 68.9538 243.338 77.295C233.11 85.6362 224.762 92.3025 224.703 92.2297C224.643 92.1569 232.885 85.3515 243.12 77.0037C253.354 68.6558 261.689 61.9961 261.755 62.069Z" fill="#263238"/>
<path d="M275.332 173.212C275.299 173.305 264.628 169.479 251.5 164.679C238.373 159.88 227.728 155.908 227.788 155.822C227.847 155.736 238.492 159.549 251.62 164.355C264.747 169.161 275.392 173.126 275.332 173.212Z" fill="#263238"/>
<path d="M54.3899 81.5322C54.4363 81.4461 65.9352 87.4902 80.0623 95.0767C94.1894 102.663 105.622 108.853 105.576 108.932C105.529 109.012 94.0371 102.974 79.9034 95.3812C65.7697 87.7881 54.3436 81.6116 54.3899 81.5322Z" fill="#263238"/>
<path d="M58.5341 179.806C58.5341 179.713 67.9477 176.085 79.6254 171.703C91.3031 167.32 100.809 163.838 100.842 163.924C100.876 164.01 91.4355 167.638 79.7512 172.027C68.0669 176.416 58.5672 179.892 58.5341 179.806Z" fill="#263238"/>
<path d="M170.571 199.699C159.203 199.7 148.09 196.33 138.638 190.016C129.185 183.701 121.818 174.725 117.466 164.223C113.115 153.721 111.976 142.165 114.193 131.015C116.41 119.866 121.883 109.624 129.921 101.585C137.959 93.5467 148.2 88.0721 159.349 85.8539C170.498 83.6357 182.055 84.7735 192.557 89.1234C203.06 93.4734 212.037 100.84 218.352 110.292C224.668 119.744 228.039 130.856 228.039 142.224C228.022 157.461 221.962 172.068 211.188 182.843C200.415 193.618 185.808 199.679 170.571 199.699ZM170.571 85.4177C159.334 85.4164 148.349 88.7474 139.005 94.9896C129.661 101.232 122.378 110.105 118.077 120.486C113.777 130.868 112.651 142.291 114.843 153.313C117.035 164.334 122.446 174.457 130.392 182.403C138.337 190.349 148.461 195.76 159.482 197.952C170.504 200.144 181.927 199.018 192.309 194.717C202.69 190.417 211.563 183.134 217.805 173.79C224.047 164.446 227.378 153.461 227.377 142.224C227.365 127.16 221.377 112.716 210.727 102.062C200.077 91.4086 185.635 85.4153 170.571 85.3978V85.4177Z" fill="#8374FF"/>
<path d="M243.225 141.404C243.225 141.404 243.225 141.006 243.179 140.225C243.179 139.835 243.179 139.351 243.133 138.775C243.086 138.199 243.133 137.531 243.033 136.789C242.934 136.048 242.901 135.187 242.828 134.254C242.755 133.321 242.583 132.308 242.444 131.202C242.133 129.004 241.657 126.482 240.968 123.682C240.179 120.567 239.184 117.509 237.989 114.526C236.586 110.988 234.897 107.569 232.938 104.305C228.147 96.3304 221.886 89.3373 214.488 83.697C210.197 80.4216 205.549 77.6433 200.632 75.4154C195.312 72.9657 189.709 71.1868 183.95 70.1194C174.548 68.384 164.897 68.4942 155.537 70.4438C152.25 71.1558 149.013 72.0801 145.845 73.2109C132.362 78.1245 120.636 86.9189 112.143 98.4861C109.928 101.499 107.951 104.679 106.231 107.999C105.814 108.846 105.344 109.667 104.973 110.535L103.802 113.123C103.1 114.89 102.378 116.658 101.816 118.479C100.587 122.154 99.6635 125.925 99.0551 129.752C98.4447 133.611 98.126 137.51 98.1018 141.417C98.1269 145.325 98.4433 149.226 99.0485 153.088C99.6593 156.895 100.583 160.646 101.809 164.302C102.385 166.129 103.133 167.897 103.795 169.664L104.967 172.253C105.337 173.127 105.814 173.947 106.231 174.788C107.945 178.112 109.92 181.295 112.136 184.308C120.631 195.877 132.36 204.674 145.845 209.59C149.024 210.713 152.272 211.629 155.57 212.33C164.93 214.281 174.581 214.391 183.983 212.655C195.067 210.571 205.512 205.931 214.488 199.103C221.883 193.46 228.137 186.462 232.918 178.482C234.877 175.218 236.566 171.8 237.969 168.261C239.162 165.289 240.158 162.242 240.948 159.139C241.61 156.338 242.113 153.843 242.424 151.625C242.563 150.519 242.716 149.506 242.808 148.573C242.901 147.64 242.947 146.792 243.014 146.031C243.08 145.27 243.1 144.608 243.113 144.045C243.126 143.482 243.146 142.986 243.159 142.595C243.159 141.814 243.206 141.417 243.206 141.417C243.206 141.417 243.206 141.814 243.206 142.595C243.206 142.986 243.206 143.469 243.206 144.045C243.206 144.621 243.206 145.296 243.12 146.031C243.033 146.766 243 147.64 242.934 148.573C242.868 149.506 242.702 150.526 242.57 151.631C242.266 153.836 241.796 156.358 241.12 159.165C240.337 162.277 239.349 165.333 238.161 168.314C236.766 171.867 235.081 175.298 233.123 178.575C228.343 186.587 222.082 193.617 214.673 199.289C205.668 206.17 195.175 210.843 184.036 212.933C177.851 214.101 171.539 214.455 165.262 213.985C161.982 213.759 158.721 213.305 155.504 212.628C152.195 211.922 148.938 210.995 145.753 209.854C132.202 204.929 120.414 196.1 111.878 184.48C109.646 181.454 107.654 178.257 105.92 174.921C105.503 174.073 105.026 173.246 104.649 172.372C104.272 171.498 103.868 170.637 103.471 169.77C102.769 167.996 102.041 166.222 101.485 164.388C100.252 160.72 99.324 156.956 98.7109 153.134C97.4398 145.372 97.4398 137.455 98.7109 129.693C99.3298 125.872 100.26 122.108 101.491 118.439C102.067 116.605 102.815 114.831 103.477 113.057C103.874 112.19 104.265 111.322 104.656 110.455C105.046 109.588 105.503 108.76 105.927 107.906C107.66 104.571 109.652 101.377 111.885 98.3537C120.419 86.7356 132.205 77.906 145.753 72.9792C148.934 71.831 152.187 70.8934 155.491 70.1724C164.89 68.229 174.577 68.1256 184.016 69.8678C189.793 70.9308 195.415 72.7099 200.752 75.1638C205.686 77.404 210.35 80.1979 214.654 83.4918C222.064 89.1634 228.327 96.1931 233.11 104.206C235.065 107.484 236.75 110.915 238.148 114.467C239.336 117.448 240.324 120.504 241.107 123.616C241.769 126.422 242.252 128.951 242.557 131.156C242.689 132.261 242.828 133.274 242.921 134.208C243.014 135.141 243.053 135.995 243.106 136.756C243.159 137.518 243.186 138.18 243.192 138.742C243.199 139.305 243.192 139.802 243.192 140.192C243.232 141.006 243.225 141.404 243.225 141.404Z" fill="#263238"/>
<path d="M171.458 224.027V223.365C187.999 223.361 204.167 218.453 217.919 209.26C231.67 200.067 242.387 187.004 248.714 171.721C255.042 156.438 256.695 139.622 253.466 123.399C250.236 107.176 242.269 92.2755 230.571 80.5806C218.874 68.8858 203.971 60.9221 187.748 57.6965C171.524 54.471 154.709 56.1284 139.427 62.4593C124.145 68.7902 111.084 79.5102 101.895 93.2638C92.7058 107.017 87.801 123.187 87.801 139.728H87.139C87.139 93.249 124.959 55.4355 171.438 55.4355C193.665 55.6325 214.915 64.6004 230.563 80.3876C246.211 96.1747 254.99 117.503 254.99 139.731C254.99 161.959 246.211 183.288 230.563 199.075C214.915 214.862 193.665 223.83 171.438 224.027H171.458Z" fill="#8374FF"/>
<path d="M170.578 215.706V212.396C189.406 212.396 207.463 204.917 220.777 191.603C234.091 178.289 241.57 160.232 241.57 141.403C241.57 122.575 234.091 104.518 220.777 91.2039C207.463 77.8902 189.406 70.4106 170.578 70.4106V67.1006C190.284 67.1006 209.183 74.9289 223.118 88.8634C237.052 102.798 244.88 121.697 244.88 141.403C244.88 161.11 237.052 180.009 223.118 193.944C209.183 207.878 190.284 215.706 170.578 215.706Z" fill="#8374FF"/>
<path d="M257.055 139.728H253.745C253.55 118.026 244.792 97.2787 229.377 82.0014C213.962 66.7241 193.138 58.1529 171.435 58.1529C149.732 58.1529 128.907 66.7241 113.492 82.0014C98.0773 97.2787 89.3197 118.026 89.1251 139.728H85.8151C85.8151 92.5206 124.211 54.1113 171.438 54.1113C194.137 54.1376 215.899 63.1663 231.949 79.2168C248 95.2673 257.028 117.029 257.055 139.728Z" fill="#8374FF"/>
<path d="M172.074 236.744C119.478 236.744 76.686 193.946 76.686 141.35C76.686 88.7544 119.478 45.9561 172.074 45.9561V49.2661C121.305 49.2661 79.996 90.5749 79.996 141.35C79.996 192.126 121.305 233.434 172.074 233.434C222.842 233.434 264.138 192.126 264.138 141.35H267.448C267.448 193.966 224.676 236.744 172.074 236.744Z" fill="#8374FF"/>
<path d="M170.571 247.938H168.909V247.276H170.564L170.571 247.938Z" fill="#8374FF"/>
<path d="M162.19 247.588C161.084 247.502 159.959 247.396 158.88 247.27L158.953 246.608C160.052 246.727 161.171 246.833 162.263 246.919L162.19 247.588ZM152.26 246.35C151.154 246.158 150.042 245.946 148.95 245.721L149.089 245.059C150.161 245.284 151.26 245.496 152.359 245.688L152.26 246.35ZM142.443 244.145C141.377 243.854 140.291 243.536 139.225 243.205L139.424 242.543C140.483 242.874 141.555 243.205 142.621 243.483L142.443 244.145ZM132.877 241.007C131.831 240.61 130.785 240.186 129.752 239.756L130.01 239.147C131.03 239.577 132.076 239.994 133.115 240.392L132.877 241.007ZM123.615 236.996C122.616 236.499 121.629 235.983 120.63 235.453L120.941 234.871C121.921 235.394 122.927 235.91 123.907 236.406L123.615 236.996ZM114.817 232.09C113.871 231.501 112.917 230.892 111.997 230.276L112.361 229.72C113.281 230.336 114.228 230.945 115.168 231.527L114.817 232.09ZM106.536 226.377C105.649 225.715 104.761 225.007 103.888 224.298L104.311 223.789C105.165 224.484 106.046 225.179 106.926 225.847L106.536 226.377ZM98.83 219.903C98.0025 219.141 97.1882 218.36 96.4004 217.586L96.8638 217.116C97.645 217.884 98.4592 218.658 99.2801 219.419L98.83 219.903ZM91.773 212.7C91.0316 211.866 90.2902 211.019 89.5752 210.165L90.0849 209.741C90.7933 210.588 91.5281 211.436 92.2695 212.263L91.773 212.7ZM85.4311 204.902C84.7691 203.995 84.1071 203.081 83.4848 202.168L84.0276 201.797C84.6499 202.697 85.2987 203.611 85.9607 204.505L85.4311 204.902ZM79.857 196.534C79.2877 195.587 78.7184 194.608 78.1756 193.635L78.778 193.304C79.3142 194.27 79.8769 195.237 80.4396 196.183L79.857 196.534ZM75.1039 187.683C74.6206 186.677 74.1506 185.651 73.7071 184.638L74.3161 184.373C74.753 185.379 75.223 186.399 75.6997 187.399L75.1039 187.683ZM71.2179 178.415C70.834 177.369 70.4633 176.303 70.119 175.251L70.781 175.039C71.1253 176.092 71.4894 177.151 71.8733 178.19L71.2179 178.415ZM68.2257 168.81C67.9477 167.73 67.6829 166.638 67.4379 165.553L68.0999 165.407C68.3382 166.486 68.603 167.572 68.8811 168.644L68.2257 168.81ZM66.2 158.972C66.0279 157.88 65.869 156.761 65.7233 155.662L66.3853 155.583C66.5244 156.682 66.6832 157.794 66.8554 158.893L66.2 158.972ZM65.068 148.95C64.9951 147.844 64.9422 146.712 64.9091 145.6H65.5711C65.5711 146.705 65.6571 147.824 65.73 148.91L65.068 148.95ZM65.538 138.94H64.876C64.9157 137.821 64.9687 136.696 65.0349 135.584L65.6969 135.63C65.6505 136.709 65.6042 137.828 65.538 138.94ZM66.3191 128.97L65.6571 128.891C65.7962 127.785 65.955 126.667 66.1272 125.581L66.7892 125.687C66.6435 126.766 66.4846 127.871 66.3456 128.97H66.3191ZM68.0403 119.126L67.3783 118.981C67.6233 117.895 67.8881 116.796 68.1661 115.724L68.8281 115.889C68.5699 116.955 68.3051 118.047 68.0668 119.16L68.0403 119.126ZM70.6883 109.488L70.0594 109.283C70.4103 108.223 70.781 107.157 71.1584 106.105L71.7806 106.33C71.4298 107.376 71.0591 108.442 70.7148 109.488H70.6883ZM74.2631 100.134L73.6541 99.8689C74.1043 98.8494 74.5743 97.8233 75.0509 96.8104L75.6533 97.0951C75.1966 98.1013 74.7332 99.1208 74.2896 100.134H74.2631ZM78.7118 91.1636L78.1358 90.8458C78.6787 89.866 79.2392 88.8951 79.8173 87.933L80.38 88.2773C79.8372 89.2239 79.2745 90.1971 78.7383 91.1636H78.7118ZM84.0078 82.6701L83.4583 82.2928C84.1203 81.3792 84.7492 80.459 85.4112 79.5587L85.9408 79.9493C85.2987 80.843 84.6433 81.7565 84.021 82.6701H84.0078ZM90.0651 74.7261L89.562 74.2958C90.2769 73.4484 91.0184 72.5945 91.7598 71.7603L92.2497 72.2039C91.5281 73.0181 90.7933 73.8655 90.0783 74.7129L90.0651 74.7261ZM96.8506 67.3779L96.3872 66.9079C97.175 66.1333 97.9958 65.3522 98.8101 64.5909L99.2603 65.0808C98.4592 65.8222 97.6516 66.5967 96.8638 67.3647L96.8506 67.3779ZM104.298 60.7116L103.881 60.1952C104.742 59.4935 105.629 58.7984 106.529 58.1231L106.933 58.6527C106.046 59.3081 105.165 60.0032 104.311 60.6983L104.298 60.7116ZM112.335 54.7536L111.971 54.2041C112.884 53.5884 113.838 52.9794 114.784 52.3902L115.135 52.9529C114.202 53.5487 113.262 54.1578 112.348 54.7668L112.335 54.7536ZM120.908 49.6495L120.597 49.0604C121.576 48.5374 122.583 48.021 123.569 47.5245L123.867 48.1203C122.88 48.5903 121.887 49.1001 120.908 49.6495ZM129.917 45.3465L129.659 44.7375C130.685 44.3072 131.731 43.8835 132.764 43.4929L133.002 44.1086C131.976 44.4793 130.937 44.8964 129.917 45.3267V45.3465ZM139.298 41.924L139.099 41.2951C140.165 40.9641 141.251 40.6331 142.317 40.3484L142.495 41.0104C141.43 41.262 140.344 41.5731 139.298 41.9041V41.924ZM148.95 39.3952L148.818 38.7332C149.91 38.5015 151.015 38.2896 152.128 38.0712L152.247 38.7332C151.161 38.9582 150.056 39.1701 148.95 39.3952ZM158.82 37.8196L158.748 37.1576C159.853 37.0318 160.979 36.9259 162.058 36.8398L162.111 37.5018C161.058 37.5879 159.939 37.7335 158.84 37.8196H158.82Z" fill="#8374FF"/>
<path d="M168.916 37.1845V36.5225H170.577V37.1845H168.916Z" fill="#8374FF"/>
<path d="M52.4635 273.452C52.4635 273.452 56.9055 276.325 58.9577 276.226C61.0099 276.127 69.0797 266.124 69.0797 266.124L64.876 262.946L54.5223 264.661L52.4767 273.36" fill="#263238"/>
<path d="M140.529 126.746C141.408 130.072 141.439 133.565 140.622 136.907C139.804 140.249 138.164 143.333 135.849 145.878C133.724 148.168 131.016 150.042 129.673 152.862C128.183 155.987 128.666 159.661 128.004 163.063C127.342 166.466 124.456 170.081 121.146 169.26C124.284 173.894 129.05 177.277 134.161 179.6C139.272 181.924 144.753 183.288 150.201 184.645C153.233 185.393 156.503 186.134 159.403 184.969C163.157 183.466 165.023 179.342 166.526 175.588L179.62 142.879" fill="#263238"/>
<path d="M185.36 113.705C185.358 112.478 184.895 111.297 184.064 110.395C183.233 109.493 182.094 108.935 180.872 108.833L157.788 98.2407C149.453 97.539 141.132 112.454 140.787 120.808C140.403 130.076 141.608 141.251 142.853 148.142C145.355 162.005 154.709 162.269 154.709 162.269L155.504 184.698L184.473 184.645L185.36 113.705Z" fill="#B5715A"/>
<path d="M146.865 131.897C146.871 132.362 147.059 132.806 147.388 133.134C147.717 133.463 148.161 133.651 148.626 133.658C148.853 133.67 149.08 133.637 149.294 133.561C149.508 133.484 149.705 133.366 149.872 133.212C150.04 133.059 150.176 132.873 150.271 132.667C150.366 132.46 150.419 132.237 150.426 132.009C150.421 131.545 150.235 131.101 149.907 130.772C149.579 130.443 149.136 130.255 148.672 130.248C148.444 130.234 148.216 130.266 148 130.342C147.785 130.417 147.587 130.536 147.419 130.689C147.25 130.843 147.114 131.029 147.019 131.237C146.924 131.444 146.871 131.669 146.865 131.897Z" fill="#263238"/>
<path d="M144.581 127.156C144.773 127.322 146.176 127.097 148.05 127.514C149.923 127.931 151.214 128.725 151.439 128.652C151.545 128.619 151.36 128.355 150.777 127.99C149.945 127.489 149.034 127.131 148.083 126.931C147.172 126.718 146.229 126.673 145.302 126.799C144.707 126.905 144.481 127.103 144.581 127.156Z" fill="#263238"/>
<path d="M164.964 130.969C164.969 131.435 165.156 131.881 165.485 132.211C165.814 132.541 166.259 132.73 166.725 132.737C166.952 132.749 167.179 132.716 167.393 132.64C167.607 132.563 167.804 132.445 167.972 132.291C168.139 132.138 168.275 131.952 168.37 131.746C168.465 131.539 168.518 131.316 168.525 131.088C168.52 130.624 168.334 130.179 168.007 129.849C167.679 129.519 167.236 129.33 166.771 129.321C166.544 129.308 166.316 129.341 166.102 129.418C165.887 129.494 165.69 129.613 165.522 129.766C165.353 129.92 165.217 130.105 165.122 130.312C165.026 130.518 164.972 130.742 164.964 130.969Z" fill="#263238"/>
<path d="M162.336 128.203C162.614 128.269 163.825 127.296 165.824 126.713C167.824 126.131 169.485 126.243 169.657 126.051C169.743 125.958 169.426 125.793 168.697 125.733C167.642 125.671 166.584 125.797 165.573 126.104C164.589 126.367 163.666 126.816 162.852 127.428C162.329 127.885 162.19 128.183 162.336 128.203Z" fill="#263238"/>
<path d="M155.57 141.006C155.57 140.894 154.378 140.715 152.439 140.51C151.949 140.47 151.485 140.384 151.393 140.046C151.344 139.542 151.447 139.034 151.691 138.59C152.128 137.392 152.584 136.14 153.061 134.823C154.961 129.467 156.325 125.072 156.106 124.992C155.888 124.913 154.173 129.203 152.273 134.558C151.823 135.882 151.386 137.14 150.949 138.338C150.652 138.937 150.577 139.622 150.737 140.271C150.812 140.454 150.929 140.616 151.078 140.743C151.228 140.871 151.406 140.961 151.598 141.006C151.871 141.072 152.151 141.103 152.432 141.099C154.372 141.145 155.57 141.125 155.57 141.006Z" fill="#263238"/>
<path d="M154.709 162.428C161.265 162.391 167.682 160.535 173.245 157.065C173.245 157.065 169.161 167.3 155.219 166.294L154.709 162.428Z" fill="#884C3B"/>
<path d="M156 145.672C156.38 145.008 156.904 144.437 157.532 144.001C158.161 143.564 158.879 143.274 159.635 143.15C160.074 143.099 160.519 143.183 160.91 143.39C161.301 143.597 161.62 143.917 161.826 144.309C162.046 144.821 162.14 145.38 162.098 145.937C162.057 146.493 161.882 147.032 161.588 147.506C161.305 148.005 160.882 148.41 160.371 148.672C159.861 148.933 159.285 149.039 158.714 148.976C157.771 148.728 156.923 148.205 156.278 147.473C156.058 147.297 155.886 147.07 155.775 146.811C155.718 146.645 155.7 146.468 155.721 146.293C155.743 146.119 155.805 145.952 155.901 145.805" fill="#884C3B"/>
<path d="M161.263 142.224C160.945 142.224 160.985 144.296 159.237 145.812C157.49 147.328 155.265 147.136 155.265 147.44C155.265 147.573 155.769 147.831 156.709 147.838C157.923 147.825 159.094 147.387 160.019 146.6C160.907 145.837 161.467 144.76 161.581 143.594C161.647 142.72 161.402 142.211 161.263 142.224Z" fill="#263238"/>
<path d="M160.866 119.087C161.118 119.583 162.991 119.087 165.255 119.087C167.519 119.087 169.406 119.471 169.651 118.968C169.75 118.729 169.379 118.306 168.592 117.869C167.543 117.372 166.396 117.121 165.236 117.134C164.076 117.148 162.935 117.426 161.899 117.948C161.124 118.392 160.76 118.849 160.866 119.087Z" fill="#263238"/>
<path d="M142.84 124.833C143.27 125.263 144.905 124.767 146.878 124.694C148.851 124.621 150.532 124.899 150.909 124.429C151.068 124.204 150.797 123.767 150.055 123.383C149.028 122.88 147.887 122.652 146.745 122.721C145.614 122.758 144.513 123.089 143.548 123.681C142.873 124.171 142.654 124.628 142.84 124.833Z" fill="#263238"/>
<path d="M199.586 148.056C198.388 141.886 194.641 122.119 189.12 111.811C183.599 101.504 177.29 97.4327 171.16 95.9234C168.833 95.291 166.382 95.2694 164.044 95.8608C161.706 96.4522 159.561 97.6367 157.814 99.2996C155.12 101.828 154.345 109.018 154.345 109.018C154.345 109.018 169.128 111.937 174.271 120.206C180.19 129.699 181.679 134.511 181.679 134.511L183.665 139.735C183.665 139.735 185.228 165.162 184.711 170.187L206.915 178.203C202.148 168.399 200.791 154.246 199.586 148.056Z" fill="#263238"/>
<path d="M155.252 108.905C155.252 108.905 145.508 108.402 142.621 117.968C141.297 122.297 141.165 134.882 141.165 134.882C141.165 134.882 139.08 124.905 139.397 119.272C139.715 113.638 142.356 106.469 146.573 102.431C150.671 98.5049 154.167 96.6248 161.667 96.9029C161.667 96.9029 160.595 99.0345 158.748 101.921C157.821 103.371 156.364 103.529 155.252 108.905Z" fill="#263238"/>
<path d="M181.593 135.246C181.679 132.161 184.983 130.03 187.684 131.513C189.166 132.32 190.332 133.995 190.272 137.272C190.12 145.991 181.395 144.038 181.381 143.786C181.388 143.654 181.501 138.854 181.593 135.246Z" fill="#B5715A"/>
<path d="M184.102 140.529C184.142 140.529 184.254 140.641 184.513 140.761C184.87 140.921 185.275 140.938 185.645 140.807C186.571 140.482 187.372 139.033 187.445 137.497C187.479 136.749 187.345 136.002 187.055 135.312C186.98 135.038 186.838 134.787 186.643 134.58C186.448 134.374 186.205 134.218 185.936 134.127C185.762 134.076 185.576 134.088 185.41 134.16C185.244 134.233 185.109 134.362 185.029 134.524C184.91 134.769 184.963 134.942 184.916 134.955C184.87 134.968 184.731 134.809 184.811 134.452C184.859 134.234 184.983 134.042 185.161 133.909C185.404 133.734 185.706 133.66 186.002 133.704C186.36 133.779 186.692 133.946 186.967 134.187C187.241 134.428 187.45 134.736 187.571 135.081C187.927 135.844 188.093 136.682 188.054 137.523C187.968 139.278 187.035 140.906 185.77 141.25C185.535 141.314 185.289 141.323 185.049 141.279C184.81 141.234 184.583 141.136 184.387 140.992C184.115 140.741 184.076 140.542 184.102 140.529Z" fill="#884C3B"/>
<path d="M165.129 95.6523C165.129 95.7185 164.136 95.9304 162.627 96.599C160.659 97.4714 158.966 98.8627 157.728 100.624C156.512 102.398 155.562 104.341 154.908 106.39C154.378 107.959 154.114 108.959 154.054 108.939C154.066 108.697 154.106 108.457 154.173 108.224C154.266 107.767 154.445 107.118 154.676 106.317C155.271 104.212 156.208 102.219 157.45 100.419C158.152 99.4309 159 98.5558 159.966 97.8237C160.755 97.2345 161.616 96.7474 162.528 96.3739C162.875 96.2262 163.231 96.1002 163.593 95.9966C163.861 95.9025 164.136 95.8273 164.414 95.7715C164.646 95.7003 164.887 95.6602 165.129 95.6523Z" fill="#455A64"/>
<path d="M195.72 163.169C195.686 163.111 195.659 163.049 195.641 162.984C195.588 162.845 195.528 162.659 195.442 162.434C195.196 161.722 195.006 160.992 194.873 160.25C194.484 157.51 194.484 154.728 194.873 151.988C195.052 150.247 195.303 148.347 195.469 146.308C195.683 144.144 195.641 141.962 195.343 139.807C194.945 137.44 194.115 135.167 192.894 133.101C191.581 130.88 189.966 128.853 188.094 127.077C184.261 123.39 179.786 120.881 175.748 118.683C171.71 116.485 167.976 114.592 165.023 112.725C162.686 111.256 160.43 109.663 158.264 107.952C157.496 107.343 156.94 106.853 156.53 106.522L156.086 106.138C155.994 106.045 155.941 105.999 155.947 105.992L156.113 106.111C156.232 106.204 156.384 106.317 156.57 106.469L158.35 107.846C159.899 109.024 162.183 110.686 165.156 112.52C168.128 114.353 171.815 116.253 175.9 118.418C179.985 120.583 184.453 123.112 188.332 126.845C190.225 128.644 191.861 130.696 193.191 132.942C194.427 135.049 195.264 137.365 195.661 139.774C195.951 141.954 195.983 144.161 195.753 146.348C195.575 148.4 195.31 150.32 195.091 152.021C194.69 154.745 194.656 157.51 194.992 160.243C195.114 160.981 195.282 161.711 195.495 162.428C195.568 162.659 195.621 162.838 195.661 162.984C195.686 163.044 195.706 163.106 195.72 163.169Z" fill="#455A64"/>
<path d="M55.6808 262.396C55.8335 262.258 56.008 262.146 56.1971 262.065C56.6945 261.798 57.2152 261.576 57.7528 261.403C59.5391 260.83 61.443 260.727 63.2805 261.105C65.1145 261.491 66.8206 262.336 68.2389 263.561C68.6632 263.929 69.0532 264.335 69.404 264.773C69.6556 265.091 69.7681 265.276 69.7483 265.289C69.7284 265.302 69.1723 264.627 68.08 263.753C66.6655 262.605 64.9957 261.813 63.2111 261.444C61.4266 261.075 59.5796 261.141 57.8257 261.635C56.4752 262.019 55.7073 262.456 55.6808 262.396Z" fill="#263238"/>
<path d="M65.2467 257.465C65.6969 257.694 66.1062 257.996 66.4582 258.359C68.2592 260.009 69.5308 262.156 70.1124 264.528C70.2599 265.011 70.3291 265.514 70.3176 266.018C69.8782 264.405 69.2493 262.849 68.4442 261.384C67.5373 259.955 66.464 258.64 65.2467 257.465Z" fill="#263238"/>
<path d="M115.797 314.257C115.797 314.257 122.827 280.025 137.729 273.405L196.813 271.671C196.813 271.671 216.335 284.745 219.46 314.449L115.797 314.257Z" fill="#263238"/>
<path d="M155.001 168.445C155.001 168.445 156.742 179.401 168.433 178.077C180.124 176.753 184.698 170.219 184.698 170.219L200.943 175.429L203.499 206.855C194.235 224.895 189.038 244.746 188.273 265.011C188.14 268.407 188.021 272.134 185.757 274.67C184.367 276.232 182.354 277.086 180.368 277.761C174.045 279.877 167.357 280.686 160.711 280.139C154.065 279.591 147.6 277.699 141.708 274.577C141.708 274.577 136.743 220.81 137.352 219.287C137.961 217.764 146.09 172.53 146.09 172.53L155.001 168.445Z" fill="#E0E0E0"/>
<path d="M137.729 170.928C137.729 170.928 127.402 171.656 124.635 173.04C121.868 174.423 85.6627 219.843 84.2527 220.538C83.1008 221.114 61.5527 241.139 52.662 260.523C50.9078 264.343 49.5506 269.791 52.437 273.405C52.437 273.405 62.8171 260.371 69.0532 266.09L96.9366 237.829L126.065 220.843L137.729 170.928Z" fill="#455A64"/>
<g opacity="0.3">
<path opacity="0.3" d="M148.288 259.696C160.548 236.023 160.548 201.718 154.703 170.22L149.46 214.978L148.288 259.696Z" fill="black"/>
</g>
<path d="M121.848 179.229L122.768 217.625C122.768 217.625 126.442 260.165 127.15 260.165C127.859 260.165 129.917 275.153 127.15 281.839C124.383 288.526 115.393 297.522 115.393 297.522L126.694 309.743C126.694 309.743 137.286 292.908 140.529 282.071C143.773 271.234 152.75 254.869 154.133 224.417C155.517 193.965 154.948 164.255 154.948 164.255L146.064 170.69L137.524 170.868L121.848 179.229Z" fill="#455A64"/>
<path d="M142.33 280.026C142.33 280.026 142.33 279.9 142.423 279.662C142.515 279.423 142.588 279.059 142.721 278.602L143.839 274.518C144.779 270.963 146.11 265.806 147.341 259.351C147.957 256.128 148.546 252.573 148.95 248.759C149.142 246.84 149.288 244.847 149.334 242.801C149.398 240.693 149.283 238.582 148.99 236.493C148.826 235.414 148.572 234.351 148.228 233.315C147.877 232.262 147.566 231.19 147.096 230.144L146.434 228.555L145.719 226.98C145.256 225.921 144.726 224.875 144.203 223.815C142.085 219.598 139.609 215.368 136.921 211.131C134.604 207.471 132.228 203.942 129.818 200.606L129.725 200.473L129.851 200.374L147.136 186.187L147.249 186.452L132.023 188.206L131.718 188.239L131.91 188.001C136.259 182.705 139.788 178.362 142.231 175.364L145.044 171.941L145.786 171.054C145.958 170.855 146.05 170.763 146.05 170.763L145.812 171.08L145.104 171.987L142.33 175.383L132.102 188.094L131.99 187.895L147.215 186.088L147.725 186.028L147.328 186.353L130.063 200.586L130.096 200.354C132.512 203.697 134.889 207.226 137.213 210.893C139.861 215.137 142.376 219.373 144.495 223.617C145.024 224.676 145.554 225.722 146.017 226.794L146.732 228.377L147.394 229.972C147.844 231.025 148.175 232.104 148.533 233.163C148.875 234.217 149.13 235.297 149.294 236.393C149.586 238.501 149.697 240.629 149.625 242.755C149.579 244.821 149.427 246.82 149.228 248.746C148.811 252.599 148.208 256.154 147.58 259.385C146.309 265.846 144.932 270.996 143.965 274.544C143.469 276.312 143.065 277.682 142.78 278.609C142.634 279.059 142.529 279.41 142.449 279.662C142.37 279.913 142.33 280.026 142.33 280.026Z" fill="#263238"/>
<path d="M184.698 160.793C184.698 160.793 190.418 169.611 191.013 170.22C191.013 170.22 215.176 177.058 216.606 179.938C222.485 191.814 217.738 196.084 216.606 212.409C215.196 232.699 208.404 260.94 208.404 260.94C208.404 260.94 217.963 297.781 218.996 299.813C220.029 301.845 186.459 314.192 182.897 309.544C179.336 304.897 176.549 288.89 176.549 288.89C176.549 288.89 173.239 256.366 174.516 243.411C175.794 230.455 181.798 217.136 183.917 201.486C186.075 184.949 184.698 160.793 184.698 160.793Z" fill="#455A64"/>
<path d="M175.728 251.559C175.735 251.398 175.76 251.238 175.801 251.083C175.873 250.745 175.966 250.295 176.079 249.759C176.191 249.222 176.37 248.435 176.549 247.634C176.727 246.833 177.098 245.899 177.423 244.886C179.279 239.638 181.797 234.648 184.916 230.038C188.032 225.43 191.545 221.104 195.416 217.109C196.905 215.579 198.163 214.395 199.057 213.6C199.5 213.203 199.864 212.938 200.109 212.713C200.232 212.611 200.365 212.522 200.506 212.448C200.506 212.448 198.52 214.183 195.594 217.274C191.789 221.306 188.316 225.639 185.208 230.23C182.109 234.813 179.571 239.751 177.648 244.939C177.317 245.945 176.986 246.852 176.734 247.66C176.482 248.468 176.357 249.176 176.211 249.765C176.065 250.354 175.953 250.758 175.867 251.089C175.832 251.249 175.785 251.406 175.728 251.559Z" fill="#263238"/>
<path d="M190.987 170.63C191.085 170.77 191.167 170.921 191.232 171.08C191.391 171.411 191.603 171.855 191.894 172.404C192.443 173.596 193.218 175.264 194.178 177.309C194.659 178.351 195.18 179.481 195.74 180.699L196.614 182.586C196.905 183.248 197.236 183.91 197.481 184.611C198.54 187.445 199.705 190.569 200.93 193.807L203.671 201.168L203.737 201.347L203.552 201.386L197.097 202.783L197.19 202.585L200.434 209.708C200.798 210.542 201.096 211.21 201.314 211.694L201.533 212.223C201.562 212.282 201.582 212.344 201.592 212.409C201.552 212.358 201.519 212.302 201.493 212.243L201.235 211.733L200.288 209.781L196.938 202.704L196.859 202.545L197.038 202.505L203.479 201.069L203.366 201.287L200.586 193.965C199.374 190.702 198.223 187.597 197.17 184.77C196.925 184.049 196.601 183.393 196.309 182.738L195.462 180.845L193.966 177.415C193.059 175.357 192.311 173.675 191.781 172.477L191.205 171.153C191.118 170.985 191.045 170.81 190.987 170.63Z" fill="#263238"/>
<path d="M206.895 256.816C206.895 256.816 219.254 269.176 225.61 268.467C231.965 267.759 240.266 253.989 240.266 249.223C240.266 244.456 234.308 213.726 234.308 213.726L236.777 202.161L213.607 201.718L208.973 237.34L206.895 256.816Z" fill="#455A64"/>
<path d="M221.929 174.251C221.913 174.34 221.886 174.427 221.849 174.509L221.571 175.244L221.108 176.436C220.903 176.899 220.678 177.435 220.413 178.031C219.877 179.229 219.175 180.679 218.294 182.321C217.414 183.963 216.308 185.783 214.984 187.716C211.872 192.258 208.185 196.379 204.015 199.976C201.564 202.113 198.928 204.027 196.137 205.696C193.142 207.514 189.867 208.827 186.446 209.582C183.002 210.33 179.429 210.243 176.026 209.33C174.412 208.883 172.869 208.214 171.438 207.344C170.075 206.499 168.842 205.46 167.777 204.259C165.878 202.006 164.245 199.54 162.912 196.911C161.588 194.495 160.383 192.224 159.376 190.106C158.459 188.202 157.661 186.243 156.987 184.241C156.486 182.726 156.097 181.177 155.822 179.607C155.582 178.268 155.475 176.908 155.504 175.548C155.511 175.639 155.511 175.73 155.504 175.82C155.504 176.012 155.504 176.27 155.55 176.601C155.624 177.602 155.75 178.599 155.927 179.587C156.224 181.147 156.631 182.685 157.146 184.188C157.837 186.174 158.646 188.117 159.568 190.007C160.588 192.112 161.806 194.369 163.137 196.779C164.466 199.385 166.092 201.828 167.982 204.061C169.032 205.232 170.245 206.247 171.584 207.073C172.991 207.921 174.508 208.571 176.092 209.006C179.443 209.898 182.958 209.98 186.346 209.244C189.731 208.494 192.971 207.197 195.939 205.405C198.714 203.748 201.339 201.852 203.783 199.738C207.942 196.167 211.628 192.08 214.753 187.577C216.077 185.657 217.176 183.837 218.103 182.228C219.029 180.619 219.711 179.163 220.267 177.978C220.539 177.382 220.777 176.853 220.989 176.396L221.479 175.217L221.79 174.496C221.827 174.409 221.873 174.327 221.929 174.251Z" fill="#263238"/>
<path d="M217.037 175.098C216.92 175.254 216.789 175.398 216.646 175.529L215.494 176.707L211.178 180.99L204.803 187.345C203.524 188.588 202.122 189.697 200.619 190.655C198.995 191.713 197.144 192.373 195.217 192.582C193.277 192.81 191.314 192.433 189.597 191.503C188.805 191.054 188.112 190.45 187.558 189.728C187.004 189.006 186.601 188.18 186.373 187.299C185.982 185.726 185.8 184.107 185.83 182.486C185.83 180.977 185.883 179.574 185.909 178.289C186.032 176.276 185.89 174.255 185.486 172.278C185.346 171.75 185.157 171.236 184.923 170.743C184.836 170.57 184.759 170.394 184.691 170.213C184.804 170.369 184.902 170.535 184.983 170.709C185.248 171.197 185.459 171.712 185.611 172.245C186.072 174.227 186.255 176.264 186.154 178.296C186.154 179.58 186.095 180.984 186.115 182.486C186.099 184.077 186.288 185.664 186.677 187.206C186.897 188.047 187.284 188.834 187.814 189.522C188.343 190.21 189.006 190.784 189.762 191.212C191.422 192.1 193.314 192.458 195.184 192.238C197.058 192.033 198.857 191.394 200.44 190.371C201.928 189.423 203.317 188.328 204.584 187.101C205.816 185.949 206.915 184.764 208.007 183.731C209.099 182.698 210.099 181.705 211.019 180.812L215.401 176.601L216.6 175.469C216.738 175.337 216.884 175.213 217.037 175.098Z" fill="#263238"/>
<path d="M129.361 265.084C129.34 265.027 129.327 264.966 129.322 264.905L129.242 264.369C129.183 263.873 129.097 263.177 128.984 262.304C128.759 260.477 128.441 257.888 128.051 254.697C127.269 248.276 126.164 239.398 125.125 229.581C124.602 224.669 124.165 219.989 123.801 215.719C123.436 211.449 123.205 207.609 123.066 204.372C122.973 202.757 122.927 201.294 122.887 200.009C122.847 198.725 122.814 197.62 122.814 196.699C122.814 195.779 122.814 195.117 122.814 194.614V194.078C122.808 194.016 122.808 193.954 122.814 193.893C122.823 193.952 122.823 194.012 122.814 194.071C122.814 194.217 122.814 194.396 122.847 194.614C122.847 195.117 122.874 195.812 122.927 196.699C122.927 197.6 122.993 198.685 123.059 200.009C123.125 201.333 123.185 202.757 123.284 204.365C123.456 207.596 123.754 211.436 124.098 215.699C124.443 219.962 124.913 224.642 125.422 229.555C126.468 239.365 127.534 248.243 128.249 254.671C128.593 257.868 128.911 260.47 129.077 262.29C129.163 263.171 129.229 263.866 129.275 264.369C129.275 264.59 129.289 264.769 129.315 264.905C129.34 264.962 129.356 265.022 129.361 265.084Z" fill="#263238"/>
<path d="M236.804 202.162H235.109L230.356 202.115L213.608 201.864L213.766 201.738C212.826 206.709 212.065 212.376 211.476 218.367C210.43 229.363 209.993 239.359 209.457 246.582C209.199 250.196 208.954 253.116 208.795 255.128C208.695 256.121 208.609 256.896 208.556 257.452C208.523 257.697 208.504 257.895 208.484 258.054C208.479 258.121 208.468 258.188 208.451 258.253C208.442 258.185 208.442 258.116 208.451 258.048C208.451 257.895 208.451 257.69 208.484 257.445C208.53 256.889 208.59 256.121 208.662 255.122C208.815 253.136 209.02 250.176 209.245 246.569C209.722 239.346 210.119 229.357 211.171 218.334C211.754 212.33 212.528 206.657 213.495 201.678V201.546H213.627L230.369 201.923L235.129 202.056L236.387 202.102H236.711C236.771 202.148 236.804 202.155 236.804 202.162Z" fill="#263238"/>
<path d="M231.144 210.556C232.146 210.556 232.958 209.743 232.958 208.742C232.958 207.74 232.146 206.928 231.144 206.928C230.142 206.928 229.33 207.74 229.33 208.742C229.33 209.743 230.142 210.556 231.144 210.556Z" fill="#E0E0E0"/>
<path d="M232.958 208.742C232.91 208.601 232.87 208.457 232.839 208.311C232.72 207.943 232.489 207.621 232.177 207.391C231.949 207.229 231.685 207.126 231.408 207.09C231.131 207.054 230.849 207.087 230.588 207.186C230.271 207.305 229.998 207.517 229.806 207.795C229.613 208.073 229.51 208.404 229.51 208.742C229.51 209.08 229.613 209.41 229.806 209.688C229.998 209.966 230.271 210.179 230.588 210.297C230.85 210.395 231.132 210.427 231.409 210.39C231.686 210.353 231.95 210.249 232.177 210.086C232.49 209.857 232.722 209.535 232.839 209.165C232.87 209.022 232.909 208.88 232.958 208.742C232.958 208.742 233.017 208.901 232.958 209.199C232.87 209.627 232.636 210.011 232.296 210.284C232.04 210.489 231.736 210.625 231.413 210.679C231.089 210.734 230.758 210.705 230.449 210.595C230.074 210.451 229.752 210.197 229.525 209.866C229.297 209.535 229.176 209.143 229.176 208.742C229.176 208.34 229.297 207.948 229.525 207.617C229.752 207.287 230.074 207.032 230.449 206.888C230.758 206.779 231.089 206.75 231.413 206.804C231.736 206.859 232.04 206.995 232.296 207.199C232.637 207.469 232.872 207.852 232.958 208.278C233.024 208.576 232.978 208.742 232.958 208.742Z" fill="#263238"/>
<path d="M179.587 266.388C180.589 266.388 181.401 265.576 181.401 264.575C181.401 263.573 180.589 262.761 179.587 262.761C178.586 262.761 177.773 263.573 177.773 264.575C177.773 265.576 178.586 266.388 179.587 266.388Z" fill="#E0E0E0"/>
<path d="M181.388 264.575C181.388 264.575 181.348 264.416 181.262 264.151C181.144 263.782 180.912 263.46 180.6 263.231C180.351 263.049 180.057 262.94 179.75 262.915C179.443 262.891 179.135 262.951 178.861 263.091C178.586 263.23 178.355 263.443 178.194 263.706C178.033 263.968 177.948 264.27 177.948 264.578C177.948 264.886 178.033 265.188 178.194 265.451C178.355 265.713 178.586 265.926 178.861 266.066C179.135 266.205 179.443 266.266 179.75 266.241C180.057 266.216 180.351 266.107 180.6 265.925C180.912 265.696 181.144 265.374 181.262 265.005C181.348 264.74 181.355 264.575 181.388 264.575C181.429 264.727 181.429 264.887 181.388 265.038C181.305 265.466 181.069 265.849 180.726 266.117C180.472 266.323 180.169 266.459 179.847 266.515C179.525 266.571 179.194 266.543 178.886 266.435C178.509 266.292 178.184 266.038 177.955 265.706C177.726 265.375 177.604 264.981 177.604 264.578C177.604 264.175 177.726 263.782 177.955 263.45C178.184 263.118 178.509 262.864 178.886 262.721C179.194 262.613 179.525 262.586 179.847 262.641C180.169 262.697 180.472 262.834 180.726 263.039C181.069 263.307 181.305 263.69 181.388 264.118C181.43 264.267 181.43 264.426 181.388 264.575Z" fill="#263238"/>
<path d="M185.155 292.213C185.155 292.573 185.048 292.925 184.848 293.224C184.648 293.524 184.363 293.757 184.031 293.895C183.698 294.033 183.332 294.069 182.979 293.999C182.626 293.928 182.301 293.755 182.047 293.5C181.792 293.246 181.619 292.921 181.549 292.568C181.478 292.215 181.514 291.849 181.652 291.516C181.79 291.184 182.023 290.899 182.323 290.699C182.622 290.499 182.974 290.393 183.334 290.393C183.817 290.393 184.28 290.584 184.621 290.926C184.963 291.267 185.155 291.73 185.155 292.213Z" fill="#E0E0E0"/>
<path d="M185.155 292.213C185.122 292.213 185.115 292.048 185.029 291.783C184.913 291.413 184.681 291.09 184.367 290.863C184.175 290.717 183.954 290.614 183.719 290.561C183.483 290.509 183.239 290.508 183.004 290.558C182.768 290.608 182.546 290.709 182.352 290.853C182.159 290.997 181.999 291.181 181.883 291.392C181.768 291.604 181.699 291.838 181.682 292.078C181.665 292.319 181.701 292.56 181.785 292.786C181.87 293.012 182.003 293.216 182.174 293.386C182.346 293.556 182.552 293.686 182.778 293.769C183.04 293.867 183.322 293.899 183.599 293.862C183.876 293.825 184.14 293.72 184.367 293.557C184.682 293.331 184.915 293.008 185.029 292.637C185.115 292.372 185.122 292.207 185.155 292.213C185.197 292.363 185.197 292.521 185.155 292.67C185.073 293.098 184.838 293.482 184.493 293.749C184.237 293.954 183.933 294.091 183.61 294.147C183.287 294.202 182.955 294.175 182.646 294.067C182.269 293.924 181.944 293.67 181.716 293.338C181.487 293.006 181.364 292.613 181.364 292.21C181.364 291.807 181.487 291.413 181.716 291.082C181.944 290.75 182.269 290.496 182.646 290.353C182.955 290.245 183.287 290.218 183.61 290.273C183.933 290.329 184.237 290.466 184.493 290.671C184.838 290.938 185.073 291.321 185.155 291.75C185.196 291.902 185.196 292.062 185.155 292.213Z" fill="#263238"/>
<path d="M234.348 213.726C234.348 213.825 229.595 213.68 223.756 213.415C217.917 213.15 213.164 212.852 213.164 212.753C213.164 212.654 217.917 212.799 223.756 213.071C229.595 213.342 234.348 213.633 234.348 213.726Z" fill="#263238"/>
<path d="M129.6 249.183L122.768 251.91L107.906 214.719C107.073 212.633 105.837 210.731 104.268 209.122C102.7 207.513 100.83 206.229 98.7657 205.343C96.7012 204.457 94.4823 203.986 92.2358 203.958C89.9893 203.929 87.7591 204.343 85.6727 205.176C83.5863 206.01 81.6844 207.246 80.0756 208.814C78.4669 210.382 77.1828 212.252 76.2967 214.317C75.4105 216.381 74.9397 218.6 74.9111 220.847C74.8825 223.093 75.2967 225.323 76.13 227.41L90.9919 264.601L84.16 267.335L69.2915 230.144C68.0996 227.161 67.5068 223.974 67.547 220.762C67.5871 217.551 68.2593 214.379 69.5254 211.427C70.7914 208.475 72.6264 205.802 74.9256 203.56C77.2247 201.317 79.9431 199.55 82.9254 198.358C85.9077 197.166 89.0956 196.573 92.307 196.613C95.5184 196.653 98.6904 197.326 101.642 198.592C107.603 201.149 112.304 205.969 114.711 211.992L129.6 249.183Z" fill="#E0E0E0"/>
<path d="M129.6 249.183L129.295 248.441L128.428 246.263L125.118 238.001C123.675 234.413 121.907 230.057 119.862 224.947C118.838 222.405 117.748 219.69 116.591 216.804C115.38 213.951 114.4 210.773 112.52 207.887C110.57 204.849 107.956 202.293 104.874 200.413C104.47 200.168 104.073 199.917 103.663 199.685L102.378 199.056C101.518 198.644 100.634 198.283 99.7303 197.977C99.2735 197.805 98.7902 197.712 98.3202 197.573C97.8502 197.434 97.3736 197.288 96.8837 197.222C95.9002 197.026 94.9052 196.893 93.9047 196.825C91.8571 196.672 89.7984 196.769 87.7746 197.116L86.2453 197.474L85.4774 197.653L84.7227 197.904L83.2134 198.427C82.7169 198.619 82.2402 198.864 81.7504 199.089C77.7123 200.969 74.2749 203.932 71.8204 207.649C69.865 210.596 68.5785 213.935 68.0513 217.433C67.524 220.93 67.7689 224.5 68.7685 227.893C69.4967 230.196 70.4897 232.467 71.4165 234.777L82.836 263.349L84.3984 267.249L84.1733 267.156L91.0051 264.422L90.9124 264.647C87.9533 257.252 85.067 250.01 82.2535 242.98L78.1094 232.586L76.0836 227.522C75.4281 225.838 75.0201 224.067 74.8722 222.266C74.6397 218.743 75.4873 215.232 77.3017 212.203C77.5024 211.83 77.7234 211.467 77.9637 211.118L78.725 210.098C79.8099 208.815 81.0611 207.681 82.4455 206.729C82.7897 206.49 83.1538 206.298 83.5113 206.067L84.0409 205.755L84.6036 205.497C86.0714 204.792 87.6315 204.297 89.2376 204.028C90.7988 203.781 92.3855 203.739 93.9576 203.902C96.9823 204.254 99.8611 205.396 102.305 207.212C104.62 208.89 106.461 211.138 107.648 213.739C107.787 214.05 107.932 214.361 108.071 214.666C108.211 214.97 108.323 215.295 108.442 215.606L109.184 217.453C109.665 218.68 110.141 219.878 110.614 221.048L115.751 233.95C118.836 241.735 121.252 247.852 122.861 251.877L122.794 251.844L127.958 249.811L129.222 249.322L129.646 249.163L129.249 249.335C128.971 249.447 128.587 249.613 128.004 249.845L122.834 251.937H122.788V251.89C121.159 247.852 118.716 241.775 115.592 234.016C114.029 230.13 112.282 225.821 110.415 221.127L108.978 217.539C108.733 216.93 108.482 216.314 108.237 215.692L107.86 214.752C107.721 214.447 107.582 214.143 107.436 213.838C106.854 212.589 106.125 211.413 105.265 210.336C104.352 209.243 103.312 208.263 102.166 207.417C99.7528 205.646 96.9188 204.534 93.9444 204.193C92.4004 204.039 90.8431 204.083 89.3104 204.325C87.7389 204.596 86.2126 205.084 84.7757 205.775L84.2262 206.027L83.7033 206.338C83.359 206.55 82.9949 206.742 82.6573 206.967C81.9818 207.433 81.3382 207.944 80.7309 208.496C80.1158 209.051 79.5406 209.648 79.0097 210.283L78.2616 211.29C77.9968 211.621 77.8115 211.998 77.5996 212.349C75.823 215.326 74.9941 218.773 75.223 222.233C75.3731 223.999 75.7744 225.736 76.4146 227.39C77.0766 229.064 77.7386 230.759 78.447 232.46L82.5977 242.847L91.2633 264.515L91.3295 264.673L91.1706 264.74C88.9463 265.62 86.6624 266.54 84.3388 267.467L84.1733 267.533L84.1137 267.374L82.5514 263.469C78.639 253.684 74.8258 244.125 71.1385 234.897C70.2316 232.58 69.2452 230.335 68.4905 227.979C67.8267 225.638 67.4924 223.216 67.4975 220.783C67.5535 218.4 67.9298 216.035 68.6163 213.752C69.3267 211.534 70.3308 209.421 71.6019 207.47C74.0817 203.712 77.5528 200.713 81.6312 198.804C82.1343 198.586 82.6176 198.341 83.1207 198.142L84.6433 197.619C84.9015 197.54 85.153 197.441 85.4046 197.368L86.1858 197.189L87.7348 196.832C89.7847 196.478 91.8705 196.38 93.9444 196.54C94.9542 196.61 95.9583 196.747 96.9499 196.951C97.4414 197.041 97.9276 197.158 98.4063 197.302C98.8829 197.447 99.3728 197.54 99.8296 197.712C100.754 198.028 101.66 198.395 102.544 198.811L103.868 199.473C104.278 199.705 104.682 199.97 105.086 200.208C108.197 202.116 110.834 204.706 112.798 207.781C114.691 210.714 115.665 213.905 116.869 216.771L120.127 224.953C122.152 230.057 123.893 234.453 125.323 238.048L128.587 246.31L129.434 248.454C129.514 248.911 129.6 249.183 129.6 249.183Z" fill="#263238"/>
<path d="M125.912 223.685L73.9945 244.44C70.5962 245.798 68.9426 249.654 70.3011 253.053L86.3061 293.088C87.6646 296.486 91.5208 298.14 94.9191 296.781L146.837 276.026C150.235 274.668 151.889 270.812 150.53 267.413L134.525 227.378C133.167 223.98 129.31 222.326 125.912 223.685Z" fill="#8374FF"/>
<g opacity="0.3">
<path opacity="0.3" d="M125.678 223.778L74.228 244.346C70.7007 245.756 68.9844 249.759 70.3945 253.286L86.2127 292.854C87.6228 296.382 91.6254 298.098 95.1527 296.688L146.603 276.12C150.13 274.71 151.847 270.707 150.437 267.18L134.618 227.611C133.208 224.084 129.206 222.368 125.678 223.778Z" fill="black"/>
</g>
<path d="M118.366 226.699L71.0521 245.614C67.664 246.968 66.0154 250.813 67.3698 254.201L83.3895 294.273C84.744 297.662 88.5886 299.31 91.9767 297.956L139.29 279.041C142.678 277.687 144.327 273.842 142.972 270.454L126.953 230.382C125.598 226.994 121.754 225.345 118.366 226.699Z" fill="#8374FF"/>
<g opacity="0.3">
<path opacity="0.3" d="M111.593 254.413C111.055 253.05 110.148 251.863 108.972 250.988C107.796 250.113 106.4 249.583 104.939 249.459C103.479 249.335 102.013 249.621 100.706 250.284C99.3994 250.948 98.304 251.964 97.5433 253.217C96.7827 254.47 96.3869 255.91 96.4006 257.376C96.4143 258.841 96.837 260.274 97.621 261.512C98.405 262.75 99.5191 263.745 100.838 264.385C102.157 265.024 103.628 265.282 105.086 265.131L108.654 274.068C108.867 274.596 109.281 275.017 109.805 275.241C110.328 275.464 110.919 275.471 111.448 275.259C111.709 275.155 111.948 275 112.15 274.804C112.352 274.607 112.513 274.373 112.624 274.114C112.735 273.855 112.795 273.577 112.798 273.295C112.802 273.014 112.75 272.734 112.646 272.472L109.071 263.535C110.427 262.496 111.406 261.043 111.861 259.397C112.316 257.751 112.222 256.001 111.593 254.413Z" fill="black"/>
</g>
<path d="M143.482 271.671C143.389 271.704 139.715 262.601 135.273 251.341C130.831 240.08 127.289 230.918 127.382 230.885C127.475 230.852 131.142 239.954 135.591 251.215C140.039 262.476 143.568 271.638 143.482 271.671Z" fill="#263238"/>
<path d="M111.037 264.29C111.758 263.541 112.385 262.707 112.904 261.807C113.44 260.82 113.799 259.747 113.963 258.636C114.189 257.282 114.088 255.893 113.667 254.586C113.247 253.279 112.52 252.091 111.547 251.123C110.771 250.306 109.857 249.634 108.846 249.137C107.897 248.711 106.902 248.398 105.88 248.203C106.164 248.187 106.448 248.205 106.728 248.256C107.495 248.37 108.241 248.593 108.945 248.918C110.001 249.401 110.96 250.074 111.772 250.904C112.792 251.901 113.553 253.132 113.989 254.49C114.425 255.848 114.523 257.291 114.274 258.696C114.094 259.838 113.701 260.936 113.116 261.933C112.732 262.608 112.253 263.223 111.693 263.76C111.498 263.964 111.277 264.142 111.037 264.29Z" fill="#263238"/>
<path d="M111.348 231.348C111.381 231.434 103.437 234.817 93.6001 238.902C83.7628 242.986 75.7261 246.23 75.7261 246.144C75.7261 246.058 83.637 242.675 93.4809 238.584C103.325 234.493 111.309 231.262 111.348 231.348Z" fill="white"/>
<path d="M98.3135 264.29C98.1342 264.203 97.9691 264.089 97.8236 263.952C97.4131 263.607 97.0404 263.218 96.7115 262.794C95.593 261.391 94.9302 259.68 94.8119 257.89C94.6936 256.099 95.1254 254.316 96.0495 252.778C96.3235 252.315 96.6452 251.883 97.0094 251.487C97.1319 251.331 97.2796 251.197 97.4463 251.09C97.4993 251.136 96.8968 251.752 96.2613 252.897C95.4235 254.413 95.0375 256.137 95.149 257.865C95.2605 259.593 95.8647 261.253 96.8902 262.648C97.6846 263.727 98.3532 264.237 98.3135 264.29Z" fill="white"/>
<path d="M102.61 266.594C102.61 266.693 102.094 266.687 101.491 266.594C100.889 266.501 100.406 266.336 100.425 266.237C100.445 266.137 100.942 266.151 101.544 266.237C102.147 266.323 102.61 266.501 102.61 266.594Z" fill="white"/>
<path d="M81.2273 200.586C80.8532 200.827 80.4664 201.048 80.0688 201.248C79.0202 201.851 78.0218 202.537 77.0832 203.3C73.5191 206.23 70.9887 210.225 69.8638 214.7C68.739 219.174 69.079 223.891 70.8339 228.158C71.1583 228.953 71.3635 229.383 71.3371 229.396C71.2662 229.304 71.2062 229.204 71.1583 229.098C71.0524 228.9 70.8803 228.608 70.7082 228.211C70.199 227.1 69.7957 225.943 69.5033 224.756C68.4954 220.812 68.6634 216.66 69.9868 212.811C71.3102 208.962 73.731 205.585 76.9508 203.095C77.9103 202.338 78.9387 201.673 80.0225 201.109C80.4065 200.904 80.7176 200.778 80.9228 200.685C81.0209 200.642 81.1229 200.609 81.2273 200.586Z" fill="white"/>
<path d="M73.3562 236.022C72.9589 235.459 72.6549 234.835 72.4558 234.175C72.1531 233.55 71.9562 232.879 71.8733 232.189C72.2766 232.749 72.5811 233.374 72.7736 234.036C73.0756 234.662 73.2724 235.333 73.3562 236.022Z" fill="white"/>
<g opacity="0.3">
<path opacity="0.3" d="M122.887 196.905C119.915 205.412 121.384 214.978 124.694 223.385C124.694 223.359 122.966 205.809 122.887 196.905Z" fill="black"/>
</g>
<g opacity="0.3">
<path opacity="0.3" d="M174.933 259.007C178.21 251.606 181.494 244.178 185.717 237.274C189.941 230.369 194.985 223.809 201.44 218.956C203.188 217.632 206.451 215.169 206.451 215.169C206.451 215.169 205.577 213.514 204.717 212.144C203.724 210.555 202.069 207.801 201.195 206.444L205.068 207.219C205.068 207.219 202.42 201.115 202.492 201.526C200.763 201.976 199.01 202.336 197.243 202.605C198.6 205.849 200.043 208.781 201.4 212.025C194.118 217.817 188.16 225.106 183.169 232.812C178.177 240.517 174.722 249.461 174.9 258.63" fill="black"/>
</g>
<path d="M188.776 142.833C188.862 142.76 189.067 142.833 189.299 143.091C189.61 143.491 189.769 143.988 189.749 144.495C189.75 144.86 189.673 145.221 189.524 145.554C189.341 145.958 189.061 146.31 188.71 146.58C188.31 146.896 187.836 147.103 187.332 147.18C186.829 147.258 186.314 147.204 185.838 147.023C185.362 146.842 184.941 146.541 184.615 146.149C184.29 145.757 184.072 145.287 183.983 144.786C183.905 144.39 183.919 143.981 184.023 143.591C184.128 143.201 184.32 142.84 184.585 142.535C184.907 142.146 185.354 141.882 185.85 141.787C186.201 141.741 186.393 141.827 186.419 141.939C186.472 142.178 185.903 142.482 185.592 143.224C185.417 143.6 185.394 144.029 185.525 144.422C185.591 144.648 185.709 144.856 185.869 145.028C186.029 145.201 186.227 145.334 186.447 145.417C186.668 145.5 186.904 145.53 187.138 145.506C187.372 145.481 187.598 145.403 187.796 145.276C188.157 145.073 188.425 144.739 188.544 144.343C188.796 143.581 188.571 142.992 188.776 142.833Z" fill="#E0E0E0"/>
<path d="M69.2253 284.315C69.2253 284.315 71.4828 291.597 72.6479 293.06C73.813 294.523 81.6047 295.311 81.6047 295.311L69.2253 284.315Z" fill="#B5715A"/>
<path d="M78.5595 272.744L82.8824 276.213L95.712 286.103C95.712 286.103 95.6325 288.486 92.7462 287.943C90.4027 287.5 85.206 284.633 85.206 284.633C85.206 284.633 91.3097 290.366 91.5215 293.047V293.537C91.5162 294.131 91.2785 294.699 90.8595 295.119L83.7298 290.36C83.7298 290.36 85.259 293.047 86.7617 295.834C86.9875 296.394 87.061 297.004 86.975 297.602C86.889 298.199 86.6464 298.764 86.2719 299.237L70.3838 285.911L70.2845 275.981L78.5264 272.737" fill="#B5715A"/>
<path d="M76.8713 278.967C77.0756 278.98 77.2765 279.025 77.4671 279.099C77.6525 279.165 77.871 279.265 78.1291 279.377C78.3873 279.49 78.6521 279.655 78.9566 279.827C80.1615 280.542 81.6907 281.701 83.3854 282.972C84.8041 284.075 86.2971 285.079 87.8539 285.977C89.0654 286.639 89.8863 286.891 89.8399 286.951C89.6379 286.937 89.4392 286.892 89.2507 286.818C89.0253 286.753 88.8042 286.673 88.5887 286.58C88.2948 286.468 88.0075 286.34 87.7281 286.196C86.1179 285.353 84.5869 284.367 83.1537 283.25C81.459 281.972 79.9629 280.787 78.8044 280.033L78.0166 279.549L77.3943 279.225C77.21 279.161 77.0343 279.074 76.8713 278.967Z" fill="#884C3B"/>
<path d="M75.415 283.806C75.904 284.039 76.3657 284.325 76.792 284.66C77.6063 285.222 78.7052 286.043 79.8769 286.997C81.0487 287.95 82.0748 288.857 82.7963 289.539C83.2088 289.88 83.5798 290.269 83.9019 290.697C83.4453 290.418 83.0193 290.092 82.6308 289.724L79.6585 287.261L76.6464 284.852C76.2017 284.545 75.7892 284.195 75.415 283.806Z" fill="#884C3B"/>
<path d="M53.986 271.671C53.8735 271.797 54.039 272.035 54.1449 272.26C55.8727 275.868 70.6949 286.116 70.6949 286.116L78.7779 272.34C78.7779 272.34 84.6499 275.18 87.0595 274.524C89.0455 273.982 92.7792 273.578 91.0315 270.096C91.0315 270.096 82.7499 268.573 79.9364 267.362C77.1229 266.15 75.362 265.521 75.362 265.521C72.1489 265.597 68.9385 265.28 65.8027 264.575C65.8027 264.575 60.851 263.879 53.986 271.671Z" fill="#B5715A"/>
<path d="M85.8945 298.912C85.2377 298.47 84.6118 297.983 84.021 297.456C82.8029 296.469 81.2671 295.218 79.5591 293.841C77.8512 292.464 76.2491 291.121 75.1635 290.141C74.614 289.658 74.1771 289.254 73.8792 288.969C73.7137 288.832 73.5668 288.674 73.4423 288.499C74.1021 288.94 74.7303 289.427 75.3223 289.955L79.7776 293.57C81.5187 294.987 83.0876 296.291 84.1733 297.27C84.7227 297.754 85.1663 298.158 85.4576 298.442C85.7488 298.727 85.9143 298.899 85.8945 298.912Z" fill="#884C3B"/>
<path d="M224.828 152.047L229.932 152.848L230.548 148.949L228.562 148.638L228.84 146.864L227 146.573L227.245 145.017L229.37 145.348L229.582 144.024L226.179 143.488L226.258 142.978L226.179 143.488L226.258 142.978C226.286 142.656 226.185 142.336 225.978 142.088C225.771 141.84 225.474 141.684 225.153 141.654C224.832 141.633 224.516 141.736 224.27 141.942C224.023 142.148 223.865 142.441 223.829 142.76C222.84 149.071 221.849 155.375 220.856 161.673L220.062 166.717C218.412 166.762 216.838 167.422 215.65 168.567C214.461 169.712 213.742 171.26 213.636 172.907C213.529 174.554 214.041 176.181 215.072 177.47C216.104 178.759 217.579 179.616 219.209 179.874C220.84 180.131 222.507 179.77 223.886 178.862C225.264 177.953 226.253 176.563 226.659 174.963C227.064 173.363 226.858 171.669 226.08 170.214C225.302 168.758 224.008 167.646 222.452 167.095C223.22 162.24 223.985 157.385 224.749 152.531L224.828 152.047ZM225.113 174.085C224.961 175.046 224.528 175.94 223.868 176.655C223.209 177.369 222.352 177.872 221.407 178.1C220.461 178.327 219.469 178.27 218.557 177.934C217.644 177.598 216.851 177 216.279 176.213C215.706 175.427 215.379 174.489 215.34 173.517C215.301 172.546 215.55 171.584 216.057 170.754C216.564 169.924 217.306 169.263 218.188 168.854C219.071 168.446 220.054 168.308 221.015 168.458C221.656 168.559 222.27 168.785 222.823 169.124C223.375 169.462 223.856 169.907 224.236 170.431C224.617 170.956 224.891 171.55 225.041 172.181C225.191 172.811 225.216 173.465 225.113 174.105V174.085Z" fill="#E0E0E0"/>
<path d="M225.113 174.106C225.152 173.406 225.079 172.704 224.895 172.027C224.669 171.26 224.252 170.564 223.683 170.002C222.959 169.267 222.016 168.786 220.995 168.631L221.082 168.347L222.108 168.797L220.995 168.631C220.127 168.498 219.239 168.607 218.429 168.947C217.619 169.287 216.919 169.845 216.406 170.558C215.893 171.272 215.588 172.113 215.524 172.989C215.46 173.866 215.64 174.742 216.044 175.523C216.467 176.364 217.137 177.057 217.963 177.509C218.66 177.899 219.442 178.108 220.24 178.119C221.038 178.129 221.825 177.94 222.531 177.568C223.494 177.057 224.262 176.243 224.716 175.251C224.869 174.879 225.001 174.499 225.113 174.113C225.128 174.216 225.128 174.321 225.113 174.424C225.063 174.725 224.981 175.02 224.868 175.304C224.445 176.357 223.671 177.232 222.677 177.78C222.087 178.104 221.438 178.306 220.769 178.376C220.1 178.445 219.424 178.38 218.78 178.185C218.136 177.989 217.538 177.667 217.02 177.237C216.502 176.808 216.076 176.279 215.766 175.682C215.334 174.849 215.142 173.912 215.211 172.977C215.279 172.041 215.607 171.143 216.155 170.382C216.704 169.621 217.453 169.027 218.32 168.667C219.186 168.306 220.135 168.193 221.062 168.34L220.976 168.625L219.903 168.135L221.062 168.34C222.139 168.518 223.13 169.044 223.882 169.836C224.46 170.439 224.875 171.18 225.087 171.988C225.218 172.502 225.267 173.034 225.232 173.563C225.213 173.748 225.173 173.93 225.113 174.106Z" fill="#263238"/>
<path d="M224.828 152.048C224.828 152.048 224.828 152.206 224.775 152.524H224.729H224.775C224.59 153.961 223.789 159.25 222.578 167.088L222.505 166.956C224.027 167.526 225.287 168.634 226.048 170.07C226.809 171.506 227.018 173.171 226.636 174.751C226.253 176.331 225.306 177.716 223.972 178.645C222.638 179.574 221.011 179.982 219.397 179.794C217.782 179.605 216.293 178.832 215.21 177.62C214.126 176.409 213.524 174.842 213.516 173.217C213.508 171.592 214.096 170.02 215.168 168.798C216.239 167.576 217.721 166.789 219.334 166.585C219.579 166.545 219.824 166.539 220.062 166.519L219.896 166.664C220.744 161.316 221.558 156.159 222.319 151.326C222.703 148.91 223.074 146.573 223.432 144.335C223.518 143.773 223.61 143.223 223.696 142.674C223.741 142.369 223.885 142.087 224.107 141.873C224.329 141.658 224.615 141.523 224.921 141.489C225.221 141.46 225.522 141.531 225.777 141.692C226.032 141.852 226.227 142.093 226.331 142.376C226.416 142.652 226.416 142.947 226.331 143.223V143.415V143.468L226.046 143.428V143.389V143.296L226.113 142.912L226.391 142.958L226.311 143.468L226.192 143.309L229.595 143.852H229.727V143.984C229.648 144.461 229.581 144.898 229.509 145.308V145.434H229.383L227.258 145.09L227.397 144.991C227.304 145.553 227.225 146.056 227.145 146.546L227.046 146.414L228.893 146.712H228.999V146.824C228.893 147.486 228.8 148.042 228.708 148.592L228.622 148.473L230.608 148.797H230.7V148.89C230.453 150.373 230.232 151.672 230.038 152.789V152.862H229.965L226.199 152.2L225.212 152.028L224.875 151.961H225.192L226.166 152.1L229.992 152.657L229.906 152.716C230.078 151.597 230.27 150.3 230.495 148.817L230.574 148.923L228.588 148.625H228.489V148.526L228.761 146.752L228.853 146.877L227.013 146.593H226.894V146.48C226.967 145.984 227.046 145.481 227.132 144.918V144.799H227.251L229.383 145.123L229.231 145.229C229.303 144.799 229.37 144.362 229.442 143.905L229.555 144.057L226.146 143.528H226.007V143.389L226.086 142.872L226.364 142.919L226.305 143.303V143.395V143.435C225.735 143.342 226.152 143.435 226.02 143.382V143.336V143.144C226.09 142.915 226.09 142.671 226.02 142.442C225.939 142.22 225.786 142.031 225.586 141.905C225.386 141.779 225.15 141.724 224.914 141.747C224.673 141.774 224.447 141.882 224.273 142.052C224.099 142.222 223.987 142.446 223.954 142.687L223.696 144.342L222.604 151.339C221.849 156.172 221.035 161.329 220.201 166.678V166.81H220.055C219.83 166.81 219.592 166.81 219.36 166.87C218.044 167.05 216.816 167.633 215.843 168.537C214.871 169.442 214.202 170.625 213.927 171.925C213.653 173.225 213.786 174.577 214.31 175.798C214.833 177.019 215.721 178.049 216.851 178.746C218.249 179.613 219.927 179.911 221.538 179.58C222.92 179.289 224.168 178.555 225.095 177.491C226.022 176.426 226.576 175.087 226.673 173.679C226.77 172.271 226.406 170.869 225.634 169.687C224.863 168.505 223.727 167.606 222.399 167.128L222.306 167.095V166.995C223.564 159.157 224.431 153.875 224.689 152.431C224.795 152.173 224.828 152.048 224.828 152.048Z" fill="#263238"/>
<path d="M213.588 171.233L221.77 169.081L226.02 169.624C226.406 169.675 226.774 169.824 227.087 170.055C227.401 170.287 227.651 170.594 227.814 170.948L230.568 176.946C230.568 176.946 234.54 180.256 234.083 182.242C233.626 184.228 229.939 202.049 229.939 202.049L218.97 201.718C217.051 199.34 215.897 196.436 215.66 193.39C215.541 190.887 216.494 189.358 216.255 188.034C216.097 187.127 216.659 185.512 216.917 184.267L217.248 183.062L216.52 183.413C216.208 183.566 215.863 183.643 215.515 183.637C215.167 183.632 214.826 183.545 214.518 183.383C214.21 183.222 213.944 182.99 213.742 182.706C213.54 182.423 213.408 182.096 213.356 181.752C213.353 181.688 213.353 181.624 213.356 181.56C213.32 180.855 213.434 180.15 213.691 179.493C213.947 178.836 214.341 178.24 214.845 177.747L218.983 173.682C218.983 173.682 214.409 176.29 213.588 171.233Z" fill="#B5715A"/>
<path d="M227.509 181.182C227.253 181.187 226.997 181.158 226.748 181.096L224.716 180.732L221.704 180.15C221.141 180.044 220.545 179.891 219.943 179.838C219.648 179.79 219.347 179.812 219.062 179.903C218.778 179.994 218.519 180.151 218.308 180.361C217.951 180.863 217.723 181.445 217.646 182.056C217.513 182.672 217.388 183.261 217.268 183.83C217.012 184.808 216.832 185.804 216.732 186.809C216.715 187.139 216.778 187.469 216.915 187.769C217.052 188.07 217.26 188.333 217.52 188.537C217.723 188.668 217.947 188.765 218.182 188.822C218.117 188.84 218.048 188.84 217.983 188.822C217.788 188.805 217.599 188.742 217.434 188.636C217.134 188.438 216.888 188.167 216.72 187.849C216.553 187.531 216.468 187.176 216.474 186.816C216.534 185.786 216.689 184.765 216.937 183.764C217.05 183.195 217.169 182.599 217.295 181.99C217.387 181.314 217.651 180.674 218.063 180.13C218.31 179.881 218.613 179.694 218.947 179.586C219.281 179.478 219.636 179.451 219.983 179.507C220.588 179.584 221.19 179.694 221.783 179.838L224.775 180.5L226.761 180.97C227.018 181.011 227.27 181.082 227.509 181.182Z" fill="#884C3B"/>
<path d="M223.246 190.238C223.246 190.238 223.246 190.576 222.829 190.9C222.563 191.082 222.245 191.173 221.922 191.159C221.514 191.138 221.111 191.06 220.724 190.927C219.671 190.66 218.746 190.032 218.109 189.153C217.792 188.565 217.621 187.91 217.612 187.243C217.603 186.575 217.755 185.915 218.056 185.32C218.313 184.69 218.656 184.1 219.076 183.565C219.296 183.301 219.581 183.098 219.903 182.976C220.216 182.879 220.547 182.857 220.87 182.91C221.903 183.122 222.91 183.443 223.875 183.87C224.525 184.145 225.155 184.463 225.762 184.823C226.004 184.937 226.227 185.086 226.424 185.267C226.424 185.32 225.457 184.737 223.809 184.095C222.854 183.712 221.866 183.419 220.856 183.221C220.581 183.18 220.3 183.202 220.036 183.287C219.776 183.396 219.548 183.569 219.374 183.79C218.982 184.299 218.662 184.858 218.42 185.452C218.14 185.998 217.994 186.603 217.994 187.216C217.994 187.83 218.14 188.435 218.42 188.981C219.008 189.809 219.86 190.414 220.837 190.695C221.201 190.833 221.581 190.924 221.969 190.967C222.256 190.992 222.545 190.93 222.796 190.788C222.993 190.649 223.149 190.459 223.246 190.238Z" fill="#884C3B"/>
<path d="M223.14 189.047C223.14 189.086 222.948 189.199 222.578 189.239C222.094 189.287 221.607 189.194 221.176 188.971C220.744 188.748 220.387 188.404 220.148 187.981C219.969 187.663 219.943 187.431 219.982 187.418C220.022 187.405 220.426 188.199 221.34 188.663C221.913 188.895 222.522 189.025 223.14 189.047Z" fill="#884C3B"/>
<path d="M223.935 191.265C223.882 191.337 223.365 191.033 222.995 190.417C222.624 189.801 222.578 189.199 222.67 189.192C222.763 189.186 222.948 189.682 223.286 190.238C223.624 190.794 224.001 191.185 223.935 191.265Z" fill="#884C3B"/>
<path d="M223.716 197.335C223.26 196.402 223.039 195.371 223.072 194.332C223.105 193.294 223.393 192.279 223.908 191.377C223.674 192.35 223.51 193.339 223.418 194.336C223.445 195.342 223.544 196.344 223.716 197.335Z" fill="#884C3B"/>
<path d="M223.511 191.914C222.55 192.293 221.675 192.86 220.936 193.582C220.197 194.304 219.61 195.166 219.208 196.118C219.201 195.8 219.274 195.486 219.42 195.204C219.714 194.501 220.147 193.864 220.691 193.331C221.235 192.798 221.881 192.382 222.591 192.106C222.876 191.963 223.193 191.896 223.511 191.914Z" fill="#884C3B"/>
<path d="M220.148 178.282C220.247 178.282 220.3 178.62 220.188 179.004C220.075 179.388 219.857 179.666 219.771 179.6C219.685 179.533 219.771 179.255 219.857 178.938C219.943 178.62 220.055 178.276 220.148 178.282Z" fill="#884C3B"/>
<path d="M229.879 178.402C229.308 178.162 228.761 177.869 228.244 177.528C227.251 176.959 225.901 176.144 224.425 175.224C223.746 174.785 223.028 174.41 222.28 174.105C221.673 173.868 221.024 173.756 220.373 173.774C219.771 173.816 219.184 173.978 218.645 174.251C218.645 174.251 218.751 174.099 219.036 173.933C219.442 173.703 219.894 173.566 220.36 173.529C221.047 173.478 221.738 173.572 222.386 173.807C223.163 174.101 223.907 174.479 224.603 174.933C226.086 175.846 227.417 176.694 228.37 177.323C228.904 177.637 229.409 177.998 229.879 178.402Z" fill="#884C3B"/>
<path d="M224.822 152.26C224.872 150.758 225.036 149.262 225.312 147.784C225.472 146.291 225.75 144.812 226.146 143.362C226.095 144.864 225.931 146.36 225.656 147.837C225.491 149.331 225.212 150.809 224.822 152.26Z" fill="#263238"/>
<g opacity="0.3">
<path opacity="0.3" d="M226.146 143.587C226.494 144.975 226.561 146.419 226.341 147.834C226.122 149.249 225.621 150.605 224.868 151.822C225.345 149.406 225.821 146.136 226.146 143.587Z" fill="black"/>
</g>
<path d="M299.449 261.629C297.909 260.146 296.019 259.074 293.955 258.513C291.892 257.951 289.72 257.919 287.64 258.418C285.56 258.918 283.64 259.933 282.056 261.37C280.472 262.807 279.275 264.619 278.576 266.641L280.086 272.479C280.661 270.493 281.893 268.567 283.793 267.746C285.693 266.925 288.063 267.382 290.088 268.117C292.114 268.852 294.1 269.831 296.252 269.964C298.403 270.096 300.826 269.077 301.468 267.025C302.071 265.091 300.905 263.033 299.449 261.629Z" fill="#FF98B2"/>
<g opacity="0.3">
<path opacity="0.3" d="M299.449 261.629C297.909 260.146 296.019 259.074 293.955 258.513C291.892 257.951 289.72 257.919 287.64 258.418C285.56 258.918 283.64 259.933 282.056 261.37C280.472 262.807 279.275 264.619 278.576 266.641L280.086 272.479C280.661 270.493 281.893 268.567 283.793 267.746C285.693 266.925 288.063 267.382 290.088 268.117C292.114 268.852 294.1 269.831 296.252 269.964C298.403 270.096 300.826 269.077 301.468 267.025C302.071 265.091 300.905 263.033 299.449 261.629Z" fill="black"/>
</g>
<path d="M263.052 281.112C259.901 278.12 260.06 272.903 261.629 268.845C263.198 264.787 266.64 261.676 270.473 259.623C274.218 257.657 278.359 256.564 282.586 256.426C286.813 256.288 291.017 257.11 294.881 258.829C292.989 258.911 291.146 259.455 289.513 260.414C287.88 261.373 286.507 262.718 285.514 264.33C283.786 267.203 283.402 270.685 281.972 273.717C280.364 277.137 277.506 279.81 273.986 281.186C270.467 282.562 266.553 282.535 263.052 281.112Z" fill="#FFB7C9"/>
<path d="M261.536 263.112C258.048 258.988 257.564 252.374 258.094 246.992C258.624 241.61 259.855 236.208 259.008 230.873C258.504 227.708 257.28 224.69 256.869 221.519C256.459 218.348 257.041 214.753 259.517 212.707C262.344 210.351 266.799 210.907 269.732 213.118C272.665 215.329 274.366 218.804 275.624 222.267C278.358 229.866 279.364 238.3 277.113 246.066C274.862 253.831 269.6 260.769 261.887 263.112" fill="#CDC7FF"/>
<path d="M259.862 296.933C259.852 296.775 259.852 296.615 259.862 296.457C259.862 296.146 259.862 295.689 259.862 295.093C259.908 293.915 260.02 292.2 260.285 290.101C260.59 287.651 261.032 285.22 261.609 282.819C262.324 279.86 263.438 277.012 264.919 274.352C266.415 271.701 268.246 269.254 270.367 267.071C272.099 265.287 274.016 263.693 276.087 262.317C276.954 261.715 277.802 261.258 278.53 260.834C279.258 260.411 279.92 260.126 280.456 259.868L281.714 259.338C281.855 259.267 282.004 259.211 282.158 259.173C282.021 259.255 281.88 259.328 281.734 259.391L280.503 259.967C279.98 260.239 279.338 260.576 278.603 260.973C277.868 261.371 277.06 261.88 276.2 262.489C271.647 265.592 267.873 269.704 265.171 274.505C261.96 280.119 261.08 286.024 260.444 290.161C260.153 292.253 260.007 293.954 259.928 295.133C259.895 295.702 259.868 296.159 259.848 296.49C259.866 296.637 259.87 296.785 259.862 296.933Z" fill="#263238"/>
<path d="M229.714 246.854C223.253 250.753 223.279 254.301 224.352 257.644C225.424 260.987 229.396 263.324 232.686 262.066C234.547 261.358 235.891 259.743 237.042 258.094C238.194 256.446 239.273 254.731 240.882 253.566C241.991 252.745 243.36 252.355 244.735 252.467L229.714 246.854Z" fill="#FFDA98"/>
<g opacity="0.3">
<path opacity="0.3" d="M229.714 246.854C223.253 250.753 223.279 254.301 224.352 257.644C225.424 260.987 229.396 263.324 232.686 262.066C234.547 261.358 235.891 259.743 237.042 258.094C238.194 256.446 239.273 254.731 240.882 253.566C241.991 252.745 243.36 252.355 244.735 252.467L229.714 246.854Z" fill="black"/>
</g>
<path d="M224.802 251.302C226.49 248.971 230.667 248.29 233.302 249.455C235.937 250.62 237.87 252.93 239.598 255.241C241.326 257.551 243.007 259.981 245.397 261.583C247.787 263.185 251.136 263.767 253.52 262.152C254.281 261.585 254.918 260.869 255.393 260.047C255.868 259.225 256.17 258.315 256.28 257.372C256.49 255.487 256.359 253.579 255.896 251.739C255.327 249.031 254.4 246.204 252.229 244.457C249.812 242.543 246.463 242.471 243.378 242.55C239.836 242.669 236.248 242.934 232.925 244.159C229.602 245.383 226.212 248.031 224.802 251.282" fill="#FFDA98"/>
<path d="M254.493 291.757C254.493 291.757 254.493 291.711 254.493 291.618V291.201C254.493 290.81 254.46 290.274 254.44 289.599C254.4 288.182 254.34 286.17 254.268 283.7C254.195 281.231 254.089 278.246 253.91 274.962C253.731 271.678 253.48 268.057 252.983 264.297C252.774 262.466 252.415 260.655 251.911 258.882C250.909 255.764 249.382 252.84 247.396 250.236C246.566 249.169 245.654 248.169 244.669 247.244C243.227 245.909 241.596 244.794 239.829 243.934C239.518 243.788 239.24 243.649 238.995 243.55L238.333 243.305L237.949 243.146C237.863 243.107 237.817 243.087 237.823 243.08L237.956 243.12L238.353 243.246L239.015 243.471C239.267 243.563 239.545 243.696 239.869 243.835C241.665 244.662 243.326 245.755 244.794 247.079C245.797 248.003 246.725 249.006 247.568 250.077C248.534 251.323 249.387 252.653 250.117 254.049C250.923 255.579 251.588 257.179 252.103 258.829C252.616 260.614 252.979 262.439 253.189 264.284C253.692 268.064 253.923 271.678 254.095 274.969C254.268 278.259 254.34 281.231 254.393 283.72C254.446 286.209 254.466 288.228 254.473 289.619V291.227C254.473 291.393 254.473 291.532 254.473 291.644C254.483 291.681 254.49 291.719 254.493 291.757Z" fill="#263238"/>
<path d="M256.816 294.676C256.512 293.77 256.275 292.843 256.108 291.902C255.663 289.33 255.565 286.709 255.817 284.111C256.21 280.259 257.036 276.464 258.279 272.797C259.603 268.64 261.404 264.191 262.913 259.418C263.671 257.098 264.29 254.735 264.767 252.341C265.201 250.113 265.517 247.864 265.714 245.602C266.005 241.761 266.074 237.906 265.919 234.057C265.806 230.747 265.634 228.099 265.522 226.265C265.469 225.358 265.429 224.65 265.396 224.147C265.396 223.915 265.396 223.736 265.396 223.597V223.405C265.416 223.465 265.427 223.528 265.429 223.591C265.429 223.73 265.429 223.915 265.482 224.14C265.522 224.643 265.581 225.352 265.661 226.258C265.806 228.092 266.011 230.753 266.15 234.044C266.338 237.905 266.289 241.774 266.005 245.629C265.825 247.905 265.523 250.17 265.098 252.414C264.622 254.819 264.003 257.193 263.244 259.524C261.702 264.317 259.895 268.759 258.557 272.903C257.312 276.552 256.469 280.325 256.042 284.157C255.776 286.741 255.845 289.349 256.247 291.916C256.406 292.823 256.551 293.524 256.677 293.988C256.737 294.213 256.777 294.391 256.81 294.524C256.816 294.574 256.819 294.625 256.816 294.676Z" fill="#263238"/>
<path d="M276.994 293.048H238.459L237.579 285.627H276.994V293.048Z" fill="#455A64"/>
<path d="M242.597 292.2L247.409 314.45H268.348L272.857 292.2H242.597Z" fill="#455A64"/>
<path d="M276.987 293.048C276.987 293.147 268.521 293.207 258.074 293.173C247.628 293.14 239.148 293.041 239.148 292.942C239.148 292.842 247.621 292.776 258.074 292.809C268.527 292.842 276.994 292.942 276.987 293.048Z" fill="#455A64"/>
<path d="M270.758 302.534C269.677 301.72 268.509 301.03 267.276 300.475C265.933 299.901 264.503 299.558 263.046 299.462C261.257 299.423 259.478 299.736 257.809 300.382C256.12 301.046 254.394 301.61 252.639 302.07C251.165 302.326 249.658 302.326 248.184 302.07C247.189 301.915 246.223 301.612 245.317 301.17C245.076 301.041 244.843 300.895 244.622 300.733C244.477 300.621 244.397 300.561 244.41 300.548C244.424 300.535 244.748 300.746 245.384 301.038C246.297 301.443 247.261 301.724 248.25 301.872C249.695 302.079 251.164 302.05 252.599 301.786C254.332 301.305 256.04 300.737 257.717 300.084C259.428 299.419 261.257 299.108 263.092 299.171C265.594 299.372 267.985 300.291 269.977 301.819C270.192 301.986 270.398 302.165 270.592 302.355C270.698 302.468 270.758 302.534 270.758 302.534Z" fill="white"/>
<path d="M277.332 293.074C277.332 293.18 268.666 293.26 257.975 293.26C247.283 293.26 238.618 293.18 238.618 293.074C238.618 292.968 247.283 292.896 257.975 292.896C268.666 292.896 277.332 292.975 277.332 293.074Z" fill="#263238"/>
</svg>
