<svg width="32" height="32" viewBox="0 0 32 32" fill="none" xmlns="http://www.w3.org/2000/svg">
<path d="M16.0002 30.6673C24.1003 30.6673 30.6668 24.1008 30.6668 16.0007C30.6668 7.90047 24.1003 1.33398 16.0002 1.33398C7.89999 1.33398 1.3335 7.90047 1.3335 16.0007C1.3335 24.1008 7.89999 30.6673 16.0002 30.6673Z" fill="#E6E3FF"/>
<g clip-path="url(#clip0_656_6053)">
<path d="M16.8622 8C17.0974 8 17.3078 8.1464 17.387 8.3656L17.9518 9.9312C18.1542 9.9816 18.3278 10.032 18.475 10.0848C18.6358 10.1424 18.843 10.2296 19.099 10.3488L20.4142 9.6528C20.5216 9.59593 20.6445 9.5754 20.7645 9.59429C20.8845 9.61319 20.9951 9.67049 21.0798 9.7576L22.2366 10.9536C22.3902 11.1128 22.4334 11.3456 22.347 11.5488L21.7302 12.9944C21.8326 13.1824 21.9142 13.3432 21.9766 13.4776C22.0438 13.624 22.127 13.8256 22.2262 14.0856L23.6638 14.7016C23.8798 14.7936 24.0134 15.0096 23.999 15.2408L23.8934 16.9008C23.8862 17.0086 23.8475 17.112 23.782 17.198C23.7166 17.2841 23.6274 17.349 23.5254 17.3848L22.1638 17.8688C22.1246 18.0568 22.0838 18.2176 22.0406 18.3536C21.9709 18.5636 21.8914 18.7703 21.8022 18.9728L22.4862 20.4848C22.5345 20.591 22.5475 20.7099 22.5233 20.8241C22.4991 20.9383 22.439 21.0417 22.3518 21.1192L21.051 22.2808C20.9653 22.357 20.8584 22.4052 20.7446 22.4189C20.6308 22.4326 20.5155 22.4112 20.4142 22.3576L19.0734 21.6472C18.8636 21.7583 18.6472 21.8563 18.4254 21.9408L17.8398 22.16L17.3198 23.6C17.2813 23.7055 17.2118 23.7968 17.1204 23.862C17.029 23.9273 16.9201 23.9634 16.8078 23.9656L15.2878 24C15.1726 24.003 15.0592 23.9703 14.9634 23.9062C14.8676 23.8422 14.7939 23.75 14.7526 23.6424L14.1398 22.0208C13.9307 21.9493 13.7237 21.872 13.519 21.7888C13.3516 21.7163 13.1867 21.6382 13.0246 21.5544L11.5046 22.204C11.4045 22.2467 11.294 22.2594 11.1868 22.2405C11.0796 22.2216 10.9801 22.172 10.9006 22.0976L9.77581 21.0424C9.69206 20.9642 9.63503 20.8616 9.61278 20.7492C9.59053 20.6368 9.60418 20.5202 9.65181 20.416L10.3054 18.992C10.2185 18.8233 10.1379 18.6515 10.0638 18.4768C9.97733 18.263 9.89729 18.0466 9.82381 17.828L8.39181 17.392C8.27541 17.3568 8.17388 17.2842 8.103 17.1854C8.03211 17.0866 7.99584 16.9671 7.99981 16.8456L8.05581 15.3088C8.05979 15.2085 8.09112 15.1113 8.14639 15.0275C8.20166 14.9437 8.27878 14.8767 8.36941 14.8336L9.87181 14.112C9.94141 13.8568 10.0022 13.6584 10.0558 13.5136C10.1313 13.3202 10.2151 13.1302 10.307 12.944L9.65581 11.568C9.60639 11.4635 9.59138 11.346 9.61294 11.2325C9.6345 11.1189 9.69152 11.0151 9.77581 10.936L10.899 9.8752C10.9777 9.80094 11.0763 9.75101 11.1827 9.73143C11.2892 9.71184 11.399 9.72343 11.499 9.7648L13.0174 10.392C13.1854 10.28 13.3374 10.1896 13.475 10.1168C13.639 10.0296 13.8582 9.9384 14.1342 9.84L14.6622 8.3672C14.7012 8.25942 14.7726 8.16631 14.8665 8.10059C14.9604 8.03487 15.0724 7.99974 15.187 8H16.8622ZM16.019 13.6152C14.6854 13.6152 13.6046 14.6832 13.6046 16.0016C13.6046 17.32 14.6854 18.3888 16.019 18.3888C17.3518 18.3888 18.4326 17.32 18.4326 16.0016C18.4326 14.6832 17.3526 13.6152 16.019 13.6152Z" fill="#6A5ECE"/>
</g>
<defs>
<clipPath id="clip0_656_6053">
<rect width="16" height="16" fill="white" transform="translate(8 8)"/>
</clipPath>
</defs>
</svg>
