<svg width="24" height="20" viewBox="0 0 24 20" fill="none" xmlns="http://www.w3.org/2000/svg">
<path d="M13.8302 15.5393C13.6808 15.5397 13.5332 15.5127 13.3982 15.4603C13.2632 15.408 13.1443 15.3315 13.0502 15.2367L8.22016 10.3296C8.07308 10.1832 7.99268 9.99968 7.99268 9.81025C7.99268 9.62081 8.07308 9.43725 8.22016 9.29091L13.2202 4.38383C13.3899 4.21681 13.6338 4.11178 13.8982 4.09184C14.1627 4.0719 14.4259 4.13869 14.6302 4.27751C14.8344 4.41633 14.9628 4.61581 14.9872 4.83207C15.0116 5.04833 14.9299 5.26365 14.7602 5.43067L10.2902 9.81433L14.6102 14.198C14.7324 14.318 14.8101 14.4642 14.834 14.6192C14.8579 14.7743 14.827 14.9316 14.7449 15.0727C14.6629 15.2138 14.5331 15.3328 14.371 15.4154C14.2089 15.4981 14.0212 15.5411 13.8302 15.5393Z" fill="#564CA7"/>
</svg>
