<svg width="32" height="32" viewBox="0 0 32 32" fill="none" xmlns="http://www.w3.org/2000/svg">
<path d="M16.0002 30.6663C24.1003 30.6663 30.6668 24.0998 30.6668 15.9997C30.6668 7.8995 24.1003 1.33301 16.0002 1.33301C7.89999 1.33301 1.3335 7.8995 1.3335 15.9997C1.3335 24.0998 7.89999 30.6663 16.0002 30.6663Z" fill="#E6E3FF"/>
<path d="M15.9998 8.7998C14.5758 8.7998 13.1837 9.22208 11.9997 10.0132C10.8157 10.8044 9.89283 11.9289 9.34788 13.2445C8.80292 14.5601 8.66034 16.0078 8.93815 17.4045C9.21597 18.8011 9.9017 20.084 10.9086 21.091C11.9156 22.0979 13.1985 22.7836 14.5952 23.0615C15.9918 23.3393 17.4395 23.1967 18.7551 22.6517C20.0708 22.1068 21.1952 21.1839 21.9864 19.9999C22.7775 18.8159 23.1998 17.4238 23.1998 15.9998C23.1998 14.0902 22.4412 12.2589 21.091 10.9086C19.7407 9.55837 17.9094 8.7998 15.9998 8.7998ZM19.9998 16.7998H11.9998V15.1998H19.9998V16.7998Z" fill="#6A5ECE"/>
</svg>
