<svg width="21" height="21" viewBox="0 0 21 21" fill="none" xmlns="http://www.w3.org/2000/svg">
<path d="M10.5 20.125C15.8157 20.125 20.125 15.8157 20.125 10.5C20.125 5.18426 15.8157 0.875 10.5 0.875C5.18426 0.875 0.875 5.18426 0.875 10.5C0.875 15.8157 5.18426 20.125 10.5 20.125Z" fill="#E6E3FF"/>
<path d="M10.5 19.25C15.3325 19.25 19.25 15.3325 19.25 10.5C19.25 5.66751 15.3325 1.75 10.5 1.75C5.66751 1.75 1.75 5.66751 1.75 10.5C1.75 15.3325 5.66751 19.25 10.5 19.25Z" stroke="#8374FF" stroke-width="2"/>
<path fill-rule="evenodd" clip-rule="evenodd" d="M10.5 0.875C5.18438 0.875 0.875 5.18438 0.875 10.5C0.875 15.8156 5.18438 20.125 10.5 20.125C15.8156 20.125 20.125 15.8156 20.125 10.5C20.125 5.18438 15.8156 0.875 10.5 0.875ZM14.672 8.8725C14.7488 8.78469 14.8073 8.6824 14.844 8.57165C14.8807 8.4609 14.8949 8.34392 14.8857 8.22761C14.8766 8.1113 14.8442 7.99799 14.7906 7.89436C14.737 7.79073 14.6632 7.69887 14.5736 7.62417C14.484 7.54948 14.3803 7.49347 14.2687 7.45943C14.1571 7.42539 14.0398 7.41402 13.9238 7.42597C13.8077 7.43793 13.6952 7.47298 13.5929 7.52905C13.4906 7.58513 13.4005 7.6611 13.328 7.7525L9.5655 12.2666L7.61862 10.3189C7.4536 10.1595 7.23257 10.0713 7.00315 10.0733C6.77373 10.0753 6.55427 10.1673 6.39203 10.3295C6.2298 10.4918 6.13778 10.7112 6.13579 10.9406C6.13379 11.1701 6.22199 11.3911 6.38138 11.5561L9.00638 14.1811C9.09235 14.267 9.19528 14.3341 9.30861 14.3781C9.42194 14.422 9.54319 14.4418 9.66461 14.4363C9.78603 14.4308 9.90498 14.4 10.0139 14.346C10.1227 14.292 10.2192 14.2159 10.297 14.1225L14.672 8.8725Z" fill="#6A5ECE"/>
</svg>
