<svg width="30" height="31" viewBox="0 0 30 31" fill="none" xmlns="http://www.w3.org/2000/svg">
<g filter="url(#filter0_d_729_6815)">
<path fill-rule="evenodd" clip-rule="evenodd" d="M15 1C8.925 1 4 5.925 4 12C4 18.075 8.925 23 15 23C21.075 23 26 18.075 26 12C26 5.925 21.075 1 15 1ZM19.768 10.14C19.8558 10.0396 19.9226 9.92274 19.9646 9.79617C20.0065 9.6696 20.0227 9.53591 20.0123 9.40298C20.0018 9.27005 19.9648 9.14056 19.9036 9.02213C19.8423 8.90369 19.758 8.79871 19.6555 8.71334C19.5531 8.62798 19.4346 8.56396 19.3071 8.52506C19.1796 8.48616 19.0455 8.47316 18.9129 8.48683C18.7802 8.50049 18.6517 8.54055 18.5347 8.60463C18.4178 8.66872 18.3149 8.75554 18.232 8.86L13.932 14.019L11.707 11.793C11.5184 11.6108 11.2658 11.51 11.0036 11.5123C10.7414 11.5146 10.4906 11.6198 10.3052 11.8052C10.1198 11.9906 10.0146 12.2414 10.0123 12.5036C10.01 12.7658 10.1108 13.0184 10.293 13.207L13.293 16.207C13.3913 16.3052 13.5089 16.3818 13.6384 16.4321C13.7679 16.4823 13.9065 16.505 14.0453 16.4986C14.184 16.4923 14.32 16.4572 14.4444 16.3954C14.5688 16.3337 14.6791 16.2467 14.768 16.14L19.768 10.14Z" fill="#FF98B2"/>
</g>
<defs>
<filter id="filter0_d_729_6815" x="-1" y="0" width="32" height="32" filterUnits="userSpaceOnUse" color-interpolation-filters="sRGB">
<feFlood flood-opacity="0" result="BackgroundImageFix"/>
<feColorMatrix in="SourceAlpha" type="matrix" values="0 0 0 0 0 0 0 0 0 0 0 0 0 0 0 0 0 0 127 0" result="hardAlpha"/>
<feOffset dy="4"/>
<feGaussianBlur stdDeviation="2"/>
<feComposite in2="hardAlpha" operator="out"/>
<feColorMatrix type="matrix" values="0 0 0 0 0 0 0 0 0 0 0 0 0 0 0 0 0 0 0.25 0"/>
<feBlend mode="normal" in2="BackgroundImageFix" result="effect1_dropShadow_729_6815"/>
<feBlend mode="normal" in="SourceGraphic" in2="effect1_dropShadow_729_6815" result="shape"/>
</filter>
</defs>
</svg>
