<svg width="32" height="32" viewBox="0 0 32 32" fill="none" xmlns="http://www.w3.org/2000/svg">
<path d="M16.0002 30.6663C24.1003 30.6663 30.6668 24.0998 30.6668 15.9997C30.6668 7.8995 24.1003 1.33301 16.0002 1.33301C7.89999 1.33301 1.3335 7.8995 1.3335 15.9997C1.3335 24.0998 7.89999 30.6663 16.0002 30.6663Z" fill="#E6E3FF"/>
<path fill-rule="evenodd" clip-rule="evenodd" d="M8.39206 8.42189C8.64317 8.16282 8.98371 8.01728 9.33878 8.01728C9.69385 8.01728 10.0344 8.16282 10.2855 8.42189L16.0341 14.3546L21.7827 8.42189C21.9062 8.2899 22.054 8.18462 22.2174 8.1122C22.3807 8.03977 22.5565 8.00165 22.7343 8.00005C22.9121 7.99846 23.0884 8.03342 23.253 8.10291C23.4175 8.17239 23.567 8.27501 23.6928 8.40476C23.8185 8.53452 23.9179 8.68882 23.9852 8.85865C24.0526 9.02849 24.0865 9.21046 24.0849 9.39396C24.0834 9.57745 24.0464 9.75879 23.9762 9.9274C23.9061 10.096 23.8041 10.2485 23.6762 10.376L17.9275 16.3087L23.6762 22.2414C23.9201 22.502 24.055 22.8511 24.052 23.2135C24.0489 23.5758 23.9081 23.9224 23.6598 24.1786C23.4116 24.4349 23.0757 24.5802 22.7246 24.5834C22.3735 24.5865 22.0353 24.4472 21.7827 24.1955L16.0341 18.2628L10.2855 24.1955C10.0329 24.4472 9.6947 24.5865 9.3436 24.5834C8.9925 24.5802 8.65665 24.4349 8.40837 24.1786C8.1601 23.9224 8.01927 23.5758 8.01622 23.2135C8.01317 22.8511 8.14814 22.502 8.39206 22.2414L14.1407 16.3087L8.39206 10.376C8.14102 10.1168 8 9.76538 8 9.39893C8 9.03249 8.14102 8.68105 8.39206 8.42189Z" fill="#564CA7"/>
</svg>
