<svg width="20" height="21" viewBox="0 0 20 21" fill="none" xmlns="http://www.w3.org/2000/svg">
<path fill-rule="evenodd" clip-rule="evenodd" d="M4.29279 4.58654C4.48031 4.39907 4.73462 4.29375 4.99979 4.29375C5.26495 4.29375 5.51926 4.39907 5.70679 4.58654L9.99979 8.87954L14.2928 4.58654C14.385 4.49103 14.4954 4.41485 14.6174 4.36244C14.7394 4.31003 14.8706 4.28244 15.0034 4.28129C15.1362 4.28013 15.2678 4.30544 15.3907 4.35572C15.5136 4.406 15.6253 4.48025 15.7192 4.57414C15.8131 4.66804 15.8873 4.77969 15.9376 4.90258C15.9879 5.02548 16.0132 5.15716 16.012 5.28994C16.0109 5.42272 15.9833 5.55394 15.9309 5.67594C15.8785 5.79795 15.8023 5.90829 15.7068 6.00054L11.4138 10.2935L15.7068 14.5865C15.8889 14.7751 15.9897 15.0277 15.9875 15.2899C15.9852 15.5521 15.88 15.8029 15.6946 15.9884C15.5092 16.1738 15.2584 16.2789 14.9962 16.2812C14.734 16.2835 14.4814 16.1827 14.2928 16.0005L9.99979 11.7075L5.70679 16.0005C5.51818 16.1827 5.26558 16.2835 5.00339 16.2812C4.74119 16.2789 4.49038 16.1738 4.30497 15.9884C4.11956 15.8029 4.01439 15.5521 4.01211 15.2899C4.00983 15.0277 4.11063 14.7751 4.29279 14.5865L8.58579 10.2935L4.29279 6.00054C4.10532 5.81301 4 5.5587 4 5.29354C4 5.02837 4.10532 4.77407 4.29279 4.58654Z" fill="#564CA7"/>
</svg>
