<svg width="16" height="16" viewBox="0 0 16 16" fill="none" xmlns="http://www.w3.org/2000/svg">
<path d="M8.0001 1.5C6.87111 1.50029 5.76164 1.79455 4.78091 2.35384C3.80017 2.91312 2.98198 3.71815 2.40685 4.68967C1.83172 5.6612 1.51949 6.76575 1.50088 7.89459C1.48228 9.02343 1.75793 10.1377 2.30073 11.1276L1.76648 12.9973C1.71748 13.1688 1.71524 13.3502 1.75997 13.5229C1.8047 13.6955 1.89479 13.853 2.02089 13.9791C2.147 14.1052 2.30453 14.1953 2.47716 14.2401C2.6498 14.2848 2.83125 14.2826 3.00273 14.2336L4.87248 13.6993C5.74136 14.1761 6.70776 14.4479 7.69779 14.4939C8.68782 14.5399 9.67526 14.3589 10.5846 13.9648C11.494 13.5706 12.3012 12.9738 12.9445 12.2198C13.5878 11.4659 14.0502 10.5748 14.2963 9.61479C14.5425 8.65474 14.5658 7.65113 14.3646 6.68067C14.1634 5.71022 13.7429 4.79862 13.1354 4.01558C12.5278 3.23254 11.7492 2.5988 10.8592 2.1628C9.96915 1.7268 8.9912 1.50009 8.0001 1.5ZM8.0001 13.5C7.01237 13.5007 6.04272 13.235 5.19329 12.7309C5.13474 12.6961 5.06968 12.6736 5.00212 12.6648C4.93456 12.6561 4.86592 12.6612 4.80042 12.6799L2.7281 13.272L3.32017 11.1997C3.33888 11.1342 3.344 11.0656 3.33522 10.998C3.32644 10.9304 3.30394 10.8654 3.2691 10.8068C2.64964 9.76311 2.39276 8.54383 2.53848 7.33891C2.68419 6.134 3.22432 5.0111 4.07471 4.14515C4.92511 3.2792 6.03803 2.71881 7.24011 2.55128C8.44218 2.38375 9.66592 2.61849 10.7207 3.21893C11.7754 3.81937 12.602 4.75179 13.0716 5.87095C13.5412 6.99011 13.6275 8.23316 13.317 9.40647C13.0066 10.5798 12.3167 11.6175 11.3551 12.3579C10.3934 13.0983 9.2138 13.4998 8.0001 13.5ZM8.7501 8C8.7501 8.14834 8.70612 8.29334 8.6237 8.41668C8.54129 8.54001 8.42416 8.63614 8.28712 8.69291C8.15007 8.74967 7.99927 8.76453 7.85379 8.73559C7.7083 8.70665 7.57466 8.63522 7.46977 8.53033C7.36488 8.42544 7.29345 8.2918 7.26451 8.14632C7.23558 8.00083 7.25043 7.85003 7.30719 7.71299C7.36396 7.57594 7.46009 7.45881 7.58343 7.3764C7.70676 7.29399 7.85177 7.25 8.0001 7.25C8.19902 7.25 8.38978 7.32902 8.53043 7.46967C8.67108 7.61032 8.7501 7.80109 8.7501 8ZM5.7501 8C5.7501 8.14834 5.70612 8.29334 5.62371 8.41668C5.54129 8.54001 5.42416 8.63614 5.28712 8.69291C5.15007 8.74967 4.99927 8.76453 4.85378 8.73559C4.7083 8.70665 4.57466 8.63522 4.46977 8.53033C4.36488 8.42544 4.29345 8.2918 4.26451 8.14632C4.23557 8.00083 4.25043 7.85003 4.30719 7.71299C4.36396 7.57594 4.46009 7.45881 4.58343 7.3764C4.70676 7.29399 4.85177 7.25 5.0001 7.25C5.19902 7.25 5.38978 7.32902 5.53043 7.46967C5.67109 7.61032 5.7501 7.80109 5.7501 8ZM11.7501 8C11.7501 8.14834 11.7061 8.29334 11.6237 8.41668C11.5413 8.54001 11.4242 8.63614 11.2871 8.69291C11.1501 8.74967 10.9993 8.76453 10.8538 8.73559C10.7083 8.70665 10.5747 8.63522 10.4698 8.53033C10.3649 8.42544 10.2935 8.2918 10.2645 8.14632C10.2356 8.00083 10.2504 7.85003 10.3072 7.71299C10.364 7.57594 10.4601 7.45881 10.5834 7.3764C10.7068 7.29399 10.8518 7.25 11.0001 7.25C11.199 7.25 11.3898 7.32902 11.5304 7.46967C11.6711 7.61032 11.7501 7.80109 11.7501 8Z" fill="#7B61FF"/>
</svg>
