<svg width="16" height="16" viewBox="0 0 16 16" fill="none" xmlns="http://www.w3.org/2000/svg">
<path d="M5 12.6497C4.73333 12.6497 4.5 12.5497 4.3 12.3497C4.1 12.1497 4 11.9164 4 11.6497V2.31641C4 2.04974 4.1 1.81641 4.3 1.61641C4.5 1.41641 4.73333 1.31641 5 1.31641H12.3333C12.6 1.31641 12.8333 1.41641 13.0333 1.61641C13.2333 1.81641 13.3333 2.04974 13.3333 2.31641V11.6497C13.3333 11.9164 13.2333 12.1497 13.0333 12.3497C12.8333 12.5497 12.6 12.6497 12.3333 12.6497H5ZM5 11.6497H12.3333V2.31641H5V11.6497ZM3 14.6497C2.73333 14.6497 2.5 14.5497 2.3 14.3497C2.1 14.1497 2 13.9164 2 13.6497V3.59974H3V13.6497H10.9V14.6497H3ZM5 2.31641V11.6497V2.31641Z" fill="white"/>
</svg>
