<svg width="32" height="32" viewBox="0 0 32 32" fill="none" xmlns="http://www.w3.org/2000/svg">
<path d="M15.9997 30.6663C24.0998 30.6663 30.6663 24.0998 30.6663 15.9997C30.6663 7.8995 24.0998 1.33301 15.9997 1.33301C7.8995 1.33301 1.33301 7.8995 1.33301 15.9997C1.33301 24.0998 7.8995 30.6663 15.9997 30.6663Z" fill="#E6E3FF"/>
<path d="M19.333 10.6663H22.6663V11.9997H21.333V21.9997C21.333 22.1765 21.2628 22.3461 21.1377 22.4711C21.0127 22.5961 20.8432 22.6663 20.6663 22.6663H11.333C11.1562 22.6663 10.9866 22.5961 10.8616 22.4711C10.7366 22.3461 10.6663 22.1765 10.6663 21.9997V11.9997H9.33301V10.6663H12.6663V9.33301H19.333V10.6663ZM13.9997 13.9997V19.333H15.333V13.9997H13.9997ZM16.6663 13.9997V19.333H17.9997V13.9997H16.6663Z" fill="#6A5ECE"/>
</svg>
