<svg width="32" height="32" viewBox="0 0 32 32" fill="none" xmlns="http://www.w3.org/2000/svg">
<path d="M15.9999 30.6663C24.1001 30.6663 30.6666 24.0998 30.6666 15.9997C30.6666 7.8995 24.1001 1.33301 15.9999 1.33301C7.89974 1.33301 1.33325 7.8995 1.33325 15.9997C1.33325 24.0998 7.89974 30.6663 15.9999 30.6663Z" fill="#E6E3FF"/>
<path d="M21.3333 10.667H10.6666C9.93325 10.667 9.33992 11.267 9.33992 12.0003L9.33325 20.0003C9.33325 20.7337 9.93325 21.3337 10.6666 21.3337H21.3333C22.0666 21.3337 22.6666 20.7337 22.6666 20.0003V12.0003C22.6666 11.267 22.0666 10.667 21.3333 10.667ZM21.0666 13.5003L16.3533 16.447C16.1399 16.5803 15.8599 16.5803 15.6466 16.447L10.9333 13.5003C10.8664 13.4628 10.8079 13.4121 10.7612 13.3513C10.7145 13.2905 10.6806 13.2208 10.6616 13.1466C10.6426 13.0723 10.6389 12.9949 10.6507 12.9192C10.6625 12.8434 10.6895 12.7709 10.7301 12.7059C10.7707 12.6409 10.8241 12.5848 10.8871 12.541C10.95 12.4972 11.0212 12.4667 11.0962 12.4512C11.1713 12.4357 11.2488 12.4356 11.3239 12.451C11.399 12.4663 11.4702 12.4967 11.5333 12.5403L15.9999 15.3337L20.4666 12.5403C20.5296 12.4967 20.6008 12.4663 20.6759 12.451C20.7511 12.4356 20.8285 12.4357 20.9036 12.4512C20.9787 12.4667 21.0498 12.4972 21.1128 12.541C21.1757 12.5848 21.2291 12.6409 21.2697 12.7059C21.3104 12.7709 21.3374 12.8434 21.3491 12.9192C21.3609 12.9949 21.3572 13.0723 21.3382 13.1466C21.3192 13.2208 21.2853 13.2905 21.2387 13.3513C21.192 13.4121 21.1334 13.4628 21.0666 13.5003Z" fill="#6A5ECE"/>
</svg>
