<svg width="141" height="141" viewBox="0 0 141 141" fill="none" xmlns="http://www.w3.org/2000/svg">
<path d="M70.5 135.125C106.191 135.125 135.125 106.191 135.125 70.5C135.125 34.8086 106.191 5.875 70.5 5.875C34.8086 5.875 5.875 34.8086 5.875 70.5C5.875 106.191 34.8086 135.125 70.5 135.125Z" fill="#FF98B2"/>
<path fill-rule="evenodd" clip-rule="evenodd" d="M36.9775 37.109C38.084 35.9674 39.5845 35.3261 41.149 35.3261C42.7135 35.3261 44.214 35.9674 45.3205 37.109L70.6503 63.25L95.9801 37.109C96.5244 36.5274 97.1754 36.0635 97.8953 35.7444C98.6152 35.4252 99.3894 35.2573 100.173 35.2502C100.956 35.2432 101.733 35.3973 102.458 35.7034C103.183 36.0096 103.842 36.4618 104.396 37.0335C104.95 37.6052 105.388 38.2851 105.685 39.0334C105.982 39.7818 106.131 40.5836 106.124 41.3921C106.117 42.2007 105.955 42.9997 105.645 43.7426C105.336 44.4855 104.887 45.1574 104.323 45.7191L78.9933 71.8601L104.323 98.0012C105.398 99.1496 105.993 100.688 105.979 102.284C105.966 103.881 105.345 105.408 104.251 106.537C103.157 107.666 101.677 108.307 100.13 108.32C98.5833 108.334 97.0929 107.721 95.9801 106.611L70.6503 80.4703L45.3205 106.611C44.2077 107.721 42.7173 108.334 41.1702 108.32C39.6232 108.307 38.1433 107.666 37.0494 106.537C35.9554 105.408 35.3349 103.881 35.3215 102.284C35.308 100.688 35.9027 99.1496 36.9775 98.0012L62.3073 71.8601L36.9775 45.7191C35.8714 44.5772 35.25 43.0287 35.25 41.414C35.25 39.7994 35.8714 38.2509 36.9775 37.109Z" fill="white"/>
</svg>
