<svg width="68" height="70" viewBox="0 0 68 70" fill="none" xmlns="http://www.w3.org/2000/svg">
<g filter="url(#filter0_d_1146_12981)">
<path d="M33.9998 61.3337C50.2002 61.3337 63.3332 48.2007 63.3332 32.0003C63.3332 15.8 50.2002 2.66699 33.9998 2.66699C17.7995 2.66699 4.6665 15.8 4.6665 32.0003C4.6665 48.2007 17.7995 61.3337 33.9998 61.3337Z" fill="#FF98B2"/>
<path fill-rule="evenodd" clip-rule="evenodd" d="M18.7841 16.8438C19.2863 16.3256 19.9674 16.0346 20.6776 16.0346C21.3877 16.0346 22.0688 16.3256 22.571 16.8438L34.0682 28.7092L45.5654 16.8438C45.8125 16.5798 46.108 16.3692 46.4347 16.2244C46.7615 16.0795 47.1129 16.0033 47.4685 16.0001C47.8241 15.9969 48.1768 16.0668 48.5059 16.2058C48.835 16.3448 49.1341 16.55 49.3855 16.8095C49.637 17.069 49.8358 17.3776 49.9705 17.7173C50.1051 18.057 50.1729 18.4209 50.1698 18.7879C50.1667 19.1549 50.0928 19.5176 49.9525 19.8548C49.8121 20.192 49.6081 20.497 49.3523 20.7519L37.8551 32.6174L49.3523 44.4828C49.8402 45.0041 50.1101 45.7022 50.104 46.4269C50.0979 47.1516 49.8162 47.8448 49.3197 48.3573C48.8231 48.8697 48.1514 49.1604 47.4492 49.1667C46.747 49.173 46.0705 48.8944 45.5654 48.391L34.0682 36.5255L22.571 48.391C22.0659 48.8944 21.3894 49.173 20.6872 49.1667C19.985 49.1604 19.3133 48.8697 18.8167 48.3573C18.3202 47.8448 18.0385 47.1516 18.0324 46.4269C18.0263 45.7022 18.2963 45.0041 18.7841 44.4828L30.2813 32.6174L18.7841 20.7519C18.282 20.2336 18 19.5308 18 18.7979C18 18.065 18.282 17.3621 18.7841 16.8438V16.8438Z" fill="white"/>
</g>
<defs>
<filter id="filter0_d_1146_12981" x="-2" y="0" width="72" height="72" filterUnits="userSpaceOnUse" color-interpolation-filters="sRGB">
<feFlood flood-opacity="0" result="BackgroundImageFix"/>
<feColorMatrix in="SourceAlpha" type="matrix" values="0 0 0 0 0 0 0 0 0 0 0 0 0 0 0 0 0 0 127 0" result="hardAlpha"/>
<feOffset dy="4"/>
<feGaussianBlur stdDeviation="2"/>
<feComposite in2="hardAlpha" operator="out"/>
<feColorMatrix type="matrix" values="0 0 0 0 0 0 0 0 0 0 0 0 0 0 0 0 0 0 0.25 0"/>
<feBlend mode="normal" in2="BackgroundImageFix" result="effect1_dropShadow_1146_12981"/>
<feBlend mode="normal" in="SourceGraphic" in2="effect1_dropShadow_1146_12981" result="shape"/>
</filter>
</defs>
</svg>
