<svg width="30" height="30" viewBox="0 0 30 30" fill="none" xmlns="http://www.w3.org/2000/svg">
<path d="M14.6667 29.3333C22.7668 29.3333 29.3333 22.7668 29.3333 14.6667C29.3333 6.56649 22.7668 0 14.6667 0C6.56649 0 0 6.56649 0 14.6667C0 22.7668 6.56649 29.3333 14.6667 29.3333Z" fill="#E6E3FF"/>
<path fill-rule="evenodd" clip-rule="evenodd" d="M9.66667 8.06667C9.24232 8.06667 8.83535 8.23524 8.5353 8.5353C8.23524 8.83535 8.06667 9.24232 8.06667 9.66667V12.3333H7V9.66667C7 8.95942 7.28095 8.28115 7.78105 7.78105C8.28115 7.28095 8.95942 7 9.66667 7H12.3333V8.06667H9.66667ZM20.3333 8.06667H17.6667V7H20.3333C21.0406 7 21.7189 7.28095 22.219 7.78105C22.719 8.28115 23 8.95942 23 9.66667V12.3333H21.9333V9.66667C21.9333 9.24232 21.7648 8.83535 21.4647 8.5353C21.1646 8.23524 20.7577 8.06667 20.3333 8.06667V8.06667ZM12.3333 13.4H11.2667V12.3333H12.3333V13.4ZM18.7333 13.4H17.6667V12.3333H18.7333V13.4ZM12.2267 16.28C12.5496 16.7105 12.9683 17.06 13.4497 17.3007C13.931 17.5414 14.4618 17.6667 15 17.6667C15.5382 17.6667 16.069 17.5414 16.5503 17.3007C17.0317 17.06 17.4504 16.7105 17.7733 16.28L18.6267 16.92C16.8133 19.3381 13.1867 19.3381 11.3733 16.92L12.2267 16.28V16.28ZM7 20.3333V17.6667H8.06667V20.3333C8.06667 20.7577 8.23524 21.1646 8.5353 21.4647C8.83535 21.7648 9.24232 21.9333 9.66667 21.9333H12.3333V23H9.66667C8.95942 23 8.28115 22.719 7.78105 22.219C7.28095 21.7189 7 21.0406 7 20.3333V20.3333ZM23 17.6667V20.3333C23 21.0406 22.719 21.7189 22.219 22.219C21.7189 22.719 21.0406 23 20.3333 23H17.6667V21.9333H20.3333C20.7577 21.9333 21.1646 21.7648 21.4647 21.4647C21.7648 21.1646 21.9333 20.7577 21.9333 20.3333V17.6667H23Z" fill="#6A5ECE"/>
</svg>
