<svg width="16" height="16" viewBox="0 0 16 16" fill="none" xmlns="http://www.w3.org/2000/svg">
<path d="M12.0843 15.1108C11.8879 15.1106 11.696 15.0518 11.5332 14.9419L8.21768 12.7197C8.20135 12.7084 8.18197 12.7024 8.16213 12.7024C8.14228 12.7024 8.1229 12.7084 8.10657 12.7197L4.79102 14.9419C4.62452 15.0531 4.42815 15.111 4.22798 15.1079C4.02781 15.1048 3.83331 15.0409 3.67031 14.9247C3.5073 14.8085 3.38351 14.6454 3.31537 14.4572C3.24723 14.2689 3.23796 14.0644 3.28879 13.8708L4.37768 10.0308C4.38283 10.0115 4.38221 9.99108 4.37589 9.97212C4.36957 9.95317 4.35783 9.93648 4.34213 9.92412L1.20435 7.45745C1.03917 7.3344 0.916638 7.16273 0.853943 6.96652C0.791248 6.77031 0.791532 6.55941 0.854754 6.36337C0.917977 6.16733 1.04097 5.99599 1.20648 5.87338C1.37199 5.75077 1.57173 5.68304 1.77768 5.67967L5.77768 5.52856C5.79735 5.5272 5.81621 5.52019 5.83198 5.50836C5.84775 5.49653 5.85976 5.4804 5.86657 5.46189L7.24435 1.71523C7.3138 1.52529 7.43993 1.36128 7.60568 1.2454C7.77143 1.12953 7.96878 1.06738 8.17102 1.06738C8.37325 1.06738 8.5706 1.12953 8.73635 1.2454C8.9021 1.36128 9.02824 1.52529 9.09768 1.71523L10.4755 5.46189C10.4823 5.4804 10.4943 5.49653 10.5101 5.50836C10.5258 5.52019 10.5447 5.5272 10.5644 5.52856L14.5644 5.67967C14.7703 5.68304 14.97 5.75077 15.1356 5.87338C15.3011 5.99599 15.4241 6.16733 15.4873 6.36337C15.5505 6.55941 15.5508 6.77031 15.4881 6.96652C15.4254 7.16273 15.3029 7.3344 15.1377 7.45745L11.9999 9.92412C11.9837 9.93608 11.9716 9.95274 11.9653 9.97183C11.9589 9.99092 11.9586 10.0115 11.9643 10.0308L13.0532 13.8708C13.0915 14.0181 13.0953 14.1722 13.0643 14.3212C13.0334 14.4702 12.9686 14.61 12.8749 14.7299C12.7812 14.8499 12.6611 14.9466 12.5241 15.0126C12.387 15.0787 12.2365 15.1123 12.0843 15.1108ZM8.16435 11.813C8.36116 11.819 8.55162 11.8841 8.71102 11.9997L12.0266 14.2219C12.0434 14.2347 12.0639 14.2417 12.085 14.2418C12.1061 14.242 12.1267 14.2353 12.1437 14.2228C12.1607 14.2103 12.1732 14.1927 12.1793 14.1725C12.1854 14.1523 12.1849 14.1306 12.1777 14.1108L11.0888 10.2708C11.0352 10.0824 11.0392 9.88232 11.1001 9.69622C11.1611 9.51011 11.2763 9.34648 11.431 9.22634L14.5688 6.75967C14.5859 6.74765 14.5987 6.73046 14.6053 6.71061C14.612 6.69077 14.612 6.66933 14.6056 6.64944C14.5991 6.62955 14.5864 6.61225 14.5694 6.60009C14.5524 6.58794 14.5319 6.58156 14.511 6.5819L10.511 6.43078C10.3152 6.42315 10.126 6.35735 9.9677 6.24178C9.80938 6.12622 9.68908 5.96611 9.62213 5.7819L8.24435 2.03523C8.23814 2.01533 8.22573 1.99795 8.20894 1.9856C8.19215 1.97325 8.17186 1.96659 8.15102 1.96659C8.13018 1.96659 8.10988 1.97325 8.09309 1.9856C8.0763 1.99795 8.06389 2.01533 8.05768 2.03523L6.69324 5.77745C6.62629 5.96167 6.50598 6.12177 6.34767 6.23734C6.18936 6.35291 6.00021 6.4187 5.80435 6.42634L1.80435 6.57745C1.78344 6.57711 1.76296 6.58349 1.74594 6.59565C1.72892 6.60781 1.71625 6.6251 1.70978 6.64499C1.70332 6.66489 1.7034 6.68633 1.71002 6.70617C1.71665 6.72601 1.72946 6.74321 1.74657 6.75523L4.88879 9.22634C5.04299 9.34686 5.15786 9.51052 5.2188 9.6965C5.27974 9.88248 5.28399 10.0824 5.23102 10.2708L4.14657 14.1108C4.1401 14.13 4.14007 14.1508 4.14649 14.1701C4.1529 14.1893 4.16541 14.206 4.18213 14.2175C4.19823 14.2312 4.21872 14.2388 4.23991 14.2388C4.26109 14.2388 4.28158 14.2312 4.29768 14.2175L7.61324 11.9952C7.77528 11.8877 7.96546 11.8305 8.15991 11.8308L8.16435 11.813Z" fill="white"/>
</svg>
