<svg width="32" height="32" viewBox="0 0 32 32" fill="none" xmlns="http://www.w3.org/2000/svg">
<g clip-path="url(#clip0_711_6787)">
<path d="M11.0001 18.876V17H13.0001V18.876C13.0002 19.0398 13.0203 19.2031 13.0601 19.362L13.8601 22.558L12.0001 23.798L10.1401 22.558L10.9401 19.362C10.98 19.2031 11.0001 19.0398 11.0001 18.876Z" fill="#8374FF"/>
<path d="M18.586 0H8C6.93913 0 5.92172 0.421427 5.17157 1.17157C4.42143 1.92172 4 2.93913 4 4V28C4 29.0609 4.42143 30.0783 5.17157 30.8284C5.92172 31.5786 6.93913 32 8 32H24C25.0609 32 26.0783 31.5786 26.8284 30.8284C27.5786 30.0783 28 29.0609 28 28V9.414C27.9999 8.88361 27.7891 8.37499 27.414 8L20 0.586C19.625 0.210901 19.1164 0.000113275 18.586 0V0ZM19 7V3L25 9H21C20.4696 9 19.9609 8.78929 19.5858 8.41421C19.2107 8.03914 19 7.53043 19 7ZM11 6V4H9V2H12V4H14V6H12V8H14V10H12V12H14V14H11V12H9V10H11V8H9V6H11ZM11 15H13C13.5304 15 14.0391 15.2107 14.4142 15.5858C14.7893 15.9609 15 16.4696 15 17V18.876L15.8 22.074C15.8997 22.4741 15.8732 22.8953 15.7243 23.2798C15.5754 23.6643 15.3112 23.9934 14.968 24.222L13.108 25.462C12.7795 25.6809 12.3937 25.7976 11.999 25.7976C11.6043 25.7976 11.2185 25.6809 10.89 25.462L9.03 24.222C8.68716 23.9931 8.42341 23.6639 8.27484 23.2794C8.12627 22.8949 8.10013 22.4739 8.2 22.074L9 18.876V17C9 16.4696 9.21071 15.9609 9.58579 15.5858C9.96086 15.2107 10.4696 15 11 15Z" fill="#8374FF"/>
</g>
<defs>
<clipPath id="clip0_711_6787">
<rect width="32" height="32" fill="white"/>
</clipPath>
</defs>
</svg>
