<svg width="20" height="20" viewBox="0 0 20 20" fill="none" xmlns="http://www.w3.org/2000/svg">
<path d="M10.0003 15.0003C10.0003 14.0799 9.25413 13.3337 8.33366 13.3337C7.41318 13.3337 6.66699 14.0799 6.66699 15.0003C6.66699 15.9208 7.41318 16.667 8.33366 16.667C9.25413 16.667 10.0003 15.9208 10.0003 15.0003Z" stroke="#564CA7" stroke-width="1.5" stroke-linecap="round" stroke-linejoin="round"/>
<path d="M10.0002 15L16.6668 15M3.3335 15H6.66683H3.3335Z" stroke="#564CA7" stroke-width="1.5" stroke-linecap="round" stroke-linejoin="round"/>
<path d="M15.0003 10.0003C15.0003 9.07985 14.2541 8.33366 13.3337 8.33366C12.4132 8.33366 11.667 9.07985 11.667 10.0003C11.667 10.9208 12.4132 11.667 13.3337 11.667C14.2541 11.667 15.0003 10.9208 15.0003 10.0003Z" stroke="#564CA7" stroke-width="1.5" stroke-linecap="round" stroke-linejoin="round"/>
<path d="M15.0002 10H16.6668M3.3335 10L11.6668 10L3.3335 10Z" stroke="#564CA7" stroke-width="1.5" stroke-linecap="round" stroke-linejoin="round"/>
<path d="M7.50033 5.00033C7.50033 4.07985 6.75413 3.33366 5.83366 3.33366C4.91318 3.33366 4.16699 4.07985 4.16699 5.00033C4.16699 5.9208 4.91318 6.66699 5.83366 6.66699C6.75413 6.66699 7.50033 5.9208 7.50033 5.00033Z" stroke="#564CA7" stroke-width="1.5" stroke-linecap="round" stroke-linejoin="round"/>
<path d="M7.50016 5L16.6668 5M3.3335 5H4.16683H3.3335Z" stroke="#564CA7" stroke-width="1.5" stroke-linecap="round" stroke-linejoin="round"/>
</svg>
