<svg width="30" height="30" viewBox="0 0 30 30" fill="none" xmlns="http://www.w3.org/2000/svg">
<path d="M14.9997 29.6673C23.0998 29.6673 29.6663 23.1008 29.6663 15.0007C29.6663 6.90047 23.0998 0.333984 14.9997 0.333984C6.8995 0.333984 0.333008 6.90047 0.333008 15.0007C0.333008 23.1008 6.8995 29.6673 14.9997 29.6673Z" fill="#E6E3FF"/>
<path d="M14.6663 19.6673C14.6663 18.7468 13.9201 18.0007 12.9997 18.0007C12.0792 18.0007 11.333 18.7468 11.333 19.6673C11.333 20.5878 12.0792 21.334 12.9997 21.334C13.9201 21.334 14.6663 20.5878 14.6663 19.6673Z" stroke="#564CA7" stroke-width="1.5" stroke-linecap="round" stroke-linejoin="round"/>
<path d="M14.6667 19.668L21.3333 19.668M8 19.668H11.3333H8Z" stroke="#564CA7" stroke-width="1.5" stroke-linecap="round" stroke-linejoin="round"/>
<path d="M19.6663 14.6673C19.6663 13.7468 18.9201 13.0007 17.9997 13.0007C17.0792 13.0007 16.333 13.7468 16.333 14.6673C16.333 15.5878 17.0792 16.334 17.9997 16.334C18.9201 16.334 19.6663 15.5878 19.6663 14.6673Z" stroke="#564CA7" stroke-width="1.5" stroke-linecap="round" stroke-linejoin="round"/>
<path d="M19.6667 14.668H21.3333M8 14.668L16.3333 14.668L8 14.668Z" stroke="#564CA7" stroke-width="1.5" stroke-linecap="round" stroke-linejoin="round"/>
<path d="M12.1663 9.66732C12.1663 8.74684 11.4201 8.00065 10.4997 8.00065C9.5792 8.00065 8.83301 8.74684 8.83301 9.66732C8.83301 10.5878 9.5792 11.334 10.4997 11.334C11.4201 11.334 12.1663 10.5878 12.1663 9.66732Z" stroke="#564CA7" stroke-width="1.5" stroke-linecap="round" stroke-linejoin="round"/>
<path d="M12.1667 9.66797L21.3333 9.66797M8 9.66797H8.83333H8Z" stroke="#564CA7" stroke-width="1.5" stroke-linecap="round" stroke-linejoin="round"/>
</svg>
