<svg width="29" height="29" viewBox="0 0 29 29" fill="none" xmlns="http://www.w3.org/2000/svg">
<path d="M10.1501 6.52461C10.1501 7.04081 10.0428 7.53091 9.8485 7.97461H14.5001C14.6924 7.97461 14.8768 8.05099 15.0128 8.18696C15.1487 8.32292 15.2251 8.50733 15.2251 8.69961V11.5996H14.5001C13.731 11.5996 12.9933 11.9051 12.4495 12.449C11.9056 12.9929 11.6001 13.7305 11.6001 14.4996V15.2246H8.7001C8.50782 15.2246 8.32341 15.1482 8.18745 15.0123C8.05148 14.8763 7.9751 14.6919 7.9751 14.4996V9.84801C7.29117 10.1472 6.53136 10.2272 5.8001 10.0771V14.4996C5.8001 15.2687 6.10563 16.0064 6.64949 16.5502C7.19334 17.0941 7.93097 17.3996 8.7001 17.3996H11.6001V20.2996C11.6001 21.0687 11.9056 21.8064 12.4495 22.3502C12.9933 22.8941 13.731 23.1996 14.5001 23.1996H18.9226C18.7744 22.4683 18.8543 21.709 19.1517 21.0246H14.5001C14.3078 21.0246 14.1234 20.9482 13.9874 20.8123C13.8515 20.6763 13.7751 20.4919 13.7751 20.2996V17.3996H14.5001C15.2692 17.3996 16.0069 17.0941 16.5507 16.5502C17.0946 16.0064 17.4001 15.2687 17.4001 14.4996V13.7746H20.3001C20.4924 13.7746 20.6768 13.851 20.8128 13.987C20.9487 14.1229 21.0251 14.3073 21.0251 14.4996V19.1512C21.709 18.8519 22.4688 18.7719 23.2001 18.9221V14.4996C23.2001 13.7305 22.8946 12.9929 22.3507 12.449C21.8069 11.9051 21.0692 11.5996 20.3001 11.5996H17.4001V8.69961C17.4001 7.93048 17.0946 7.19286 16.5507 6.649C16.0069 6.10514 15.2692 5.79961 14.5001 5.79961H10.0776C10.1254 6.03451 10.1501 6.27666 10.1501 6.52461ZM15.2251 13.7746V14.4996C15.2251 14.6919 15.1487 14.8763 15.0128 15.0123C14.8768 15.1482 14.6924 15.2246 14.5001 15.2246H13.7751V14.4996C13.7751 14.3073 13.8515 14.1229 13.9874 13.987C14.1234 13.851 14.3078 13.7746 14.5001 13.7746H15.2251ZM8.7001 6.52461C8.7001 7.10146 8.47095 7.65468 8.06306 8.06257C7.65516 8.47046 7.10194 8.69961 6.5251 8.69961C5.94825 8.69961 5.39503 8.47046 4.98714 8.06257C4.57925 7.65468 4.3501 7.10146 4.3501 6.52461C4.3501 5.94776 4.57925 5.39454 4.98714 4.98665C5.39503 4.57876 5.94825 4.34961 6.5251 4.34961C7.10194 4.34961 7.65516 4.57876 8.06306 4.98665C8.47095 5.39454 8.7001 5.94776 8.7001 6.52461ZM24.6501 22.4746C24.6501 23.0515 24.4209 23.6047 24.0131 24.0126C23.6052 24.4205 23.0519 24.6496 22.4751 24.6496C21.8983 24.6496 21.345 24.4205 20.9371 24.0126C20.5292 23.6047 20.3001 23.0515 20.3001 22.4746C20.3001 21.8978 20.5292 21.3445 20.9371 20.9367C21.345 20.5288 21.8983 20.2996 22.4751 20.2996C23.0519 20.2996 23.6052 20.5288 24.0131 20.9367C24.4209 21.3445 24.6501 21.8978 24.6501 22.4746ZM24.6501 6.52461C24.6501 7.10146 24.4209 7.65468 24.0131 8.06257C23.6052 8.47046 23.0519 8.69961 22.4751 8.69961C21.8983 8.69961 21.345 8.47046 20.9371 8.06257C20.5292 7.65468 20.3001 7.10146 20.3001 6.52461C20.3001 5.94776 20.5292 5.39454 20.9371 4.98665C21.345 4.57876 21.8983 4.34961 22.4751 4.34961C23.0519 4.34961 23.6052 4.57876 24.0131 4.98665C24.4209 5.39454 24.6501 5.94776 24.6501 6.52461ZM8.7001 22.4746C8.7001 23.0515 8.47095 23.6047 8.06306 24.0126C7.65516 24.4205 7.10194 24.6496 6.5251 24.6496C5.94825 24.6496 5.39503 24.4205 4.98714 24.0126C4.57925 23.6047 4.3501 23.0515 4.3501 22.4746C4.3501 21.8978 4.57925 21.3445 4.98714 20.9367C5.39503 20.5288 5.94825 20.2996 6.5251 20.2996C7.10194 20.2996 7.65516 20.5288 8.06306 20.9367C8.47095 21.3445 8.7001 21.8978 8.7001 22.4746Z" fill="#8374FF"/>
</svg>
