<svg width="73" height="75" viewBox="0 0 73 75" fill="none" xmlns="http://www.w3.org/2000/svg">
<path fill-rule="evenodd" clip-rule="evenodd" d="M36.5 0.475586C16.342 0.475586 0 17.051 0 37.4969C0 57.9428 16.342 74.5182 36.5 74.5182C56.658 74.5182 73 57.9428 73 37.4969C73 17.051 56.658 0.475586 36.5 0.475586ZM39.8182 50.9592C39.8182 51.8518 39.4686 52.7078 38.8463 53.339C38.224 53.9702 37.38 54.3248 36.5 54.3248C35.62 54.3248 34.776 53.9702 34.1537 53.339C33.5314 52.7078 33.1818 51.8518 33.1818 50.9592V40.8625H23.2273C22.3472 40.8625 21.5032 40.5079 20.881 39.8767C20.2587 39.2455 19.9091 38.3895 19.9091 37.4969C19.9091 36.6043 20.2587 35.7482 20.881 35.1171C21.5032 34.4859 22.3472 34.1313 23.2273 34.1313H33.1818V24.0346C33.1818 23.142 33.5314 22.2859 34.1537 21.6548C34.776 21.0236 35.62 20.669 36.5 20.669C37.38 20.669 38.224 21.0236 38.8463 21.6548C39.4686 22.2859 39.8182 23.142 39.8182 24.0346V34.1313H49.7727C50.6528 34.1313 51.4968 34.4859 52.119 35.1171C52.7413 35.7482 53.0909 36.6043 53.0909 37.4969C53.0909 38.3895 52.7413 39.2455 52.119 39.8767C51.4968 40.5079 50.6528 40.8625 49.7727 40.8625H39.8182V50.9592Z" fill="#FF98B2"/>
<ellipse cx="36.4992" cy="36.1734" rx="26.0714" ry="25.1216" fill="#FF98B2"/>
<path d="M36.3998 56.0019C36.1425 56.0034 35.8874 55.9524 35.6492 55.8518C35.411 55.7512 35.1943 55.6029 35.0116 55.4155L19.8206 39.6825C17.915 37.691 16.8462 35.0022 16.8462 32.2003C16.8462 29.3984 17.915 26.7096 19.8206 24.7181C21.741 22.7373 24.3424 21.625 27.0544 21.625C29.7665 21.625 32.3678 22.7373 34.2883 24.7181L36.3998 26.9021L38.5113 24.7181C40.4317 22.7373 43.0331 21.625 45.7451 21.625C48.4572 21.625 51.0586 22.7373 52.979 24.7181C54.8845 26.7096 55.9533 29.3984 55.9533 32.2003C55.9533 35.0022 54.8845 37.691 52.979 39.6825L37.7879 55.4155C37.6052 55.6029 37.3885 55.7512 37.1503 55.8518C36.9121 55.9524 36.6571 56.0034 36.3998 56.0019Z" fill="white"/>
</svg>
