<svg width="32" height="32" viewBox="0 0 32 32" fill="none" xmlns="http://www.w3.org/2000/svg">
<path d="M16.0002 30.6673C24.1003 30.6673 30.6668 24.1008 30.6668 16.0007C30.6668 7.90047 24.1003 1.33398 16.0002 1.33398C7.89999 1.33398 1.3335 7.90047 1.3335 16.0007C1.3335 24.1008 7.89999 30.6673 16.0002 30.6673Z" fill="#E6E3FF"/>
<path fill-rule="evenodd" clip-rule="evenodd" d="M15.9998 8.66602C11.9498 8.66602 8.6665 11.9493 8.6665 15.9993C8.6665 20.0493 11.9498 23.3327 15.9998 23.3327C20.0498 23.3327 23.3332 20.0493 23.3332 15.9993C23.3332 11.9493 20.0498 8.66602 15.9998 8.66602ZM15.2612 13.956C15.4145 13.654 15.5278 13.5107 15.6218 13.436C15.6925 13.38 15.7885 13.3327 15.9998 13.3327C16.4165 13.3327 16.6665 13.646 16.6665 13.9847C16.6665 14.17 16.6305 14.262 16.5318 14.3793C16.3938 14.5433 16.1385 14.7427 15.6332 15.0767L15.3332 15.274V16.666C15.3332 16.8428 15.4034 17.0124 15.5284 17.1374C15.6535 17.2624 15.823 17.3327 15.9998 17.3327C16.1766 17.3327 16.3462 17.2624 16.4712 17.1374C16.5963 17.0124 16.6665 16.8428 16.6665 16.666V15.988C17.0278 15.7387 17.3312 15.5 17.5512 15.2387C17.8692 14.8613 17.9998 14.4587 17.9998 13.9847C17.9998 13.0047 17.2445 11.9993 15.9998 11.9993C15.5438 11.9993 15.1405 12.1167 14.7945 12.3907C14.4718 12.646 14.2518 12.9973 14.0718 13.354C14.03 13.4323 14.0042 13.5182 13.9961 13.6066C13.9879 13.695 13.9974 13.7842 14.0242 13.8688C14.0509 13.9535 14.0943 14.032 14.1517 14.0996C14.2092 14.1673 14.2796 14.2228 14.3588 14.2629C14.438 14.303 14.5244 14.3269 14.613 14.3331C14.7016 14.3394 14.7905 14.3278 14.8745 14.2993C14.9586 14.2707 15.0361 14.2256 15.1025 14.1666C15.1689 14.1077 15.2228 14.0361 15.2612 13.956ZM16.6665 18.9993C16.6665 18.8225 16.5963 18.653 16.4712 18.5279C16.3462 18.4029 16.1766 18.3327 15.9998 18.3327C15.823 18.3327 15.6535 18.4029 15.5284 18.5279C15.4034 18.653 15.3332 18.8225 15.3332 18.9993V19.3327C15.3332 19.5095 15.4034 19.6791 15.5284 19.8041C15.6535 19.9291 15.823 19.9993 15.9998 19.9993C16.1766 19.9993 16.3462 19.9291 16.4712 19.8041C16.5963 19.6791 16.6665 19.5095 16.6665 19.3327V18.9993Z" fill="#6A5ECE"/>
</svg>
