<svg width="34" height="36" viewBox="0 0 34 36" fill="none" xmlns="http://www.w3.org/2000/svg">
<defs>
<linearGradient id="paint0_linear_653_6444" x1="5.45019" y1="16.9369" x2="32.935" y2="65.5455" gradientUnits="userSpaceOnUse">
<stop stop-color="#A89EFF"/>
<stop offset="0.02" stop-color="#ABA2FF"/>
<stop offset="0.2" stop-color="#C9C3FF"/>
<stop offset="0.39" stop-color="#E1DDFF"/>
<stop offset="0.58" stop-color="#F2F0FF"/>
<stop offset="0.78" stop-color="#FCFBFF"/>
<stop offset="1" stop-color="white"/>
</linearGradient>
<linearGradient id="paint1_linear_653_6444" x1="36.9015" y1="13.958" x2="-55.177" y2="83.7875" gradientUnits="userSpaceOnUse">
<stop stop-color="#FF98B2"/>
<stop offset="0.04" stop-color="#FFA2B9"/>
<stop offset="0.22" stop-color="#FFC3D2"/>
<stop offset="0.41" stop-color="#FFDDE6"/>
<stop offset="0.6" stop-color="#FFF0F4"/>
<stop offset="0.79" stop-color="#FFFBFC"/>
<stop offset="1" stop-color="white"/>
</linearGradient>
<linearGradient id="paint2_linear_653_6444" x1="18.1115" y1="2.86338" x2="18.3324" y2="42.509" gradientUnits="userSpaceOnUse">
<stop stop-color="#FFCA6C"/>
<stop offset="0.04" stop-color="#FFCE78"/>
<stop offset="0.19" stop-color="#FFDDA1"/>
<stop offset="0.34" stop-color="#FFE9C3"/>
<stop offset="0.5" stop-color="#FFF3DD"/>
<stop offset="0.66" stop-color="#FFFAF0"/>
<stop offset="0.82" stop-color="#FFFEFB"/>
<stop offset="1" stop-color="white"/>
</linearGradient>
</defs>
<path d="M15.7962 23.3543C16.2285 45.6028 17.0353 30.5686 7.53454 28.6857C5.27702 28.2342 0.81035 26.0345 0.675859 21.6539C0.541369 17.2734 4.94117 14.1702 9.11998 14.6409C13.2988 15.1116 15.7097 18.9833 15.7962 23.3543Z" fill="url(#paint0_linear_653_6444)"/>
<path d="M21.4638 20.9132C17.1601 38.2048 19.2065 26.3313 26.9589 26.5523C28.8033 26.6003 32.665 25.6779 33.568 22.2772C34.471 18.8765 31.5605 15.6872 28.2174 15.3125C24.8744 14.9379 22.2996 17.5221 21.4638 20.9132Z" fill="url(#paint1_linear_653_6444)"/>
<path d="M13.971 8.74261C18.8223 16.2549 17.6025 14.756 21.1472 9.87587C22.8284 7.5415 23.7698 6.08132 22.6074 3.39151C21.4451 0.701704 17.9001 0.106441 15.5081 1.57623C14.9332 1.94279 14.4365 2.41972 14.0475 2.97967C13.6584 3.53963 13.3846 4.17141 13.2416 4.83811C13.0986 5.50481 13.0892 6.19327 13.2144 6.86354C13.3396 7.5338 13.5969 8.17251 13.971 8.74261Z" fill="url(#paint2_linear_653_6444)"/>
</svg>
