<svg width="32" height="32" viewBox="0 0 32 32" fill="none" xmlns="http://www.w3.org/2000/svg">
<path d="M16.0002 30.6663C24.1003 30.6663 30.6668 24.0998 30.6668 15.9997C30.6668 7.8995 24.1003 1.33301 16.0002 1.33301C7.89999 1.33301 1.3335 7.8995 1.3335 15.9997C1.3335 24.0998 7.89999 30.6663 16.0002 30.6663Z" fill="#FFEAEF"/>
<path d="M16.75 19V19.75C16.75 20.3467 16.5129 20.919 16.091 21.341C15.669 21.7629 15.0967 22 14.5 22H11.5C10.9033 22 10.331 21.7629 9.90901 21.341C9.48705 20.919 9.25 20.3467 9.25 19.75V12.25C9.25 11.6533 9.48705 11.081 9.90901 10.659C10.331 10.2371 10.9033 10 11.5 10H14.5C15.0967 10 15.669 10.2371 16.091 10.659C16.5129 11.081 16.75 11.6533 16.75 12.25V13M19.75 19L22.75 16L19.75 19ZM22.75 16L19.75 13L22.75 16ZM22.75 16H12.25H22.75Z" stroke="#FF98B2" stroke-width="2" stroke-linecap="round" stroke-linejoin="round"/>
</svg>
