<svg width="21" height="21" viewBox="0 0 21 21" fill="none" xmlns="http://www.w3.org/2000/svg">
<path fill-rule="evenodd" clip-rule="evenodd" d="M6.56235 15.0939C6.56235 14.9199 6.63149 14.753 6.75456 14.6299C6.87763 14.5068 7.04455 14.4377 7.2186 14.4377H19.0311C19.2052 14.4377 19.3721 14.5068 19.4951 14.6299C19.6182 14.753 19.6874 14.9199 19.6874 15.0939C19.6874 15.268 19.6182 15.4349 19.4951 15.558C19.3721 15.6811 19.2052 15.7502 19.0311 15.7502H7.2186C7.04455 15.7502 6.87763 15.6811 6.75456 15.558C6.63149 15.4349 6.56235 15.268 6.56235 15.0939ZM6.56235 9.84395C6.56235 9.6699 6.63149 9.50298 6.75456 9.37991C6.87763 9.25684 7.04455 9.1877 7.2186 9.1877H19.0311C19.2052 9.1877 19.3721 9.25684 19.4951 9.37991C19.6182 9.50298 19.6874 9.6699 19.6874 9.84395C19.6874 10.018 19.6182 10.1849 19.4951 10.308C19.3721 10.4311 19.2052 10.5002 19.0311 10.5002H7.2186C7.04455 10.5002 6.87763 10.4311 6.75456 10.308C6.63149 10.1849 6.56235 10.018 6.56235 9.84395ZM6.56235 4.59395C6.56235 4.4199 6.63149 4.25298 6.75456 4.12991C6.87763 4.00684 7.04455 3.9377 7.2186 3.9377H19.0311C19.2052 3.9377 19.3721 4.00684 19.4951 4.12991C19.6182 4.25298 19.6874 4.4199 19.6874 4.59395C19.6874 4.76799 19.6182 4.93491 19.4951 5.05799C19.3721 5.18106 19.2052 5.2502 19.0311 5.2502H7.2186C7.04455 5.2502 6.87763 5.18106 6.75456 5.05799C6.63149 4.93491 6.56235 4.76799 6.56235 4.59395ZM5.05823 2.81682C5.11934 2.87778 5.16783 2.9502 5.20091 3.02993C5.234 3.10966 5.25103 3.19513 5.25103 3.28145C5.25103 3.36777 5.234 3.45324 5.20091 3.53297C5.16783 3.61269 5.11934 3.68511 5.05823 3.74607L3.08948 5.71482C3.02852 5.77594 2.9561 5.82442 2.87637 5.85751C2.79664 5.89059 2.71117 5.90762 2.62485 5.90762C2.53853 5.90762 2.45306 5.89059 2.37333 5.85751C2.29361 5.82442 2.22119 5.77594 2.16023 5.71482L1.50398 5.05857C1.44296 4.99756 1.39456 4.92512 1.36154 4.8454C1.32852 4.76568 1.31152 4.68024 1.31152 4.59395C1.31152 4.50766 1.32852 4.42221 1.36154 4.34249C1.39456 4.26277 1.44296 4.19034 1.50398 4.12932C1.56499 4.06831 1.63743 4.01991 1.71715 3.98688C1.79687 3.95386 1.88231 3.93687 1.9686 3.93687C2.05489 3.93687 2.14034 3.95386 2.22006 3.98688C2.29978 4.01991 2.37221 4.06831 2.43323 4.12932L2.62485 4.32226L4.12898 2.81682C4.18994 2.75571 4.26236 2.70722 4.34208 2.67414C4.42181 2.64105 4.50728 2.62402 4.5936 2.62402C4.67992 2.62402 4.76539 2.64105 4.84512 2.67414C4.92485 2.70722 4.99727 2.75571 5.05823 2.81682ZM5.05823 8.06682C5.11934 8.12778 5.16783 8.2002 5.20091 8.27993C5.234 8.35966 5.25103 8.44513 5.25103 8.53145C5.25103 8.61777 5.234 8.70324 5.20091 8.78297C5.16783 8.86269 5.11934 8.93511 5.05823 8.99607L3.08948 10.9648C3.02852 11.0259 2.9561 11.0744 2.87637 11.1075C2.79664 11.1406 2.71117 11.1576 2.62485 11.1576C2.53853 11.1576 2.45306 11.1406 2.37333 11.1075C2.29361 11.0744 2.22119 11.0259 2.16023 10.9648L1.50398 10.3086C1.38075 10.1853 1.31152 10.0182 1.31152 9.84395C1.31152 9.66968 1.38075 9.50255 1.50398 9.37932C1.6272 9.25609 1.79433 9.18687 1.9686 9.18687C2.14287 9.18687 2.31 9.25609 2.43323 9.37932L2.62485 9.57226L4.12898 8.06682C4.18994 8.00571 4.26236 7.95722 4.34208 7.92414C4.42181 7.89105 4.50728 7.87402 4.5936 7.87402C4.67992 7.87402 4.76539 7.89105 4.84512 7.92414C4.92485 7.95722 4.99727 8.00571 5.05823 8.06682ZM5.05823 13.3168C5.11934 13.3778 5.16783 13.4502 5.20091 13.5299C5.234 13.6097 5.25103 13.6951 5.25103 13.7814C5.25103 13.8678 5.234 13.9532 5.20091 14.033C5.16783 14.1127 5.11934 14.1851 5.05823 14.2461L3.08948 16.2148C3.02852 16.2759 2.9561 16.3244 2.87637 16.3575C2.79664 16.3906 2.71117 16.4076 2.62485 16.4076C2.53853 16.4076 2.45306 16.3906 2.37333 16.3575C2.29361 16.3244 2.22119 16.2759 2.16023 16.2148L1.50398 15.5586C1.38075 15.4353 1.31152 15.2682 1.31152 15.0939C1.31152 14.9197 1.38075 14.7525 1.50398 14.6293C1.6272 14.5061 1.79433 14.4369 1.9686 14.4369C2.14287 14.4369 2.31 14.5061 2.43323 14.6293L2.62485 14.8223L4.12898 13.3168C4.18994 13.2557 4.26236 13.2072 4.34208 13.1741C4.42181 13.1411 4.50728 13.124 4.5936 13.124C4.67992 13.124 4.76539 13.1411 4.84512 13.1741C4.92485 13.2072 4.99727 13.2557 5.05823 13.3168Z" fill="#6A5ECE"/>
</svg>
