<svg width="32" height="32" viewBox="0 0 32 32" fill="none" xmlns="http://www.w3.org/2000/svg">
<path d="M16.0002 30.6673C24.1003 30.6673 30.6668 24.1008 30.6668 16.0007C30.6668 7.90047 24.1003 1.33398 16.0002 1.33398C7.89999 1.33398 1.3335 7.90047 1.3335 16.0007C1.3335 24.1008 7.89999 30.6673 16.0002 30.6673Z" fill="#E6E3FF"/>
<path d="M23.9869 14.4069C24.0718 13.9876 23.7321 13.4845 23.3074 13.4845L18.4662 12.8137L16.2579 8.45358C16.1729 8.28589 16.088 8.20204 15.9181 8.11819C15.4934 7.86664 14.9838 8.03434 14.729 8.45358L12.6057 12.8137L7.76441 13.4845C7.50961 13.4845 7.33974 13.5684 7.2548 13.7361C6.91507 14.0715 6.91507 14.5746 7.2548 14.91L10.7371 18.2639L9.88777 23.0433C9.88777 23.211 9.88777 23.3787 9.97271 23.5464C10.2275 23.9657 10.7371 24.1334 11.1618 23.8818L15.4934 21.6179L19.8251 23.8818C19.91 23.9657 20.0799 23.9657 20.2498 23.9657H20.4196C20.8443 23.8818 21.1841 23.4626 21.0991 22.9595L20.2498 18.1801L23.7321 14.8261C23.902 14.7423 23.9869 14.5746 23.9869 14.4069Z" fill="#6A5ECE"/>
</svg>
