<svg width="35" height="36" viewBox="0 0 35 36" fill="none" xmlns="http://www.w3.org/2000/svg">
<path fill-rule="evenodd" clip-rule="evenodd" d="M17.4985 0C7.83457 0 0 7.94647 0 17.7485C0 27.5504 7.83457 35.4969 17.4985 35.4969C27.1625 35.4969 34.9971 27.5504 34.9971 17.7485C34.9971 7.94647 27.1625 0 17.4985 0ZM19.0893 24.2024C19.0893 24.6304 18.9217 25.0408 18.6234 25.3433C18.325 25.6459 17.9204 25.8159 17.4985 25.8159C17.0766 25.8159 16.672 25.6459 16.3737 25.3433C16.0754 25.0408 15.9078 24.6304 15.9078 24.2024V19.3619H11.1354C10.7135 19.3619 10.3089 19.192 10.0106 18.8894C9.71225 18.5868 9.54465 18.1764 9.54465 17.7485C9.54465 17.3205 9.71225 16.9101 10.0106 16.6075C10.3089 16.3049 10.7135 16.135 11.1354 16.135H15.9078V11.2945C15.9078 10.8665 16.0754 10.4561 16.3737 10.1536C16.672 9.85097 17.0766 9.68097 17.4985 9.68097C17.9204 9.68097 18.325 9.85097 18.6234 10.1536C18.9217 10.4561 19.0893 10.8665 19.0893 11.2945V16.135H23.8616C24.2835 16.135 24.6882 16.3049 24.9865 16.6075C25.2848 16.9101 25.4524 17.3205 25.4524 17.7485C25.4524 18.1764 25.2848 18.5868 24.9865 18.8894C24.6882 19.192 24.2835 19.3619 23.8616 19.3619H19.0893V24.2024Z" fill="#FFCA6C"/>
<ellipse cx="17.498" cy="17.1129" rx="12.499" ry="12.0436" fill="#FFCA6C"/>
<path d="M10.4165 22.042V12.1607C10.4165 11.9955 10.4932 11.8302 10.6467 11.6649C10.8002 11.4996 10.9596 11.417 11.1248 11.417H20.3155C20.4925 11.417 20.6578 11.4967 20.8113 11.6561C20.9648 11.8154 21.0415 11.9837 21.0415 12.1607V18.4649C21.0415 18.6302 20.9648 18.7955 20.8113 18.9607C20.6578 19.126 20.4925 19.2087 20.3155 19.2087H13.2498L10.4165 22.042ZM13.9759 22.7503C13.8106 22.7503 13.6483 22.6677 13.4889 22.5024C13.3295 22.3371 13.2498 22.1719 13.2498 22.0066V20.2712H22.104V14.2503H23.8748C24.0401 14.2503 24.1995 14.333 24.353 14.4982C24.5064 14.6635 24.5832 14.8347 24.5832 15.0118V25.566L21.7675 22.7503H13.9759ZM19.979 12.4795H11.479V19.4743L12.8071 18.1462H19.979V12.4795ZM11.479 12.4795V18.1462V19.4743V12.4795Z" fill="white"/>
</svg>
