<svg width="56" height="56" viewBox="0 0 56 56" fill="none" xmlns="http://www.w3.org/2000/svg">
<path fill-rule="evenodd" clip-rule="evenodd" d="M28 0C12.5364 0 0 12.5364 0 28C0 43.4636 12.5364 56 28 56C43.4636 56 56 43.4636 56 28C56 12.5364 43.4636 0 28 0ZM30.5455 38.1818C30.5455 38.8569 30.2773 39.5044 29.7999 39.9817C29.3225 40.4591 28.6751 40.7273 28 40.7273C27.3249 40.7273 26.6775 40.4591 26.2001 39.9817C25.7227 39.5044 25.4545 38.8569 25.4545 38.1818V30.5455H17.8182C17.1431 30.5455 16.4956 30.2773 16.0183 29.7999C15.5409 29.3225 15.2727 28.6751 15.2727 28C15.2727 27.3249 15.5409 26.6775 16.0183 26.2001C16.4956 25.7227 17.1431 25.4545 17.8182 25.4545H25.4545V17.8182C25.4545 17.1431 25.7227 16.4956 26.2001 16.0183C26.6775 15.5409 27.3249 15.2727 28 15.2727C28.6751 15.2727 29.3225 15.5409 29.7999 16.0183C30.2773 16.4956 30.5455 17.1431 30.5455 17.8182V25.4545H38.1818C38.8569 25.4545 39.5044 25.7227 39.9817 26.2001C40.4591 26.6775 40.7273 27.3249 40.7273 28C40.7273 28.6751 40.4591 29.3225 39.9817 29.7999C39.5044 30.2773 38.8569 30.5455 38.1818 30.5455H30.5455V38.1818Z" fill="#FFCA6C"/>
<ellipse cx="27.9995" cy="26.9971" rx="20" ry="19" fill="#FFCA6C"/>
<path d="M16.6685 34.7737V19.1851C16.6685 18.9243 16.7912 18.6636 17.0368 18.4028C17.2824 18.1421 17.5374 18.0117 17.8019 18.0117H32.5081C32.7915 18.0117 33.0559 18.1374 33.3015 18.3889C33.5471 18.6403 33.6699 18.9057 33.6699 19.1851V29.1305C33.6699 29.3913 33.5471 29.652 33.3015 29.9128C33.0559 30.1735 32.7915 30.3039 32.5081 30.3039H21.2022L16.6685 34.7737ZM22.3639 35.8912C22.0995 35.8912 21.8397 35.7608 21.5847 35.5001C21.3297 35.2394 21.2022 34.9786 21.2022 34.7179V31.9801H35.37V22.4816H38.2036C38.4681 22.4816 38.7231 22.612 38.9687 22.8727C39.2142 23.1334 39.337 23.4035 39.337 23.6829V40.3331L34.8316 35.8912H22.3639ZM31.9697 19.6879H18.3686V30.7229L20.4938 28.6277H31.9697V19.6879ZM18.3686 19.6879V28.6277V30.7229V19.6879Z" fill="white"/>
</svg>
