<svg width="19" height="19" viewBox="0 0 19 19" fill="none" xmlns="http://www.w3.org/2000/svg">
<path d="M17.3376 14.8461L17.1582 14.6878C16.6491 14.2342 16.2035 13.7141 15.8335 13.1414C15.4293 12.3511 15.1871 11.488 15.121 10.6028V7.99555C15.1245 6.60518 14.6201 5.26139 13.7027 4.21665C12.7853 3.17191 11.5179 2.49814 10.1388 2.32194V1.64111C10.1388 1.45424 10.0645 1.27503 9.93238 1.14289C9.80025 1.01076 9.62104 0.936523 9.43417 0.936523C9.2473 0.936523 9.06809 1.01076 8.93595 1.14289C8.80382 1.27503 8.72959 1.45424 8.72959 1.64111V2.3325C7.36278 2.5214 6.11074 3.19924 5.20536 4.24047C4.29999 5.2817 3.80264 6.61575 3.80542 7.99555V10.6028C3.73932 11.488 3.49708 12.3511 3.09292 13.1414C2.72922 13.7126 2.2908 14.2327 1.78931 14.6878L1.60986 14.8461V16.3344H17.3376V14.8461Z" fill="#564CA7"/>
<path d="M8.08545 16.8887C8.13173 17.2232 8.29751 17.5297 8.55216 17.7516C8.80681 17.9734 9.13313 18.0956 9.47087 18.0956C9.8086 18.0956 10.1349 17.9734 10.3896 17.7516C10.6442 17.5297 10.81 17.2232 10.8563 16.8887H8.08545Z" fill="#564CA7"/>
</svg>
