<svg width="32" height="32" viewBox="0 0 32 32" fill="none" xmlns="http://www.w3.org/2000/svg">
<path d="M16.0002 30.6663C24.1003 30.6663 30.6668 24.0998 30.6668 15.9997C30.6668 7.8995 24.1003 1.33301 16.0002 1.33301C7.89999 1.33301 1.3335 7.8995 1.3335 15.9997C1.3335 24.0998 7.89999 30.6663 16.0002 30.6663Z" fill="#FFEAEF"/>
<path d="M21.5635 20.6203C21.6911 20.5741 21.8015 20.4898 21.8796 20.3788C21.9577 20.2678 21.9998 20.1354 22.0001 19.9997V19.333C22.0003 19.2454 21.9831 19.1587 21.9496 19.0778C21.916 18.9969 21.8668 18.9235 21.8048 18.8617L20.6668 17.7237V14.6663C20.6668 12.5217 19.2101 10.715 17.2368 10.1717C17.0415 9.67967 16.5641 9.33301 16.0001 9.33301C15.4361 9.33301 14.9588 9.67967 14.7635 10.1717C13.8815 10.4143 13.1215 10.9237 12.5328 11.5897L10.4715 9.52834L9.52881 10.471L21.5288 22.471L22.4715 21.5283L21.5635 20.6203ZM16.0001 22.6663C16.413 22.6669 16.8158 22.5387 17.1525 22.2998C17.4892 22.0608 17.743 21.7229 17.8788 21.333H14.1215C14.2573 21.7229 14.5111 22.0608 14.8478 22.2998C15.1845 22.5387 15.5873 22.6669 16.0001 22.6663ZM11.3335 14.6663V17.7237L10.1955 18.8617C10.1334 18.9235 10.0843 18.9969 10.0507 19.0778C10.0172 19.1587 10 19.2454 10.0001 19.333V19.9997C10.0001 20.1765 10.0704 20.3461 10.1954 20.4711C10.3204 20.5961 10.49 20.6663 10.6668 20.6663H17.9195L11.3788 14.1257C11.3581 14.3043 11.3335 14.4823 11.3335 14.6663Z" fill="#FF98B2"/>
</svg>
