<svg width="38" height="39" viewBox="0 0 38 39" fill="none" xmlns="http://www.w3.org/2000/svg">
<g filter="url(#filter0_d_711_7008)">
<path d="M19.0002 30.6663C27.1003 30.6663 33.6668 24.0998 33.6668 15.9997C33.6668 7.8995 27.1003 1.33301 19.0002 1.33301C10.9 1.33301 4.3335 7.8995 4.3335 15.9997C4.3335 24.0998 10.9 30.6663 19.0002 30.6663Z" fill="#E6E3FF"/>
<path d="M14.8032 10.473L13.8632 9.52634C11.6665 11.7083 11.6665 13.2897 11.6665 15.333H12.3332L12.9998 15.291C12.9998 13.339 12.9998 12.2637 14.8032 10.473ZM24.1358 9.52634L23.1972 10.473C24.9998 12.2637 24.9998 13.339 24.9998 15.333L26.3332 15.291C26.3332 13.2897 26.3332 11.7083 24.1358 9.52634ZM18.9998 22.6663C19.4127 22.6669 19.8155 22.5387 20.1522 22.2998C20.4889 22.0608 20.7427 21.7229 20.8785 21.333H17.1212C17.2569 21.7229 17.5108 22.0608 17.8475 22.2998C18.1842 22.5387 18.587 22.6669 18.9998 22.6663ZM23.6665 17.7237V14.6663C23.6665 12.5217 22.2098 10.715 20.2365 10.1717C20.0412 9.67967 19.5638 9.33301 18.9998 9.33301C18.4358 9.33301 17.9585 9.67967 17.7632 10.1717C15.7892 10.715 14.3332 12.5217 14.3332 14.6663V17.7237L13.1952 18.8617C13.1331 18.9235 13.084 18.9969 13.0504 19.0778C13.0169 19.1587 12.9997 19.2454 12.9998 19.333V19.9997C12.9998 20.1765 13.0701 20.3461 13.1951 20.4711C13.3201 20.5961 13.4897 20.6663 13.6665 20.6663H24.3332C24.51 20.6663 24.6796 20.5961 24.8046 20.4711C24.9296 20.3461 24.9998 20.1765 24.9998 19.9997V19.333C25 19.2454 24.9828 19.1587 24.9492 19.0778C24.9157 18.9969 24.8665 18.9235 24.8045 18.8617L23.6665 17.7237Z" fill="#6A5ECE"/>
</g>
<defs>
<filter id="filter0_d_711_7008" x="-1" y="0" width="40" height="40" filterUnits="userSpaceOnUse" color-interpolation-filters="sRGB">
<feFlood flood-opacity="0" result="BackgroundImageFix"/>
<feColorMatrix in="SourceAlpha" type="matrix" values="0 0 0 0 0 0 0 0 0 0 0 0 0 0 0 0 0 0 127 0" result="hardAlpha"/>
<feOffset dy="4"/>
<feGaussianBlur stdDeviation="2"/>
<feComposite in2="hardAlpha" operator="out"/>
<feColorMatrix type="matrix" values="0 0 0 0 0 0 0 0 0 0 0 0 0 0 0 0 0 0 0.25 0"/>
<feBlend mode="normal" in2="BackgroundImageFix" result="effect1_dropShadow_711_7008"/>
<feBlend mode="normal" in="SourceGraphic" in2="effect1_dropShadow_711_7008" result="shape"/>
</filter>
</defs>
</svg>
