<svg width="32" height="32" viewBox="0 0 32 32" fill="none" xmlns="http://www.w3.org/2000/svg">
<path d="M16.0002 30.6663C24.1003 30.6663 30.6668 24.0998 30.6668 15.9997C30.6668 7.8995 24.1003 1.33301 16.0002 1.33301C7.89999 1.33301 1.3335 7.8995 1.3335 15.9997C1.3335 24.0998 7.89999 30.6663 16.0002 30.6663Z" fill="#E6E3FF"/>
<path d="M11.8032 10.473L10.8632 9.52634C8.6665 11.7083 8.6665 13.2897 8.6665 15.333H9.33317L9.99984 15.291C9.99984 13.339 9.99984 12.2637 11.8032 10.473ZM21.1358 9.52634L20.1972 10.473C21.9998 12.2637 21.9998 13.339 21.9998 15.333L23.3332 15.291C23.3332 13.2897 23.3332 11.7083 21.1358 9.52634ZM15.9998 22.6663C16.4127 22.6669 16.8155 22.5387 17.1522 22.2998C17.4889 22.0608 17.7427 21.7229 17.8785 21.333H14.1212C14.2569 21.7229 14.5108 22.0608 14.8475 22.2998C15.1842 22.5387 15.587 22.6669 15.9998 22.6663ZM20.6665 17.7237V14.6663C20.6665 12.5217 19.2098 10.715 17.2365 10.1717C17.0412 9.67967 16.5638 9.33301 15.9998 9.33301C15.4358 9.33301 14.9585 9.67967 14.7632 10.1717C12.7892 10.715 11.3332 12.5217 11.3332 14.6663V17.7237L10.1952 18.8617C10.1331 18.9235 10.084 18.9969 10.0504 19.0778C10.0169 19.1587 9.99971 19.2454 9.99984 19.333V19.9997C9.99984 20.1765 10.0701 20.3461 10.1951 20.4711C10.3201 20.5961 10.4897 20.6663 10.6665 20.6663H21.3332C21.51 20.6663 21.6796 20.5961 21.8046 20.4711C21.9296 20.3461 21.9998 20.1765 21.9998 19.9997V19.333C22 19.2454 21.9828 19.1587 21.9492 19.0778C21.9157 18.9969 21.8665 18.9235 21.8045 18.8617L20.6665 17.7237Z" fill="#6A5ECE"/>
</svg>

