<svg width="32" height="32" viewBox="0 0 32 32" fill="none" xmlns="http://www.w3.org/2000/svg">
<path d="M15.9999 30.6663C24.1001 30.6663 30.6666 24.0998 30.6666 15.9997C30.6666 7.8995 24.1001 1.33301 15.9999 1.33301C7.89974 1.33301 1.33325 7.8995 1.33325 15.9997C1.33325 24.0998 7.89974 30.6663 15.9999 30.6663Z" fill="#E6E3FF"/>
<path d="M19.5 9H12.5C12.2348 9 11.9804 9.10536 11.7929 9.29289C11.6054 9.48043 11.5 9.73478 11.5 10V22C11.5 22.2652 11.6054 22.5196 11.7929 22.7071C11.9804 22.8946 12.2348 23 12.5 23H19.5C19.7652 23 20.0196 22.8946 20.2071 22.7071C20.3946 22.5196 20.5 22.2652 20.5 22V10C20.5 9.73478 20.3946 9.48043 20.2071 9.29289C20.0196 9.10536 19.7652 9 19.5 9ZM16.5 22H15.5V21H16.5V22ZM12.5 20V10H19.5V20H12.5Z" fill="#6A5ECE"/>
</svg>
