<svg width="12" height="12" viewBox="0 0 12 12" fill="none" xmlns="http://www.w3.org/2000/svg">
<g clip-path="url(#clip0_1225_12852)">
<path d="M3.1095 0.109501C3.14439 0.0746992 3.1858 0.0471157 3.23135 0.0283269C3.27691 0.00953812 3.32572 -8.74122e-05 3.375 5.9812e-07H8.625C8.72446 5.9812e-07 8.81984 0.0395094 8.89017 0.109836C8.96049 0.180162 9 0.275544 9 0.375001C9 0.885001 8.7435 1.2555 8.5155 1.48425C8.421 1.578 8.328 1.65225 8.25 1.70775V5.031L8.3085 5.067C8.46075 5.16225 8.6655 5.3025 8.87175 5.48325C9.27 5.83125 9.75 6.39525 9.75 7.125C9.75 7.22446 9.71049 7.31984 9.64017 7.39017C9.56984 7.46049 9.47446 7.5 9.375 7.5H6.375V10.875C6.375 11.082 6.207 12 6 12C5.793 12 5.625 11.082 5.625 10.875V7.5H2.625C2.52554 7.5 2.43016 7.46049 2.35984 7.39017C2.28951 7.31984 2.25 7.22446 2.25 7.125C2.25 6.39525 2.73 5.83125 3.1275 5.48325C3.32152 5.31477 3.52981 5.16346 3.75 5.031V1.70775C3.65542 1.64079 3.56661 1.56603 3.4845 1.48425C3.2565 1.2555 3 0.884251 3 0.375001C2.99991 0.325722 3.00954 0.276909 3.02833 0.231353C3.04712 0.185796 3.0747 0.14439 3.1095 0.109501Z" fill="#564CA7"/>
</g>
<defs>
<clipPath id="clip0_1225_12852">
<rect width="12" height="12" fill="white"/>
</clipPath>
</defs>
</svg>
