<svg width="32" height="32" viewBox="0 0 32 32" fill="none" xmlns="http://www.w3.org/2000/svg">
<path d="M16.0002 30.6673C24.1003 30.6673 30.6668 24.1008 30.6668 16.0007C30.6668 7.90047 24.1003 1.33398 16.0002 1.33398C7.89999 1.33398 1.3335 7.90047 1.3335 16.0007C1.3335 24.1008 7.89999 30.6673 16.0002 30.6673Z" fill="#E6E3FF"/>
<path d="M16 16C18.2094 16 20 14.2094 20 12C20 9.79063 18.2094 8 16 8C13.7906 8 12 9.79063 12 12C12 14.2094 13.7906 16 16 16ZM18.8 17H18.2781C17.5844 17.3188 16.8125 17.5 16 17.5C15.1875 17.5 14.4188 17.3188 13.7219 17H13.2C10.8812 17 9 18.8813 9 21.2V22.5C9 23.3281 9.67188 24 10.5 24H21.5C22.3281 24 23 23.3281 23 22.5V21.2C23 18.8813 21.1187 17 18.8 17Z" fill="#6A5ECE"/>
</svg>
