<svg width="16" height="16" viewBox="0 0 16 16" fill="none" xmlns="http://www.w3.org/2000/svg">
<g clip-path="url(#clip0_1168_13190)">
<path d="M8.09816 5.01345C8.12025 5.00372 8.14443 4.99971 8.16847 5.00177C8.19252 5.00383 8.21566 5.0119 8.23578 5.02525C8.25589 5.03859 8.27232 5.05677 8.28357 5.07812C8.29482 5.09948 8.30053 5.12331 8.30016 5.14745V6.30045C8.30016 6.43306 8.35284 6.56023 8.4466 6.654C8.54037 6.74777 8.66755 6.80045 8.80016 6.80045C9.46716 6.80045 10.8132 6.80545 12.1002 7.62245C13.0842 8.24645 14.0902 9.38245 14.6952 11.4984C13.6752 10.5154 12.5102 9.98245 11.4902 9.69945C10.8632 9.52629 10.2189 9.42365 9.56916 9.39345C9.30321 9.38177 9.03682 9.38444 8.77116 9.40145H8.75816L8.75316 9.40245H8.75216L8.80016 9.90045L8.75016 9.40245C8.62674 9.41485 8.51234 9.47269 8.42918 9.56472C8.34602 9.65675 8.30003 9.77641 8.30016 9.90045V11.0534C8.30016 11.1614 8.19016 11.2294 8.09816 11.1874L4.11416 8.25445C4.10064 8.24442 4.08662 8.23507 4.07216 8.22645C4.05041 8.21338 4.03242 8.19491 4.01993 8.17283C4.00744 8.15075 4.00087 8.12582 4.00087 8.10045C4.00087 8.07508 4.00744 8.05014 4.01993 8.02806C4.03242 8.00598 4.05041 7.98751 4.07216 7.97445C4.08662 7.96583 4.10064 7.95649 4.11416 7.94645L8.09816 5.01345V5.01345ZM9.30016 10.3864C9.36816 10.3864 9.44316 10.3894 9.52316 10.3924C9.95716 10.4124 10.5572 10.4784 11.2232 10.6634C12.5492 11.0314 14.1192 11.8654 15.1632 13.7434C15.2196 13.8448 15.3096 13.9234 15.4176 13.9657C15.5257 14.008 15.6451 14.0115 15.7553 13.9754C15.8656 13.9394 15.9599 13.8661 16.0221 13.7681C16.0843 13.6701 16.1105 13.5536 16.0962 13.4384C15.6322 9.72845 14.2102 7.77645 12.6362 6.77845C11.3912 5.98845 10.1092 5.83645 9.30016 5.80745V5.14745C9.30025 4.94152 9.24476 4.73938 9.13953 4.56236C9.0343 4.38535 8.88324 4.24001 8.70229 4.14171C8.52134 4.0434 8.31721 3.99575 8.11143 4.0038C7.90566 4.01186 7.70587 4.0753 7.53316 4.18745L3.53916 7.12745C3.37404 7.23052 3.23786 7.37391 3.14346 7.54413C3.04905 7.71435 2.99951 7.9058 2.99951 8.10045C2.99951 8.2951 3.04905 8.48654 3.14346 8.65676C3.23786 8.82698 3.37404 8.97038 3.53916 9.07345L7.53316 12.0134C7.70587 12.1256 7.90566 12.189 8.11143 12.1971C8.31721 12.2051 8.52134 12.1575 8.70229 12.0592C8.88324 11.9609 9.0343 11.8155 9.13953 11.6385C9.24476 11.4615 9.30025 11.2594 9.30016 11.0534V10.3864V10.3864Z" fill="white"/>
<path d="M5.23213 4.29371C5.19318 4.24072 5.14416 4.19593 5.08788 4.16192C5.03159 4.1279 4.96915 4.10533 4.90413 4.09548C4.8391 4.08563 4.77277 4.08871 4.70894 4.10454C4.64511 4.12036 4.58503 4.14863 4.53213 4.18771L0.540133 7.12771C0.375013 7.23078 0.238839 7.37417 0.144432 7.54439C0.0500239 7.71461 0.000488281 7.90606 0.000488281 8.10071C0.000488281 8.29536 0.0500239 8.4868 0.144432 8.65702C0.238839 8.82724 0.375013 8.97064 0.540133 9.07371L4.53413 12.0137C4.58689 12.0541 4.64716 12.0835 4.71142 12.1003C4.77568 12.1171 4.84264 12.1209 4.9084 12.1116C4.97416 12.1022 5.03739 12.0798 5.09441 12.0458C5.15142 12.0117 5.20107 11.9666 5.24047 11.9131C5.27986 11.8596 5.30821 11.7988 5.32384 11.7343C5.33948 11.6697 5.3421 11.6027 5.33155 11.5371C5.321 11.4716 5.29749 11.4087 5.26239 11.3524C5.22729 11.296 5.18131 11.2471 5.12713 11.2087L1.11413 8.25471C1.10061 8.24468 1.08659 8.23533 1.07213 8.22671C1.05039 8.21364 1.0324 8.19517 1.01991 8.17309C1.00741 8.15101 1.00085 8.12608 1.00085 8.10071C1.00085 8.07534 1.00741 8.0504 1.01991 8.02832C1.0324 8.00625 1.05039 7.98777 1.07213 7.97471C1.0866 7.96609 1.10061 7.95674 1.11413 7.94671L5.12613 4.99271C5.23286 4.91406 5.30399 4.79624 5.32387 4.66516C5.34375 4.53407 5.31075 4.40047 5.23213 4.29371V4.29371Z" fill="white"/>
</g>
<defs>
<clipPath id="clip0_1168_13190">
<rect width="16" height="16" fill="white"/>
</clipPath>
</defs>
</svg>
