<svg width="16" height="16" viewBox="0 0 16 16" fill="none" xmlns="http://www.w3.org/2000/svg">
<path d="M5.92121 11.8998L1.35321 8.61982C1.24562 8.55624 1.15645 8.46571 1.09452 8.35716C1.03258 8.24861 1 8.12579 1 8.00082C1 7.87584 1.03258 7.75302 1.09452 7.64447C1.15645 7.53593 1.24562 7.4454 1.35321 7.38182L5.92121 4.09982C6.0301 4.03577 6.154 4.00167 6.28033 4.00099C6.40666 4.0003 6.53092 4.03305 6.6405 4.09592C6.75008 4.15878 6.84108 4.24952 6.90426 4.35892C6.96743 4.46832 7.00054 4.59249 7.00021 4.71882V5.99982C8.50021 5.99982 13.0002 5.99982 14.0002 13.9998C11.5002 9.49982 7.00021 9.99982 7.00021 9.99982V11.2808C7.00021 11.8408 6.39421 12.1788 5.92121 11.9008V11.8998Z" fill="#564CA7"/>
</svg>
