<svg width="32" height="32" viewBox="0 0 32 32" fill="none" xmlns="http://www.w3.org/2000/svg">
<path d="M16.0002 30.6663C24.1003 30.6663 30.6668 24.0998 30.6668 15.9997C30.6668 7.8995 24.1003 1.33301 16.0002 1.33301C7.89999 1.33301 1.3335 7.8995 1.3335 15.9997C1.3335 24.0998 7.89999 30.6663 16.0002 30.6663Z" fill="#FFEAEF"/>
<path d="M23.3778 20.9824L17.2045 9.62244C17.0816 9.39604 16.8999 9.207 16.6785 9.07528C16.4571 8.94355 16.2043 8.87402 15.9467 8.87402C15.6891 8.87402 15.4363 8.94355 15.2149 9.07528C14.9935 9.207 14.8118 9.39604 14.6889 9.62244L8.52003 20.9824C8.39804 21.2009 8.33544 21.4475 8.33848 21.6976C8.34152 21.9478 8.4101 22.1928 8.53736 22.4082C8.66462 22.6236 8.84613 22.8019 9.06378 22.9253C9.28143 23.0486 9.52762 23.1128 9.77781 23.1113H22.12C22.3677 23.1111 22.611 23.0466 22.8262 22.9241C23.0415 22.8017 23.2213 22.6255 23.348 22.4127C23.4748 22.2 23.5441 21.958 23.5494 21.7104C23.5546 21.4628 23.4955 21.2181 23.3778 21.0002V20.9824ZM15.3778 12.4447C15.3778 12.2796 15.4434 12.1214 15.5601 12.0047C15.6767 11.888 15.835 11.8224 16 11.8224C16.1651 11.8224 16.3233 11.888 16.44 12.0047C16.5567 12.1214 16.6223 12.2796 16.6223 12.4447V17.778C16.6223 17.943 16.5567 18.1013 16.44 18.218C16.3233 18.3347 16.1651 18.4002 16 18.4002C15.835 18.4002 15.6767 18.3347 15.5601 18.218C15.4434 18.1013 15.3778 17.943 15.3778 17.778V12.4447ZM16 21.2669C15.8418 21.2669 15.6871 21.22 15.5556 21.1321C15.424 21.0442 15.3215 20.9192 15.2609 20.773C15.2004 20.6269 15.1845 20.466 15.2154 20.3108C15.2463 20.1556 15.3225 20.0131 15.4343 19.9012C15.5462 19.7893 15.6888 19.7131 15.844 19.6823C15.9991 19.6514 16.16 19.6672 16.3062 19.7278C16.4524 19.7883 16.5773 19.8909 16.6652 20.0224C16.7531 20.154 16.8 20.3087 16.8 20.4669C16.8 20.5719 16.7793 20.676 16.7391 20.773C16.6989 20.8701 16.64 20.9583 16.5657 21.0326C16.4914 21.1069 16.4032 21.1658 16.3062 21.206C16.2091 21.2462 16.1051 21.2669 16 21.2669V21.2669Z" fill="#FF98B2"/>
</svg>
