<svg width="16" height="16" viewBox="0 0 16 16" fill="none" xmlns="http://www.w3.org/2000/svg">
<path d="M15.3778 12.9824L9.20447 1.62244C9.08159 1.39604 8.89987 1.207 8.6785 1.07528C8.45712 0.943554 8.2043 0.874023 7.9467 0.874023C7.6891 0.874023 7.43627 0.943554 7.2149 1.07528C6.99352 1.207 6.8118 1.39604 6.68892 1.62244L0.52003 12.9824C0.39804 13.2009 0.335444 13.4475 0.338485 13.6976C0.341525 13.9478 0.410095 14.1928 0.537357 14.4082C0.664619 14.6236 0.846127 14.8019 1.06378 14.9253C1.28143 15.0486 1.52762 15.1128 1.77781 15.1113H14.12C14.3677 15.1111 14.611 15.0466 14.8262 14.9241C15.0415 14.8017 15.2213 14.6255 15.348 14.4127C15.4748 14.2 15.5441 13.958 15.5494 13.7104C15.5546 13.4628 15.4955 13.2181 15.3778 13.0002V12.9824ZM7.37781 4.44466C7.37781 4.27964 7.44336 4.12137 7.56005 4.00468C7.67674 3.88799 7.83501 3.82244 8.00003 3.82244C8.16505 3.82244 8.32332 3.88799 8.44001 4.00468C8.5567 4.12137 8.62225 4.27964 8.62225 4.44466V9.778C8.62225 9.94302 8.5567 10.1013 8.44001 10.218C8.32332 10.3347 8.16505 10.4002 8.00003 10.4002C7.83501 10.4002 7.67674 10.3347 7.56005 10.218C7.44336 10.1013 7.37781 9.94302 7.37781 9.778V4.44466ZM8.00003 13.2669C7.84181 13.2669 7.68713 13.22 7.55557 13.1321C7.42401 13.0442 7.32148 12.9192 7.26093 12.773C7.20038 12.6269 7.18453 12.466 7.2154 12.3108C7.24627 12.1556 7.32246 12.0131 7.43434 11.9012C7.54623 11.7893 7.68877 11.7131 7.84396 11.6823C7.99914 11.6514 8.16 11.6672 8.30618 11.7278C8.45236 11.7883 8.5773 11.8909 8.66521 12.0224C8.75311 12.154 8.80003 12.3087 8.80003 12.4669C8.80003 12.5719 8.77934 12.676 8.73913 12.773C8.69893 12.8701 8.64 12.9583 8.56572 13.0326C8.49143 13.1069 8.40324 13.1658 8.30618 13.206C8.20912 13.2462 8.10509 13.2669 8.00003 13.2669V13.2669Z" fill="#FF98B2"/>
</svg>
