<svg width="32" height="32" viewBox="0 0 32 32" fill="none" xmlns="http://www.w3.org/2000/svg">
<defs>
<clipPath id="clip0_1296_13983">
<rect width="16" height="16" fill="white" transform="translate(8 8)"/>
</clipPath>
</defs>
<path d="M16.0002 30.6673C24.1003 30.6673 30.6668 24.1008 30.6668 16.0007C30.6668 7.90047 24.1003 1.33398 16.0002 1.33398C7.89999 1.33398 1.3335 7.90047 1.3335 16.0007C1.3335 24.1008 7.89999 30.6673 16.0002 30.6673Z" fill="#E6E3FF"/>
<g clip-path="url(#clip0_1296_13983)">
<path d="M10 10V23.5C9.99994 23.5868 10.0225 23.6722 10.0654 23.7476C10.1084 23.8231 10.1702 23.8861 10.2449 23.9304C10.3196 23.9747 10.4045 23.9988 10.4913 24.0003C10.5781 24.0018 10.6638 23.9807 10.74 23.939L16 21.069L21.26 23.939C21.3362 23.9807 21.4219 24.0018 21.5087 24.0003C21.5955 23.9988 21.6804 23.9747 21.7551 23.9304C21.8298 23.8861 21.8916 23.8231 21.9346 23.7476C21.9775 23.6722 22.0001 23.5868 22 23.5V10C22 9.46957 21.7893 8.96086 21.4142 8.58579C21.0391 8.21071 20.5304 8 20 8H12C11.4696 8 10.9609 8.21071 10.5858 8.58579C10.2107 8.96086 10 9.46957 10 10Z" fill="#6A5ECE"/>
</g>
</svg>
