<svg width="21" height="21" viewBox="0 0 21 21" fill="none" xmlns="http://www.w3.org/2000/svg">
<path d="M8.75 15.75C10.3031 15.7497 11.8115 15.2298 13.0349 14.273L19 20.5L20.5 19L14.2721 13.0357C15.2294 11.8122 15.7496 10.3035 15.75 8.75C15.75 4.89037 12.6096 1.75 8.75 1.75C4.89038 1.75 1.75 4.89037 1.75 8.75C1.75 12.6096 4.89038 15.75 8.75 15.75ZM8.75 3.5C11.6454 3.5 14 5.85462 14 8.75C14 11.6454 11.6454 14 8.75 14C5.85462 14 3.5 11.6454 3.5 8.75C3.5 5.85462 5.85462 3.5 8.75 3.5Z" fill="#564CA7"/>
</svg>
