<svg width="23" height="25" viewBox="0 0 23 25" fill="none" xmlns="http://www.w3.org/2000/svg">
<g clip-path="url(#clip0_700_6958)" filter="url(#filter0_d_700_6958)">
<path d="M7.27277 6.17692C6.26397 6.96942 5.59838 8.11935 5.41366 9.38884C5.22895 10.6583 5.53925 11.9502 6.28038 12.9974C7.02151 14.0445 8.13677 14.7667 9.39545 15.0145C10.6541 15.2624 11.9599 15.017 13.0427 14.3291L14.9118 16.7076C14.9937 16.8119 15.1137 16.8793 15.2454 16.8951C15.377 16.9109 15.5096 16.8738 15.6138 16.7918C15.7181 16.7099 15.7856 16.5899 15.8014 16.4582C15.8171 16.3266 15.78 16.194 15.6981 16.0898L13.829 13.7112C14.7535 12.8218 15.3008 11.6111 15.3576 10.3295C15.4145 9.04792 14.9765 7.79351 14.1344 6.82576C13.2923 5.85801 12.1104 5.25096 10.8332 5.13019C9.55608 5.00943 8.28137 5.38418 7.27277 6.17692ZM12.8335 13.2535C12.2114 13.7423 11.4584 14.0357 10.6696 14.0965C9.88083 14.1574 9.09172 13.9829 8.40208 13.5953C7.71244 13.2076 7.15323 12.6242 6.79518 11.9187C6.43712 11.2133 6.2963 10.4175 6.39053 9.63198C6.48475 8.84648 6.80978 8.10657 7.32452 7.5058C7.83926 6.90503 8.52059 6.4704 9.28235 6.25685C10.0441 6.04331 10.8521 6.06044 11.6041 6.3061C12.3561 6.55175 13.0184 7.01489 13.5072 7.63695C14.1615 8.47154 14.458 9.5316 14.3317 10.5846C14.2054 11.6375 13.6666 12.5974 12.8335 13.2535Z" fill="#7B61FF"/>
</g>
<defs>
<filter id="filter0_d_700_6958" x="-3.94434" y="0.0546875" width="30.4663" height="30.4668" filterUnits="userSpaceOnUse" color-interpolation-filters="sRGB">
<feFlood flood-opacity="0" result="BackgroundImageFix"/>
<feColorMatrix in="SourceAlpha" type="matrix" values="0 0 0 0 0 0 0 0 0 0 0 0 0 0 0 0 0 0 127 0" result="hardAlpha"/>
<feOffset dy="4"/>
<feGaussianBlur stdDeviation="2"/>
<feComposite in2="hardAlpha" operator="out"/>
<feColorMatrix type="matrix" values="0 0 0 0 0 0 0 0 0 0 0 0 0 0 0 0 0 0 0.25 0"/>
<feBlend mode="normal" in2="BackgroundImageFix" result="effect1_dropShadow_700_6958"/>
<feBlend mode="normal" in="SourceGraphic" in2="effect1_dropShadow_700_6958" result="shape"/>
</filter>
<clipPath id="clip0_700_6958">
<rect width="16" height="16" fill="white" transform="translate(0.0556641 9.94043) rotate(-38.1598)"/>
</clipPath>
</defs>
</svg>
