<svg width="30" height="30" viewBox="0 0 30 30" fill="none" xmlns="http://www.w3.org/2000/svg">
<path d="M14.6667 29.3333C22.7668 29.3333 29.3333 22.7668 29.3333 14.6667C29.3333 6.56649 22.7668 0 14.6667 0C6.56649 0 0 6.56649 0 14.6667C0 22.7668 6.56649 29.3333 14.6667 29.3333Z" fill="#E6E3FF"/>
<path d="M12.5384 14.166C12.5384 14.6672 12.755 15.1478 13.1404 15.5021C13.5258 15.8565 14.0485 16.0556 14.5936 16.0556C15.1387 16.0556 15.6614 15.8565 16.0468 15.5021C16.4322 15.1478 16.6488 14.6672 16.6488 14.166C16.6488 13.6649 16.4322 13.1843 16.0468 12.8299C15.6614 12.4755 15.1387 12.2764 14.5936 12.2764C14.0485 12.2764 13.5258 12.4755 13.1404 12.8299C12.755 13.1843 12.5384 13.6649 12.5384 14.166V14.166ZM22.561 13.7307C20.8215 10.3616 18.192 8.66602 14.667 8.66602C11.1402 8.66602 8.5125 10.3616 6.77295 13.7324C6.70318 13.8683 6.66699 14.0166 6.66699 14.1669C6.66699 14.3171 6.70318 14.4654 6.77295 14.6013C8.5125 17.9705 11.142 19.666 14.667 19.666C18.1938 19.666 20.8215 17.9705 22.561 14.5996C22.7023 14.3263 22.7023 14.0091 22.561 13.7307V13.7307ZM14.5936 17.1353C12.81 17.1353 11.364 15.8059 11.364 14.166C11.364 12.5261 12.81 11.1967 14.5936 11.1967C16.3772 11.1967 17.8231 12.5261 17.8231 14.166C17.8231 15.8059 16.3772 17.1353 14.5936 17.1353Z" fill="#6A5ECE"/>
</svg>
