<svg width="32" height="32" viewBox="0 0 32 32" fill="none" xmlns="http://www.w3.org/2000/svg">
<path d="M15.9997 30.6673C24.0998 30.6673 30.6663 24.1008 30.6663 16.0007C30.6663 7.90047 24.0998 1.33398 15.9997 1.33398C7.8995 1.33398 1.33301 7.90047 1.33301 16.0007C1.33301 24.1008 7.8995 30.6673 15.9997 30.6673Z" fill="#E6E3FF"/>
<path d="M18.6663 9.33398H13.333C11.127 9.33398 9.33301 11.128 9.33301 13.334V22.0007C9.33301 22.1775 9.40325 22.347 9.52827 22.4721C9.65329 22.5971 9.82286 22.6673 9.99967 22.6673H18.6663C20.8723 22.6673 22.6663 20.8733 22.6663 18.6673V13.334C22.6663 11.128 20.8723 9.33398 18.6663 9.33398ZM17.333 18.0007H12.6663V16.6673H17.333V18.0007ZM19.333 15.334H12.6663V14.0007H19.333V15.334Z" fill="#6A5ECE"/>
</svg>
