<svg width="80" height="80" viewBox="0 0 80 80" fill="none" xmlns="http://www.w3.org/2000/svg">
<path fill-rule="evenodd" clip-rule="evenodd" d="M40.0002 3.3335C19.7502 3.3335 3.3335 19.7502 3.3335 40.0002C3.3335 60.2502 19.7502 76.6668 40.0002 76.6668C60.2502 76.6668 76.6668 60.2502 76.6668 40.0002C76.6668 19.7502 60.2502 3.3335 40.0002 3.3335ZM55.8935 33.8002C56.1861 33.4656 56.4089 33.076 56.5488 32.6541C56.6886 32.2322 56.7427 31.7865 56.7077 31.3434C56.6728 30.9003 56.5496 30.4687 56.3454 30.0739C56.1412 29.6791 55.8601 29.3292 55.5187 29.0446C55.1772 28.7601 54.7823 28.5467 54.3572 28.417C53.932 28.2874 53.4852 28.244 53.0431 28.2896C52.601 28.3351 52.1724 28.4686 51.7826 28.6823C51.3929 28.8959 51.0498 29.1853 50.7735 29.5335L36.4402 46.7302L29.0235 39.3102C28.3948 38.703 27.5528 38.367 26.6788 38.3746C25.8048 38.3822 24.9688 38.7327 24.3508 39.3508C23.7327 39.9688 23.3822 40.8048 23.3746 41.6788C23.367 42.5528 23.703 43.3948 24.3102 44.0235L34.3102 54.0235C34.6377 54.3508 35.0298 54.6063 35.4615 54.7737C35.8933 54.9411 36.3552 55.0167 36.8177 54.9957C37.2803 54.9746 37.7334 54.8575 38.1482 54.6517C38.563 54.4458 38.9303 54.1558 39.2268 53.8002L55.8935 33.8002Z" fill="#6A5ECE"/>
</svg>
