<svg width="30" height="30" viewBox="0 0 30 30" fill="none" xmlns="http://www.w3.org/2000/svg">
<path d="M14.6667 29.3333C22.7668 29.3333 29.3333 22.7668 29.3333 14.6667C29.3333 6.56649 22.7668 0 14.6667 0C6.56649 0 0 6.56649 0 14.6667C0 22.7668 6.56649 29.3333 14.6667 29.3333Z" fill="#E6E3FF"/>
<path fill-rule="evenodd" clip-rule="evenodd" d="M20.7616 14.6665V10.0951C20.7616 9.69096 20.6011 9.30337 20.3153 9.0176C20.0295 8.73183 19.642 8.57129 19.2378 8.57129H14.6664C14.2622 8.57129 13.8747 8.73183 13.5889 9.0176C13.3031 9.30337 13.1426 9.69096 13.1426 10.0951V14.6665C13.1426 15.0707 13.3031 15.4583 13.5889 15.744C13.8747 16.0298 14.2622 16.1903 14.6664 16.1903H19.2378C19.642 16.1903 20.0295 16.0298 20.3153 15.744C20.6011 15.4583 20.7616 15.0707 20.7616 14.6665Z" stroke="#6A5ECE" stroke-width="0.8" stroke-linecap="round" stroke-linejoin="round"/>
<path d="M12.3808 16.1922H10.0951M11.6189 13.1445H10.0951C9.69096 13.1445 9.30337 13.3051 9.0176 13.5908C8.73183 13.8766 8.57129 14.2642 8.57129 14.6683V19.2398C8.57129 19.6439 8.73183 20.0315 9.0176 20.3173C9.30337 20.603 9.69096 20.7636 10.0951 20.7636H10.0974L14.6688 20.756C15.0726 20.7554 15.4596 20.5945 15.7448 20.3088C16.0301 20.0231 16.1903 19.6359 16.1903 19.2321V17.7137L11.6189 13.1445Z" stroke="#6A5ECE" stroke-width="0.8" stroke-linecap="round" stroke-linejoin="round"/>
<path d="M13.5236 17.333L12.7617 18.0949C12.5072 18.3486 11.8733 18.7296 10.8569 19.2378" stroke="#6A5ECE" stroke-width="0.8" stroke-linecap="round" stroke-linejoin="round"/>
<path d="M18.476 13.1423H15.4284M10.8569 16.1923C11.1114 17.0806 11.4924 17.7161 11.9998 18.0962C12.5072 18.4764 13.1426 18.8566 13.9046 19.2376L10.8569 16.1923ZM16.9522 10.0947L14.6665 14.6662L16.9522 10.0947ZM16.9522 10.0947L19.2379 14.6662L16.9522 10.0947Z" stroke="#6A5ECE" stroke-width="0.8" stroke-linecap="round" stroke-linejoin="round"/>
</svg>
