<svg width="16" height="16" viewBox="0 0 16 16" fill="none" xmlns="http://www.w3.org/2000/svg">
<path fill-rule="evenodd" clip-rule="evenodd" d="M14.0951 7.99954V3.42811C14.0951 3.02397 13.9346 2.63638 13.6488 2.35061C13.363 2.06484 12.9755 1.9043 12.5713 1.9043H7.99988C7.59574 1.9043 7.20816 2.06484 6.92239 2.35061C6.63662 2.63638 6.47607 3.02397 6.47607 3.42811V7.99954C6.47607 8.40367 6.63662 8.79126 6.92239 9.07703C7.20816 9.3628 7.59574 9.52334 7.99988 9.52334H12.5713C12.9755 9.52334 13.363 9.3628 13.6488 9.07703C13.9346 8.79126 14.0951 8.40367 14.0951 7.99954Z" stroke="#6A5ECE" stroke-width="0.8" stroke-linecap="round" stroke-linejoin="round"/>
<path d="M5.71431 9.52516H3.42859M4.9524 6.47754H3.42859C3.02446 6.47754 2.63687 6.63808 2.3511 6.92385C2.06533 7.20962 1.90479 7.59721 1.90479 8.00135V12.5728C1.90479 12.9769 2.06533 13.3645 2.3511 13.6503C2.63687 13.936 3.02446 14.0966 3.42859 14.0966H3.43088L8.00231 14.089C8.40605 14.0884 8.79305 13.9276 9.07833 13.6418C9.3636 13.3561 9.52383 12.9689 9.52383 12.5652V11.0467L4.9524 6.47754Z" stroke="#6A5ECE" stroke-width="0.8" stroke-linecap="round" stroke-linejoin="round"/>
<path d="M6.8571 10.666L6.09519 11.4279C5.84072 11.6816 5.20681 12.0626 4.19043 12.5708" stroke="#6A5ECE" stroke-width="0.8" stroke-linecap="round" stroke-linejoin="round"/>
<path d="M11.8095 6.47535H8.76186M4.19043 9.52526C4.44491 10.4136 4.82586 11.0491 5.33329 11.4293C5.84072 11.8094 6.47614 12.1896 7.23805 12.5706L4.19043 9.52526ZM10.2857 3.42773L7.99995 7.99916L10.2857 3.42773ZM10.2857 3.42773L12.5714 7.99916L10.2857 3.42773Z" stroke="#6A5ECE" stroke-width="0.8" stroke-linecap="round" stroke-linejoin="round"/>
</svg>
