<svg width="32" height="32" viewBox="0 0 32 32" fill="none" xmlns="http://www.w3.org/2000/svg">
<path d="M15.9997 30.6673C24.0998 30.6673 30.6663 24.1008 30.6663 16.0007C30.6663 7.90047 24.0998 1.33398 15.9997 1.33398C7.8995 1.33398 1.33301 7.90047 1.33301 16.0007C1.33301 24.1008 7.8995 30.6673 15.9997 30.6673Z" fill="#E6E3FF"/>
<path d="M21.9997 22.7076L23.1457 23.8546C23.2395 23.9485 23.3669 24.0013 23.4997 24.0013C23.6324 24.0013 23.7598 23.9485 23.8537 23.8546C23.9475 23.7607 24.0003 23.6334 24.0003 23.5006C24.0003 23.3679 23.9475 23.2405 23.8537 23.1466L8.85366 8.14663C8.80717 8.10014 8.75198 8.06327 8.69124 8.03811C8.6305 8.01295 8.5654 8 8.49966 8C8.43391 8 8.36881 8.01295 8.30807 8.03811C8.24733 8.06327 8.19214 8.10014 8.14565 8.14663C8.09917 8.19312 8.06229 8.24831 8.03713 8.30905C8.01197 8.36979 7.99902 8.43489 7.99902 8.50063C7.99902 8.56638 8.01197 8.63148 8.03713 8.69221C8.06229 8.75295 8.09917 8.80814 8.14565 8.85463L9.99966 10.7076V23.5006C9.99973 23.5928 10.0253 23.6832 10.0735 23.7618C10.1217 23.8403 10.1907 23.904 10.2729 23.9458C10.3551 23.9876 10.4472 24.0059 10.5391 23.9986C10.631 23.9914 10.7191 23.9588 10.7937 23.9046L15.9997 20.1186L21.2057 23.9046C21.2802 23.9588 21.3683 23.9914 21.4602 23.9986C21.5521 24.0059 21.6442 23.9876 21.7264 23.9458C21.8086 23.904 21.8776 23.8403 21.9258 23.7618C21.974 23.6832 21.9996 23.5928 21.9997 23.5006V22.7076ZM21.9997 10.5006V19.8796L10.7937 8.67363C11.256 8.24051 11.8661 7.99985 12.4997 8.00063H19.4997C20.1627 8.00063 20.7986 8.26402 21.2674 8.73286C21.7363 9.20171 21.9997 9.83759 21.9997 10.5006Z" fill="#6A5ECE"/>
</svg>
