<svg width="64" height="64" viewBox="0 0 64 64" fill="none" xmlns="http://www.w3.org/2000/svg">
<path d="M61.5112 51.9288L36.8179 6.48878C36.3264 5.58317 35.5995 4.82704 34.714 4.30014C33.8285 3.77324 32.8172 3.49512 31.7868 3.49512C30.7564 3.49512 29.7451 3.77324 28.8596 4.30014C27.9741 4.82704 27.2472 5.58317 26.7557 6.48878L2.08012 51.9288C1.59216 52.8025 1.34178 53.7889 1.35394 54.7896C1.3661 55.7902 1.64038 56.7702 2.14943 57.6318C2.65848 58.4934 3.38451 59.2065 4.25512 59.7C5.12573 60.1935 6.1105 60.4502 7.11123 60.4443H56.4801C57.4707 60.4433 58.444 60.1853 59.305 59.6955C60.1659 59.2057 60.8851 58.5008 61.3921 57.6499C61.8991 56.7989 62.1766 55.8309 62.1975 54.8406C62.2183 53.8503 61.9819 52.8715 61.5112 51.9999V51.9288ZM29.5112 17.7777C29.5112 17.1176 29.7735 16.4845 30.2402 16.0178C30.707 15.551 31.34 15.2888 32.0001 15.2888C32.6602 15.2888 33.2933 15.551 33.76 16.0178C34.2268 16.4845 34.489 17.1176 34.489 17.7777V39.111C34.489 39.7711 34.2268 40.4042 33.76 40.8709C33.2933 41.3377 32.6602 41.5999 32.0001 41.5999C31.34 41.5999 30.707 41.3377 30.2402 40.8709C29.7735 40.4042 29.5112 39.7711 29.5112 39.111V17.7777ZM32.0001 53.0666C31.3672 53.0666 30.7485 52.8789 30.2223 52.5273C29.6961 52.1756 29.2859 51.6759 29.0437 51.0911C28.8015 50.5064 28.7381 49.863 28.8616 49.2423C28.9851 48.6215 29.2899 48.0513 29.7374 47.6038C30.1849 47.1563 30.7551 46.8515 31.3758 46.728C31.9966 46.6046 32.64 46.6679 33.2247 46.9101C33.8094 47.1523 34.3092 47.5625 34.6608 48.0887C35.0124 48.615 35.2001 49.2337 35.2001 49.8666C35.2001 50.2868 35.1174 50.7029 34.9565 51.0911C34.7957 51.4794 34.56 51.8322 34.2629 52.1293C33.9657 52.4264 33.6129 52.6622 33.2247 52.823C32.8365 52.9838 32.4204 53.0666 32.0001 53.0666Z" fill="#FFCA6C"/>
</svg>
