<svg id="Layer_2" data-name="Layer 2" xmlns="http://www.w3.org/2000/svg" xmlns:xlink="http://www.w3.org/1999/xlink" viewBox="0 0 205.2 119.56"><defs><style>.cls-1{fill:url(#linear-gradient);}.cls-2{fill:url(#linear-gradient-2);}.cls-3{fill:url(#linear-gradient-3);}.cls-4{fill:url(#linear-gradient-4);}.cls-5{fill:url(#linear-gradient-5);}.cls-6{fill:url(#linear-gradient-6);}.cls-7{stroke:#f2f2f2;stroke-miterlimit:10;stroke-width:0.1px;fill:url(#linear-gradient-7);}</style><linearGradient id="linear-gradient" x1="6062.42" y1="6025.36" x2="6082.89" y2="6060.82" gradientUnits="userSpaceOnUse"><stop offset="0" stop-color="#ff98b2"/><stop offset="0.17" stop-color="#ff98b4" stop-opacity="0.98"/><stop offset="0.35" stop-color="#fe96bc" stop-opacity="0.94"/><stop offset="0.53" stop-color="#fd95c8" stop-opacity="0.86"/><stop offset="0.71" stop-color="#fc92d9" stop-opacity="0.75"/><stop offset="0.89" stop-color="#fa8eef" stop-opacity="0.6"/><stop offset="1" stop-color="#f98cff" stop-opacity="0.5"/></linearGradient><linearGradient id="linear-gradient-2" x1="6089.81" y1="5998.89" x2="6129.42" y2="6067.49" xlink:href="#linear-gradient"/><linearGradient id="linear-gradient-3" x1="6214.76" y1="6012.52" x2="6238.79" y2="6054.13" xlink:href="#linear-gradient"/><linearGradient id="linear-gradient-4" x1="6201.45" y1="6001.97" x2="6217.68" y2="6030.07" xlink:href="#linear-gradient"/><linearGradient id="linear-gradient-5" x1="6110.35" y1="6011.96" x2="6181.5" y2="6053.03" gradientUnits="userSpaceOnUse"><stop offset="0" stop-color="#ff98b2"/><stop offset="1" stop-color="#8374ff"/></linearGradient><linearGradient id="linear-gradient-6" x1="6144.08" y1="6013.52" x2="6215.22" y2="6054.59" xlink:href="#linear-gradient-5"/><linearGradient id="linear-gradient-7" x1="40.88" y1="8.09" x2="49.59" y2="23.17" gradientUnits="userSpaceOnUse"><stop offset="0" stop-color="#ff98b2"/><stop offset="0.38" stop-color="#ff98b3" stop-opacity="0.99"/><stop offset="0.54" stop-color="#ff97b7" stop-opacity="0.96"/><stop offset="0.66" stop-color="#fe96bf" stop-opacity="0.92"/><stop offset="0.76" stop-color="#fd94c9" stop-opacity="0.85"/><stop offset="0.84" stop-color="#fc92d7" stop-opacity="0.76"/><stop offset="0.92" stop-color="#fb90e8" stop-opacity="0.65"/><stop offset="0.99" stop-color="#f98dfb" stop-opacity="0.53"/><stop offset="1" stop-color="#f98cff" stop-opacity="0.5"/></linearGradient></defs><path class="cls-1" d="M6059.66,6039.7a5,5,0,0,0-5-4.47l-8.05,0a5.08,5.08,0,0,0-5.06,5V6040a27,27,0,0,0,53.94-1.39v-10.83a5,5,0,0,0-5-5h-8a5,5,0,0,0-5,5l0,10.06a9,9,0,0,1-17.87,1.21" transform="translate(-6041.54 -5972.77)"/><path class="cls-2" d="M6106.28,6027l-1.76-4.09a5,5,0,0,0-4.59-3l-6.3,0h.14l-10.71,0c-3.59,0-6-4-4.57-7.59l2.86-7.15a5,5,0,0,1,4.61-3.27h24.26a5,5,0,0,1,4.59,3l1.76,4.09,21,48.77a5,5,0,0,1-4.6,7h-7.15a5,5,0,0,1-4.59-3l-16.43-38.21" transform="translate(-6041.54 -5972.77)"/><path class="cls-3" d="M6219,6064.8h-7.15a5,5,0,0,1-4.6-7l22.74-52.93a5,5,0,0,1,4.6-3h7.18a5,5,0,0,1,4.59,7l-22.76,52.93A5,5,0,0,1,6219,6064.8Z" transform="translate(-6041.54 -5972.77)"/><path class="cls-4" d="M6203.56,6022.68l2.84,6.6a5,5,0,0,0,4.59,3h1.48a5,5,0,0,0,4.6-3l2.82-6.58a5.41,5.41,0,0,0,.16-3.75l.07.16-6-13.87a5,5,0,0,0-4.59-3h-7.18a5,5,0,0,0-4.6,7l7.11,16.53" transform="translate(-6041.54 -5972.77)"/><path class="cls-5" d="M6123,6078.34a5.14,5.14,0,0,1,6.25-5.05,19.26,19.26,0,0,0,4.54.53,14.91,14.91,0,0,0,8.87-2.44,8,8,0,0,0,3.41-6.87q0-8.19-10.37-28.64-12.42-24.6-12.42-37.22,0-13.63,7.44-19.76t19.17-6.12a46.21,46.21,0,0,1,14.15,2.65,4.68,4.68,0,0,1,3.19,4.45v5.25A5,5,0,0,1,6161,5990a13.64,13.64,0,0,0-3.32-.43,11.86,11.86,0,0,0-7.3,2.3,7.7,7.7,0,0,0-3.07,6.55q0,7.83,9.83,27.54,12.69,25.6,12.69,38.78,0,13.46-8.12,19.76t-21.63,6.31a48.11,48.11,0,0,1-13.54-2A5,5,0,0,1,6123,6084Z" transform="translate(-6041.54 -5972.77)"/><path class="cls-6" d="M6156.75,6079.91a5.14,5.14,0,0,1,6.25-5.06,19.12,19.12,0,0,0,4.53.53,14.87,14.87,0,0,0,8.87-2.44,8,8,0,0,0,3.41-6.86q0-8.2-10.37-28.65-12.42-24.6-12.42-37.22,0-13.62,7.44-19.76t19.17-6.12a46.21,46.21,0,0,1,14.15,2.65,4.68,4.68,0,0,1,3.19,4.45v5.25a5,5,0,0,1-6.23,4.84,14.22,14.22,0,0,0-3.33-.43,11.8,11.8,0,0,0-7.3,2.31,7.7,7.7,0,0,0-3.07,6.54q0,7.83,9.83,27.54,12.69,25.61,12.69,38.78,0,13.45-8.12,19.76t-21.63,6.31a48.34,48.34,0,0,1-13.53-2,5,5,0,0,1-3.53-4.79Z" transform="translate(-6041.54 -5972.77)"/><circle class="cls-7" cx="45.23" cy="15.63" r="8.7"/></svg>