<svg width="21" height="19" viewBox="0 0 21 19" fill="none" xmlns="http://www.w3.org/2000/svg">
<defs>
<clipPath id="clip0_478_6519">
<rect width="21" height="18.9" fill="white"/>
</clipPath>
<clipPath id="clip1_478_6519">
<rect width="21" height="18.9" fill="white" transform="translate(0 0.944824)"/>
</clipPath>
</defs>
<g clip-path="url(#clip0_478_6519)">
<g clip-path="url(#clip1_478_6519)">
<path d="M10.5 19.0574C15.8157 19.0574 20.125 15.1791 20.125 10.3949C20.125 5.61075 15.8157 1.73242 10.5 1.73242C5.18426 1.73242 0.875 5.61075 0.875 10.3949C0.875 15.1791 5.18426 19.0574 10.5 19.0574Z" fill="white"/>
</g>
<path fill-rule="evenodd" clip-rule="evenodd" d="M0 9.50276C0 14.201 3.79138 18.1078 8.75 18.9V12.0747H6.125V9.45H8.75V7.34974C8.75 4.98724 10.4414 3.67526 12.8336 3.67526C13.5914 3.67526 14.4086 3.78 15.1664 3.88474V6.3H13.825C12.5414 6.3 12.25 6.87724 12.25 7.61276V9.45H15.05L14.5836 12.0747H12.25V18.9C17.2086 18.1078 21 14.2018 21 9.50276C21 4.27612 16.275 0 10.5 0C4.725 0 0 4.27612 0 9.50276Z" fill="#4267B2"/>
</g>
</svg>
